<ttFont>
<head>
    <!-- Most of this table will be recalculated by the compiler -->
    <tableVersion value="1.0"/>
    <fontRevision value="2.004"/>
    <checkSumAdjustment value="0x19eec7c0"/>
    <magicNumber value="0x5f0f3cf5"/>
    <flags value="00000000 00000011"/>
    <unitsPerEm value="1000"/>
    <created value="Thu Oct  8 09:57:33 2009"/>
    <modified value="Thu Oct  8 09:57:33 2009"/>
    <xMin value="-489"/>
    <yMin value="-292"/>
    <xMax value="1472"/>
    <yMax value="1124"/>
    <macStyle value="00000000 00000010"/>
    <lowestRecPPEM value="3"/>
    <fontDirectionHint value="2"/>
    <indexToLocFormat value="0"/>
    <glyphDataFormat value="0"/>
  </head>
          <CharString index="0">
            732 246 rmoveto
            14 -14 0 -5 -14 0 -2 -21 -10 vhcurveto
            -139 -60 -38 -65 -162 hhcurveto
            -142 hlineto
            -9 -10 0 2 -9 hvcurveto
            1 11 0 3 3 13 69 275 rcurveline
            97 hlineto
            71 7 -16 -26 -18 -6 -25 -1 -4 hvcurveto
            -2 -6 -1 -5 1 callsubr
            15 2 5 16 4 vhcurveto
            53 213 rlineto
            3 13 1 2 3 vvcurveto
            15 -13 0 -6 -16 -1 -4 -21 -5 vhcurveto
            -76 -20 -24 -16 -79 hhcurveto
            -90 hlineto
            60 241 rlineto
            36 9 7 0 31 hhcurveto
            140 hlineto
            112 29 -27 -78 -20 -2 -19 -3 -19 hvcurveto
            -5 -1 -5 -5 vvcurveto
            -16 12 0 7 17 1 7 17 89 callsubr
            1 14 rlineto
            14 -13 0 -15 vhcurveto
            -488 hlineto
            -17 -12 0 -18 -15 10 0 19 31 24 0 -16 -7 -2 -8 -2 -7 hvcurveto
            -133 -533 -51 callgsubr
            return
          </CharString>
          <CharString index="1">
            739 19 rmoveto
            14 -12 0 -16 -49 -1 9 24 -2 vhcurveto
            -60 621 rlineto
            22 -2 -3 5 -18 hhcurveto
            -14 -8 -3 -18 -11 hvcurveto
            -343 -575 -43 -72 -39 -10 -32 -3 rlinecurve
            -12 -1 -10 -1 -17 vvcurveto
            -10 8 -4 6 vhcurveto
            8 7 3 67 64 23 -3 5 hhcurveto
            5 67 callgsubr
            -12 1 -6 hvcurveto
            -21 2 -16 8 21 vvcurveto
            16 24 40 16 27 vhcurveto
            28 45 0 2 22 37 rrcurveto
            253 hlineto
            15 -155 2 -20 -1 -22 -61 -1 rlinecurve
            -15 -12 0 -19 -4 3 -10 13 hvcurveto
            35 39 3 37 87 7 -3 11 hhcurveto
            5 14 0 19 hvcurveto
            -182 245 rmoveto
            -230 hlineto
            198 330 rlineto
            return
          </CharString>
          <CharString index="2">
            68 callgsubr
            6 -5 8 -10 vhcurveto
            -3 -25 -3 -67 -75 -15 3 -7 hhcurveto
            5 callgsubr
            -13 14 -1 5 hvcurveto
            31 -1 28 -6 -33 vvcurveto
            -9 -4 -15 0 vhcurveto
            -89 -357 rlineto
            -121 -30 -108 -96 -102 hhcurveto
            -52 -65 30 100 26 5 29 5 21 hvcurveto
            97 389 rlineto
            34 8 6 9 62 hhcurveto
            22 11 0 19 5 -4 9 -12 -17 -22 -2 -1 -18 hvcurveto
            -119 hlineto
            -58 3 rlineto
            -75 callsubr
            -96 -384 rlineto
            -7 -28 0 -13 -18 vvcurveto
            -125 92 -66 99 137 116 131 107 26 vhcurveto
            89 359 17 70 50 2 33 2 rlinecurve
            11 1 6 6 12 vvcurveto
            return
          </CharString>
          <CharString index="3">
            21 4 -13 16 -21 hhcurveto
            -13 -12 -9 0 hvcurveto
            -177 -114 -3 -2 -10 -7 -1 -7 rlinecurve
            -1 -6 5 -16 11 -2 rrcurveto
            4 4 1 4 7 hvcurveto
            188 91 22 10 4 11 2 9 rlinecurve
            endchar
          </CharString>
          <CharString index="4">
            rmoveto
            8 -7 6 -7 -10 -3 -9 -4 -1 vhcurveto
            -101 -34 -88 -19 -33 hhcurveto
            -56 -38 36 52 hvcurveto
            13 4 14 3 vvcurveto
            10 -8 5 -6 -19 0 -44 -8 -68 44 -55 75 117 70 126 35 vhcurveto
            return
          </CharString>
          <CharString index="5">
            -70 callsubr
            -69 -16 69 45 23 7 43 7 30 hvcurveto
            57 hlineto
            40 187 0 126 50 -44 37 -68 -108 -152 -94 -177 -92 52 -88 106 144 81 96 14 hvcurveto
            -55 254 rmoveto
            -98 -154 0 -37 vhcurveto
            -41 hlineto
            124 33 87 33 44 hhcurveto
            35 33 -19 -40 hvcurveto
            return
          </CharString>
          <CharString index="6">
            hstemhm
            hintmask 00100000
            915 722 rmoveto
            2 7 0 7 7 vvcurveto
            28 -15 23 -29 -38 -29 -34 -33 -25 17 -19 30 vhcurveto
            2 hlineto
            -17 -19 -23 -15 -25 -5 6 22 rcurveline
            3 vlineto
            7 -4 5 -6 2 vhcurveto
            -4 -3 rlineto
            -32 -31 1 2 -32 hvcurveto
            97 hlineto
            -2 hlineto
            -98 hlineto
            -6 -6 -4 -6 -2 hvcurveto
            -1 -6 rlineto
            -3 vlineto
            -6 4 -6 6 -1 vhcurveto
            hintmask 11000000
            4 -1 rlineto
            26 18 -4 -11 11 hvcurveto
            5 -6 3 -8 -11 vvcurveto
            -6 89 callgsubr
            -90 -358 -14 -58 -33 -56 -47 -42 rlinecurve
            -40 -45 -55 -23 -50 hhcurveto
            -46 -37 22 37 -20 hvcurveto
            -10 20 -5 24 27 vvcurveto
            25 5 28 7 29 vhcurveto
            97 387 4 18 5 10 9 4 rlinecurve
            6 12 24 1 38 hhcurveto
            6 6 5 6 1 hvcurveto
            2 5 rlineto
            3 vlineto
            7 -4 5 -6 2 vhcurveto
            -2 hlineto
            -119 -3 -120 3 rlineto
            -3 hlineto
            -7 -5 -4 -6 -2 hvcurveto
            -1 -6 -1 -3 rlineto
            -6 5 -6 6 -1 vhcurveto
            3 -1 rlineto
            1 hlineto
            37 23 -1 -5 8 hvcurveto
            0 2 -2 -5 vvcurveto
            -5 89 callgsubr
            -97 -386 rlineto
            -5 -21 -3 -20 -20 vvcurveto
            -44 13 -40 23 -32 vhcurveto
            -48 35 57 -27 65 hhcurveto
            59 63 27 45 50 hvcurveto
            53 47 37 62 16 64 96 382 rcurveline
            61 7 58 49 15 60 rrcurveto
            return
          </CharString>
          <CharString index="7">
            -49 callgsubr
            -60 -242 rlineto
            -300 hlineto
            58 235 rlineto
            34 8 6 9 62 hhcurveto
            22 11 0 19 5 -4 9 -12 -17 -22 -2 -1 -18 hvcurveto
            -119 hlineto
            -58 3 rlineto
            -75 callsubr
            -134 -537 -70 callgsubr
            12 callsubr
            hvcurveto
            67 268 97 callgsubr
            -65 -263 rlineto
            -37 -9 -7 -6 -66 hhcurveto
            -15 -12 -78 callsubr
            8 2 8 2 7 hvcurveto
            133 532 rlineto
            38 10 5 8 64 hhcurveto
            19 12 0 19 hvcurveto
            return
          </CharString>
          <CharString index="8">
            820 470 rmoveto
            28 178 1 14 rlineto
            14 -13 0 -15 vhcurveto
            -545 hlineto
            -22 -3 0 -18 -6 hvcurveto
            -61 -178 rlineto
            -5 -13 0 -4 14 callsubr
            4 6 0 3 4 vhcurveto
            3 2 0 2 9 27 rrcurveto
            144 51 30 16 134 hhcurveto
            20 25 0 -2 15 hvcurveto
            -1 -14 0 -3 -4 -15 -131 -525 rcurveline
            -40 -10 -6 -11 -91 hhcurveto
            -13 hlineto
            63 callgsubr
            2 -10 15 hvcurveto
            38 39 3 39 hhcurveto
            73 hlineto
            40 42 -3 39 hhcurveto
            7 14 17 callgsubr
            hvcurveto
            -13 hlineto
            -17 -16 1 1 -17 hvcurveto
            -24 3 -7 2 13 vvcurveto
            6 3 11 0 vhcurveto
            134 537 8 31 7 2 7 1 rlinecurve
            2 7 31 0 19 hhcurveto
            98 39 -5 -72 -10 -1 -7 -1 -9 hvcurveto
            -8 -65 rlineto
            -5 vlineto
            -5 vlineto
            -2 -1 -2 -14 21 hhcurveto
            17 1 7 14 2 hvcurveto
            return
          </CharString>
          <CharString index="9">
            818 262 rmoveto
            6 -5 8 -10 vhcurveto
            -9 -3 -3 -94 -44 -46 3 -42 hhcurveto
            -8 -14 0 -19 -42 callgsubr
            10 hlineto
            46 -2 rlineto
            25 -3 4 -2 -13 vvcurveto
            -6 -23 -99 -8 -16 vhcurveto
            -68 -36 -92 -22 -59 hhcurveto
            -104 -90 67 140 62 25 148 83 107 -22 callgsubr
            60 241 rlineto
            1 3 2 8 3 vvcurveto
            5 -4 7 -10 -4 -5 0 -11 -9 vhcurveto
            -65 -76 rlineto
            65 -43 -59 22 -63 hhcurveto
            -217 -222 -220 -232 -163 111 -110 156 47 98 9 67 68 hvcurveto
            -17 6 20 -38 13 hhcurveto
            0 7 0 3 7 vhcurveto
            4 7 28 118 5 19 9 37 8 32 6 9 rrcurveto
            13 8 17 1 30 hhcurveto
            11 7 7 12 hvcurveto
            return
          </CharString>
          <CharString index="10">
            rmoveto
            35 -28 11 -18 -34 -33 -31 -34 -30 23 -16 23 33 34 29 36 vhcurveto
            return
          </CharString>
          <CharString index="11">
            601 140 rmoveto
            3 vlineto
            6 -4 5 -5 1 vhcurveto
            -3 1 rlineto
            -14 hlineto
            -6 -5 -4 -6 -1 hvcurveto
            -86 -22 -17 -43 -31 hhcurveto
            -19 -9 15 28 13 2 16 4 16 hvcurveto
            63 251 60 12 54 44 14 57 rlinecurve
            2 7 1 8 7 vvcurveto
            27 -16 23 -28 1 vhcurveto
            -39 -1 -28 -33 -33 vvcurveto
            -25 17 -20 29 vhcurveto
            1 hlineto
            -16 -15 -20 -13 -22 -7 rrcurveto
            1 3 96 callsubr
            18 -14 10 -16 -17 -18 -11 -20 -5 vhcurveto
            -72 -289 -1 -6 rlineto
            -54 -30 -36 -33 -47 hhcurveto
            -25 -19 14 22 -8 hvcurveto
            -4 13 -2 13 16 vvcurveto
            22 4 24 7 29 vhcurveto
            10 37 15 43 26 69 rrcurveto
            5 13 3 14 12 vvcurveto
            48 -34 35 -50 -65 -50 -70 -81 -20 vhcurveto
            -1 -3 rlineto
            -5 4 -5 5 -2 vhcurveto
            3 hlineto
            14 hlineto
            6 5 4 5 1 hvcurveto
            75 19 34 54 45 hhcurveto
            14 6 -9 -21 -15 -4 -21 -8 -20 hvcurveto
            -26 -69 -16 -44 -9 -38 rrcurveto
            -6 -24 -3 -22 -21 vvcurveto
            -25 5 -24 12 -20 vhcurveto
            -34 20 40 -16 46 hhcurveto
            46 38 22 38 32 hvcurveto
            -36 12 33 -24 44 hhcurveto
            60 26 61 89 23 hvcurveto
            return
          </CharString>
          <CharString index="12">
            540 272 rmoveto
            104 -70 65 -90 -129 -136 -135 -147 -110 75 -59 84 133 133 138 144 vhcurveto
            -75 35 rmoveto
            -32 -15 -97 -41 -68 vhcurveto
            -55 -32 -54 -37 -48 hhcurveto
            -38 -47 26 80 45 21 94 32 55 hvcurveto
            72 43 59 23 34 hhcurveto
            48 38 -36 -70 hvcurveto
            return
          </CharString>
          <CharString index="13">
            -97 callsubr
            endchar
          </CharString>
          <CharString index="14">
            31 -13 16 -24 -32 -19 -28 -22 -15 9 -18 26 17 5 4 4 6 vhcurveto
            -18 -75 -50 -42 -20 -16 rrcurveto
            -4 -3 -3 -3 -3 vvcurveto
            -6 5 -6 6 13 96 90 92 vhcurveto
            endchar
          </CharString>
          <CharString index="15">
            664 245 rmoveto
            13 -10 2 -9 -14 -1 -3 -21 -8 vhcurveto
            -89 -34 -43 -114 -163 hhcurveto
            -95 hlineto
            -9 -10 0 2 -9 hvcurveto
            1 11 0 3 3 13 135 541 rcurveline
            37 9 6 10 -11 callgsubr
            hvcurveto
            -43 -46 -3 -44 -100 -16 3 -8 hhcurveto
            -6 -14 -65 callgsubr
            448 20 callgsubr
            77 209 rlineto
            5 13 0 5 0 vvcurveto
            return
          </CharString>
          <CharString index="16">
            -23 callsubr
            15 -16 -1 -11 -1 vhcurveto
            -104 -9 rlineto
            -14 -1 -11 -1 -18 vvcurveto
            -14 12 0 14 48 0 -6 -9 -5 -3 -11 -1 -6 vhcurveto
            return
          </CharString>
          <CharString index="17">
            823 338 rmoveto
            8 34 4 33 32 vvcurveto
            59 -14 55 -30 46 vhcurveto
            -5 8 -6 8 -6 7 44 13 39 43 12 49 rrcurveto
            2 7 1 6 6 vvcurveto
            28 -1 -16 22 -28 hhcurveto
            -39 -28 -34 -33 -25 17 -19 29 hvcurveto
            2 hlineto
            -18 -19 -23 -13 -23 -1 rrcurveto
            34 -42 -54 20 -62 hhcurveto
            -89 -94 -41 -66 -76 hvcurveto
            -81 -71 -56 -93 -23 -95 rrcurveto
            -8 -32 -5 -32 -31 vvcurveto
            -59 15 -54 30 -46 vhcurveto
            -65 44 73 -40 89 hhcurveto
            89 93 40 65 76 hvcurveto
            81 69 55 91 24 94 rrcurveto
            -90 17 rmoveto
            -21 -86 -37 -87 -66 -72 rrcurveto
            -58 -54 -72 -40 -70 hhcurveto
            -70 -51 40 58 -26 hvcurveto
            -14 34 -6 37 40 vvcurveto
            43 7 46 12 45 vhcurveto
            20 80 35 82 64 64 rrcurveto
            55 55 71 37 68 hhcurveto
            69 53 -37 -55 27 hvcurveto
            16 -33 6 -37 -39 vvcurveto
            -38 -6 -39 -10 -40 vhcurveto
            return
          </CharString>
          <CharString index="18">
            rmoveto
            -53 callsubr
            -20 -17 -15 -20 -5 vhcurveto
            20 -11 -28 34 -52 hhcurveto
            -116 -121 -141 -142 -100 61 -58 72 37 37 17 33 38 hvcurveto
            -21 -84 -11 -42 -6 -24 -29 -32 rlinecurve
            -44 -42 -44 0 -18 hhcurveto
            -15 -26 0 8 -27 hvcurveto
            23 14 2 28 0 vvcurveto
            20 -14 14 -22 -25 -25 -21 -33 -52 65 -6 62 127 71 73 65 16 vhcurveto
            -18 207 rmoveto
            -36 -9 -65 -77 -59 hhcurveto
            -43 -19 44 46 44 26 106 22 46 hvcurveto
            63 31 47 36 38 hhcurveto
            62 13 -80 -12 -4 -1 -2 -2 -9 hvcurveto
            return
          </CharString>
          <CharString index="19">
            -45 callgsubr
            -17 0 -3 -25 -6 vhcurveto
            -77 -19 -21 -33 -27 hhcurveto
            -28 0 32 12 return
          </CharString>
          <CharString index="20">
            300 -46 callsubr
            -16 -4 vhcurveto
            -52 -14 -17 -66 -36 -81 callsubr
            -124 -495 rlineto
            -5 -20 0 -6 -10 vvcurveto
            -61 46 -31 46 21 31 7 48 25 vhcurveto
            18 36 14 58 4 vvcurveto
            return
          </CharString>
          <CharString index="21">
            rmoveto
            0 3 6 -3 11 vhcurveto
            -22 135 rlineto
            11 -2 -2 12 -20 hhcurveto
            -21 -19 -17 -13 -7 hvcurveto
            -6 -13 4 -12 3 -6 49 -120 rcurveline
            -12 5 4 0 4 hhcurveto
            0 23 5 7 13 vhcurveto
            -165 hmoveto
            0 3 6 -3 11 vhcurveto
            -22 135 rlineto
            11 -2 -2 12 -20 hhcurveto
            -21 -19 -17 -13 -7 hvcurveto
            -6 -13 4 -12 3 -6 49 -120 rcurveline
            -12 5 4 0 4 hhcurveto
            0 23 5 7 13 vhcurveto
            endchar
          </CharString>
          <CharString index="22">
            759 19 rmoveto
            13 -14 1 -4 vhcurveto
            -32 1 -15 3 -15 35 -150 341 rcurveline
            194 151 28 22 74 57 63 7 rlinecurve
            8 1 11 1 17 vvcurveto
            6 -4 8 -9 vhcurveto
            0 -29 -3 -7 vhcurveto
            -40 hlineto
            -34 -36 3 -32 hhcurveto
            -6 48 callgsubr
            7 -5 -9 vvcurveto
            -16 -18 -16 -4 -3 vhcurveto
            -6 -6 -2 -1 -1 -1 -8 -7 rlinecurve
            -373 -291 78 313 rlineto
            34 8 6 9 62 hhcurveto
            22 11 0 19 5 -4 9 -12 -17 -22 -2 -1 -18 hvcurveto
            -119 hlineto
            -58 3 rlineto
            -75 callsubr
            -134 -537 -70 callgsubr
            5 6 22 3 14 hvcurveto
            38 151 156 122 124 -282 rlineto
            6 -12 0 -2 -5 vvcurveto
            -24 -23 -4 -20 -1 vhcurveto
            -11 -13 -1 -18 30 callsubr
            34 37 3 35 84 -5 -3 13 hhcurveto
            4 15 0 19 hvcurveto
            return
          </CharString>
          <CharString index="23">
            rmoveto
            14 -14 0 -15 vhcurveto
            -298 49 callgsubr
            -22 -42 callgsubr
            298 hlineto
            18 13 0 22 hvcurveto
            endchar
          </CharString>
          <CharString index="24">
            774 96 rmoveto
            14 -15 0 -4 -15 -1 -4 -15 -5 vhcurveto
            -43 -13 -29 -41 -37 hhcurveto
            -31 -5 22 33 15 2 25 4 30 hvcurveto
            2 18 8 60 14 vvcurveto
            49 -26 42 -60 24 vhcurveto
            129 34 82 81 79 vvcurveto
            83 -87 67 -131 vhcurveto
            -274 -15 callsubr
            return
          </CharString>
          <CharString index="25">
            -77 callgsubr
            0 -2 -4 -14 hvcurveto
            return
          </CharString>
          <CharString index="26">
            hhcurveto
            -28 0 32 12 6 0 11 3 12 hvcurveto
            143 574 rlineto
            -91 callsubr
            return
          </CharString>
          <CharString index="27">
            rmoveto
            3 7 -7 7 -2 2 -120 114 rcurveline
            0 -8 9 -13 -20 -21 -16 -21 -7 vhcurveto
            -2 -9 -2 -11 17 -10 143 -91 rcurveline
            -4 5 3 -1 4 hhcurveto
            12 2 13 16 2 6 rrcurveto
            endchar
          </CharString>
          <CharString index="28">
            -102 callgsubr
            10 144 rmoveto
            -2 -6 -13 -16 -12 -2 rrcurveto
            -4 -3 1 4 -5 hvcurveto
            -143 91 -17 10 2 11 2 9 rlinecurve
            21 7 21 16 20 hhcurveto
            13 8 -9 0 hvcurveto
            120 -114 2 -2 7 -7 -3 -7 rlinecurve
            endchar
          </CharString>
          <CharString index="29">
            -9 callgsubr
            5 44 2 1 8 hvcurveto
            60 hlineto
            85 28 -3 5 hhcurveto
            6 -30 callgsubr
            -17 -31 -24 0 16 return
          </CharString>
          <CharString index="30">
            rmoveto
            0 3 6 -2 11 vhcurveto
            -23 135 rlineto
            11 -1 -2 12 -20 hhcurveto
            -21 -20 -17 -13 -6 hvcurveto
            -7 -13 4 -12 3 -6 49 -120 rcurveline
            -12 5 4 0 4 hhcurveto
            0 24 5 6 13 vhcurveto
            -165 hmoveto
            0 3 6 -2 11 vhcurveto
            -23 135 rlineto
            11 -1 -2 12 -20 hhcurveto
            -21 -20 -17 -13 -6 hvcurveto
            -7 -13 4 -12 3 -6 49 -120 rcurveline
            -12 5 4 0 4 hhcurveto
            0 24 5 6 13 vhcurveto
            endchar
          </CharString>
          <CharString index="31">
            rmoveto
            11 7 -5 16 -12 -5 -141 -55 rcurveline
            -111 55 -11 5 -13 -16 9 -7 rlinecurve
            106 -98 3 -2 5 0 4 2 rlinecurve
            endchar
          </CharString>
          <CharString index="32">
            -6 -14 -82 callsubr
            return
          </CharString>
          <CharString index="33">
            794 437 rmoveto
            60 241 rlineto
            1 3 2 8 3 vvcurveto
            5 -4 7 -10 -4 -5 0 -11 -9 vhcurveto
            -65 -76 rlineto
            65 -43 -59 22 -63 hhcurveto
            -217 -222 -220 -232 -169 117 -104 148 115 109 73 93 59 hvcurveto
            30 48 10 42 5 vvcurveto
            13 -10 0 -9 -7 -9 0 -10 -2 vhcurveto
            -169 -52 -136 -62 -87 hhcurveto
            -93 -95 60 146 62 24 148 84 108 -22 callgsubr
            return
          </CharString>
          <CharString index="34">
            782 -21 72 callsubr
            hintmask 10011100
            -83 callsubr
            hintmask 01101000
            -82 callgsubr
            hintmask 10110100
            -62 callsubr
            return
          </CharString>
          <CharString index="35">
            rmoveto
            12 -11 0 -8 -13 -1 -1 -11 -8 vhcurveto
            -42 -31 -46 -59 -51 hhcurveto
            -19 -5 11 35 -6 hvcurveto
            39 -7 -7 28 -42 hhcurveto
            -32 -50 -11 -48 -56 hvcurveto
            8 16 13 27 4 vvcurveto
            12 -11 0 -8 -14 -1 -2 -14 -7 vhcurveto
            -99 -202 rlineto
            -5 -10 -1 -1 -5 vvcurveto
            -12 11 0 8 6 5 0 3 3 vhcurveto
            2 1 0 2 11 18 rrcurveto
            94 52 86 54 66 hhcurveto
            11 10 0 -24 17 hvcurveto
            -25 16 14 -18 31 hhcurveto
            22 8 3 6 14 hvcurveto
            -55 -85 -43 -66 -47 -93 rrcurveto
            -79 -159 -23 -108 -8 vvcurveto
            -21 16 -14 21 41 9 36 15 4 vhcurveto
            55 212 84 205 126 179 rrcurveto
            16 22 0 2 3 vvcurveto
            endchar
          </CharString>
          <CharString index="36">
            hstemhm
            hintmask 11100000
            -107 callsubr
            502 -66 callsubr
            hintmask 00010000
            return
          </CharString>
          <CharString index="37">
            502 100 rmoveto
            8 -13 13 -7 -6 -1 -2 -10 -9 vhcurveto
            -66 -54 -79 -25 -55 hhcurveto
            return
          </CharString>
          <CharString index="38">
            hstemhm
            135 64 37 63 hintmask 11001100
            -101 callgsubr
            return
          </CharString>
          <CharString index="39">
            1050 669 rmoveto
            14 -13 0 -15 vhcurveto
            -124 hlineto
            -22 -6 0 -20 -12 hvcurveto
            -356 -572 -70 566 rlineto
            24 -3 0 2 -28 hhcurveto
            -129 hlineto
            -17 -12 -82 callsubr
            -127 -505 -10 -41 -16 -31 -71 -3 rlinecurve
            -6 -13 -1 -18 30 callsubr
            30 35 3 31 78 11 -3 10 hhcurveto
            4 67 callgsubr
            -13 1 -5 hvcurveto
            -41 1 -18 11 29 vvcurveto
            8 3 13 1 3 vhcurveto
            131 526 rlineto
            1 hlineto
            74 -598 rlineto
            -18 2 1 -8 18 hhcurveto
            17 7 11 10 6 hvcurveto
            380 611 rlineto
            1 hlineto
            -138 -556 41 callsubr
            15 23 2 1 15 hvcurveto
            58 hlineto
            84 25 22 callsubr
            133 532 rlineto
            38 10 5 8 64 hhcurveto
            19 12 0 19 hvcurveto
            return
          </CharString>
          <CharString index="40">
            rmoveto
            73 -57 65 -100 -129 -103 -103 -83 -34 21 -33 41 44 45 37 47 25 -15 29 -12 -7 -8 -7 -7 0 0 -4 5 -8 vhcurveto
            5 -9 4 -9 -10 vvcurveto
            -33 -34 -23 -25 -19 -7 16 20 73 91 88 101 50 43 -27 -63 -19 -12 -177 -170 vhcurveto
            -28 hlineto
            -16 -11 0 -20 -13 11 0 17 hvcurveto
            33 hlineto
            32 51 -12 -74 -92 -57 -133 -132 -48 -55 26 69 -4 hvcurveto
            45 4 5 37 9 vvcurveto
            16 -11 17 -25 -45 -8 -49 -27 -69 54 -61 92 127 138 95 127 81 -53 36 -26 13 vhcurveto
            100 34 62 88 74 vvcurveto
            endchar
          </CharString>
          <CharString index="41">
            hlineto
            22 1 1 17 8 hvcurveto
            91 211 rlineto
            2 4 3 8 5 vvcurveto
            return
          </CharString>
          <CharString index="42">
            rmoveto
            -94 callgsubr
            219 hmoveto
            -94 callgsubr
            endchar
          </CharString>
          <CharString index="43">
            0 17 27 28 0 -15 -6 return
          </CharString>
          <CharString index="44">
            204 rmoveto
            56 -27 31 -6 7 vhcurveto
            -7 8 -40 32 -24 20 rrcurveto
            144 65 19 83 39 vvcurveto
            71 -63 49 -84 -111 -109 -93 -106 -62 29 -24 51 -40 vhcurveto
            -100 -45 -95 -71 -106 vvcurveto
            -92 83 -47 86 128 126 106 119 vhcurveto
            9 344 rmoveto
            -71 -66 -66 -73 -33 vhcurveto
            -89 68 rlineto
            -2 1 -28 22 39 vvcurveto
            68 80 63 79 vhcurveto
            hintmask 10101010
            60 39 -38 -53 hvcurveto
            -74 -381 rmoveto
            -81 -92 -77 -95 -70 -45 47 60 119 150 83 15 3 33 -26 -14 18 vhcurveto
            66 -51 17 -13 -47 vvcurveto
            endchar
          </CharString>
          <CharString index="45">
            -84 73 -24 54 87 35 102 15 vhcurveto
            -106 455 rmoveto
            -41 -17 -73 -53 -39 vhcurveto
            -42 -57 -74 0 -18 hhcurveto
            -114 hlineto
            64 259 rlineto
            35 9 7 0 31 hhcurveto
            77 hlineto
            89 56 -28 -71 hvcurveto
            return
          </CharString>
          <CharString index="46">
            265 rmoveto
            46 -30 115 -122 -50 -50 -24 -61 -47 vhcurveto
            296 76 159 2 16 hhcurveto
            41 19 -15 -24 6 hvcurveto
            -44 -5 -3 -36 -8 vvcurveto
            -20 13 -13 22 28 24 20 46 57 -48 24 -57 -79 -94 -47 -103 -80 vhcurveto
            -110 -143 -4 -189 -16 vvcurveto
            -83 29 -105 119 137 129 142 144 vhcurveto
            -77 41 rmoveto
            -34 -26 -119 -27 -50 vhcurveto
            -20 -10 -46 -74 -78 hhcurveto
            -41 -38 26 74 27 6 96 47 77 hvcurveto
            44 27 48 45 58 hhcurveto
            80 0 -81 -11 hvcurveto
            endchar
          </CharString>
          <CharString index="47">
            rmoveto
            122 -56 62 -88 -133 -137 -130 -155 -58 36 -103 115 66 49 43 42 32 vhcurveto
            -247 -59 -124 -48 -55 hhcurveto
            -21 -43 4 31 -14 hvcurveto
            43 6 3 35 8 vvcurveto
            20 -13 13 -22 -30 -22 -22 -43 -62 60 -20 57 88 88 59 98 72 vhcurveto
            96 134 12 176 35 vvcurveto
            -117 -133 rmoveto
            -48 -27 -50 -53 -63 hhcurveto
            -60 -20 44 49 33 23 125 38 60 hvcurveto
            19 13 46 62 73 hhcurveto
            51 23 -44 -53 0 -1 -108 -46 -86 hvcurveto
            endchar
          </CharString>
          <CharString index="48">
            9 callgsubr
            77 -23 60 -39 49 vhcurveto
            82 91 rlineto
            12 12 0 2 4 vvcurveto
            11 -11 5 -5 -7 -3 -4 -8 -7 vhcurveto
            -83 -91 rlineto
            43 -49 -59 17 -58 hhcurveto
            -218 -214 -234 -227 -52 13 -71 50 -60 hvcurveto
            -76 -84 rlineto
            -17 -17 0 -2 -5 vvcurveto
            -12 12 -4 4 7 3 4 13 11 vhcurveto
            79 85 rlineto
            -34 38 56 -25 72 hhcurveto
            211 219 220 237 hvcurveto
            -115 175 rmoveto
            -469 -512 rlineto
            -22 47 0 42 19 vvcurveto
            58 22 172 100 122 vhcurveto
            69 57 87 48 83 hhcurveto
            94 44 -59 -6 4 hvcurveto
            40 -138 rmoveto
            -75 -32 -162 -77 -99 vhcurveto
            -102 -81 -94 -28 -65 hhcurveto
            -84 -41 45 19 -17 hvcurveto
            468 512 rlineto
            17 -33 6 -39 -38 vvcurveto
            return
          </CharString>
          <CharString index="49">
            rmoveto
            68 -44 55 -75 -117 -70 -126 -35 -8 7 -6 7 10 3 9 4 1 vhcurveto
            101 34 88 19 33 hhcurveto
            56 38 -36 -52 hvcurveto
            -13 -4 -14 -3 vvcurveto
            -10 8 -5 6 19 0 44 8 vhcurveto
            endchar
          </CharString>
          <CharString index="50">
            5 12 -14 5 -7 -10 rrcurveto
            -36 -24 -33 -20 -32 hhcurveto
            -36 -46 23 46 10 hvcurveto
            return
          </CharString>
          <CharString index="51">
            534 276 rmoveto
            25 -5 56 -41 42 vhcurveto
            86 112 rlineto
            9 10 0 2 5 vvcurveto
            10 -8 4 -6 -6 -1 -1 -11 -8 vhcurveto
            -87 -112 rlineto
            8 -12 -31 17 -43 hhcurveto
            -131 -129 -144 -143 -52 18 -44 28 -29 hvcurveto
            -78 -99 rlineto
            -17 -23 0 -2 -4 vvcurveto
            -8 7 -6 6 6 1 1 21 17 vhcurveto
            79 102 rlineto
            0 35 -25 51 130 130 143 145 vhcurveto
            -91 112 rmoveto
            -247 -318 rlineto
            -11 24 0 27 8 vvcurveto
            32 14 98 46 69 vhcurveto
            57 38 54 30 43 hhcurveto
            20 23 -6 -21 20 hvcurveto
            27 -85 rmoveto
            -116 -77 -171 -118 -39 -22 24 3 -2 vhcurveto
            247 319 rlineto
            4 -10 7 -22 -27 vvcurveto
            return
          </CharString>
          <CharString index="52">
            -38 callgsubr
            -64 -18 -33 -53 -43 hhcurveto
            -19 -3 14 18 23 8 21 7 20 hvcurveto
            20 53 41 108 58 vvcurveto
            86 return
          </CharString>
          <CharString index="53">
            hstemhm
            103 73 hintmask 11010000
            -105 callgsubr
            hintmask 00100000
            return
          </CharString>
          <CharString index="54">
            1 5 3 11 5 vvcurveto
            16 -13 12 -17 return
          </CharString>
          <CharString index="55">
            -19 callsubr
            hstemhm
            -107 callsubr
            502 -66 callsubr
            26 callgsubr
            return
          </CharString>
          <CharString index="56">
            65 callsubr
            746 19 rmoveto
            14 -11 0 -16 -44 -10 9 19 -8 vhcurveto
            -138 317 174 186 73 78 52 6 27 2 rlinecurve
            12 1 11 1 17 vvcurveto
            6 -5 8 -10 vhcurveto
            -7 -9 -3 -73 -72 -21 3 -7 hhcurveto
            5 callgsubr
            -12 12 -2 4 hvcurveto
            14 -1 14 -7 -17 vvcurveto
            -10 -5 -10 -7 -8 vhcurveto
            -4 -4 -3 -6 -1 -2 -5 -5 rlinecurve
            -158 -168 -87 199 rlineto
            -3 7 -1 4 0 vvcurveto
            8 17 17 33 3 vhcurveto
            8 1 11 0 18 vvcurveto
            9 -7 5 -8 vhcurveto
            0 -40 -3 -71 vhcurveto
            -86 -9 3 -9 hhcurveto
            5 callgsubr
            -14 14 0 10 47 10 -7 -22 9 hvcurveto
            120 -276 -231 -244 -59 -62 -54 -4 -21 -2 rlinecurve
            -10 -1 -11 -1 -17 vvcurveto
            -8 7 -6 7 vhcurveto
            10 4 3 75 70 25 -3 6 hhcurveto
            5 14 0 19 12 -12 2 -3 hvcurveto
            -15 1 -13 6 18 vvcurveto
            9 4 8 5 8 vhcurveto
            7 9 3 5 5 5 196 209 rcurveline
            104 -238 rlineto
            4 -9 0 -3 0 vvcurveto
            -9 -19 -17 -31 -2 vhcurveto
            -6 -13 -1 -18 -4 3 -10 13 hvcurveto
            35 39 3 37 89 3 -3 12 hhcurveto
            5 14 0 19 hvcurveto
            endchar
          </CharString>
          <CharString index="57">
            -34 -9 -6 -9 -61 hhcurveto
            -22 -11 0 -19 return
          </CharString>
          <CharString index="58">
            vvcurveto
            -13 13 -1 5 vhcurveto
            23 -2 28 -9 -24 vvcurveto
            -58 -110 0 -30 vhcurveto
            -13 48 callsubr
            9 0 33 63 145 0 87 return
          </CharString>
          <CharString index="59">
            rmoveto
            2 1 -5 9 -7 hhcurveto
            0 -3 0 -8 -3 vhcurveto
            -1 -6 -19 -6 -22 hhcurveto
            -3 -5 0 1 -4 hvcurveto
            27 108 rlineto
            1 5 96 callsubr
            13 -1 -14 4 -7 hhcurveto
            -24 -3 -12 -35 -8 hvcurveto
            -20 -78 rlineto
            17 -58 -13 4 -30 hhcurveto
            -26 hlineto
            31 24 50 40 47 64 rrcurveto
            81 111 19 97 5 vvcurveto
            14 -1 -14 3 -7 hhcurveto
            -23 -4 -17 -6 -2 hvcurveto
            -29 -107 -46 -105 -87 -81 -35 -33 -24 -15 -2 -1 -10 -5 -20 -8 1 -10 rrcurveto
            -4 6 -7 5 5 11 7 5 7 vhcurveto
            9 13 26 0 21 hhcurveto
            16 14 0 -7 28 hvcurveto
            0 2 0 44 -13 vhcurveto
            -22 -86 -3 -10 -5 vvcurveto
            -9 1 10 -7 12 hhcurveto
            23 3 13 27 7 hvcurveto
            16 67 rlineto
            -1 6 6 0 5 hhcurveto
            20 52 8 11 -2 hvcurveto
            103 654 rmoveto
            13 3 -8 10 -12 hhcurveto
            -8 -8 -4 -6 -6 hvcurveto
            -599 -643 -4 -4 -2 -4 -2 -5 rlinecurve
            -13 -3 8 -10 13 hhcurveto
            7 8 4 6 6 hvcurveto
            600 643 3 4 3 5 1 4 rlinecurve
            endchar
          </CharString>
          <CharString index="60">
            -75 callgsubr
            endchar
          </CharString>
          <CharString index="61">
            -39 callgsubr
            -1 -4 return
          </CharString>
          <CharString index="62">
            rmoveto
            2 7 6 20 6 vvcurveto
            14 -13 0 -15 vhcurveto
            -206 hlineto
            -19 -6 0 -14 -3 hvcurveto
            -2 -6 -6 -21 -5 vvcurveto
            -15 10 0 17 vhcurveto
            207 hlineto
            19 5 0 14 4 hvcurveto
            endchar
          </CharString>
          <CharString index="63">
            rrcurveto
            -46 -10 37 -44 64 hhcurveto
            50 61 39 57 28 hvcurveto
            return
          </CharString>
          <CharString index="64">
            5 callsubr
            65 83 146 -20 hstem
            115 73 vstem
            446 556 rmoveto
            15 -9 18 -26 -17 -5 -4 -4 -6 vhcurveto
            18 75 50 42 20 16 rrcurveto
            4 3 3 3 3 vvcurveto
            6 -5 6 -6 -13 -96 -90 -92 -31 13 -16 24 32 19 28 22 vhcurveto
            65 -183 -21 callgsubr
          </CharString>
          <CharString index="65">
            rmoveto
            12 -10 11 -13 -11 -4 -5 -10 -10 vhcurveto
            -72 -66 -81 -21 -59 hhcurveto
            -85 -50 39 32 -27 hvcurveto
            16 -14 -17 21 -38 hhcurveto
            -94 -104 -131 -135 -91 50 -46 54 96 92 148 124 8 -3 28 0 hvcurveto
            -28 42 47 -13 50 hhcurveto
            26 40 3 21 52 hvcurveto
            -1 vlineto
            -589 -648 rlineto
            -10 -11 -2 -2 -9 vvcurveto
            -15 13 -8 10 10 6 6 8 7 vhcurveto
            680 748 rlineto
            9 10 3 3 8 vvcurveto
            return
          </CharString>
          <CharString index="66">
            -20 hstemhm
            103 73 hintmask 11001000
            -105 callgsubr
            hintmask 00110000
            179 369 -103 callsubr
            return
          </CharString>
          <CharString index="67">
            -11 callsubr
            193 hmoveto
            -55 callgsubr
            endchar
          </CharString>
          <CharString index="68">
            507 0 callgsubr
            39 29 40 24 rrcurveto
            -4 11 12 -4 13 hhcurveto
            36 24 22 31 17 hvcurveto
            21 40 13 60 0 vvcurveto
            -2 callsubr
            5 -19 11 -16 16 -13 -54 -33 -54 -46 23 callsubr
            -136 248 rmoveto
            -35 -8 -66 -80 -59 hhcurveto
            -47 -15 51 40 47 29 118 25 46 hvcurveto
            73 40 44 20 28 hhcurveto
            63 11 -85 -10 hvcurveto
            -3 -14 rlineto
            return
          </CharString>
          <CharString index="69">
            15 rmoveto
            4 -6 14 -10 vhcurveto
            0 -4 0 -10 -4 vhcurveto
            hintmask 01011000
            -3 -9 -28 -9 -30 hhcurveto
            -4 -8 0 1 -5 hvcurveto
            45 181 rlineto
            2 7 1 7 0 vvcurveto
            22 -19 7 -11 -32 -5 -20 -58 -15 vhcurveto
            -32 -130 rlineto
            28 -80 -18 6 -42 hhcurveto
            -35 hlineto
            44 40 73 67 69 107 rrcurveto
            120 185 33 161 9 vvcurveto
            23 -20 5 -9 -32 -7 -29 -9 -3 vhcurveto
            -47 -179 -72 -175 -126 -135 -51 -54 -35 -26 -3 -2 rrcurveto
            -13 -7 -29 -14 -17 vvcurveto
            hintmask 10110000
            -7 8 -11 8 6 16 12 8 10 vhcurveto
            15 20 36 0 28 hhcurveto
            23 19 0 -12 37 hvcurveto
            0 3 0 61 -22 vhcurveto
            -36 -142 -5 -18 -7 94 callgsubr
            5 22 45 12 vhcurveto
            27 112 rlineto
            hintmask 01000000
            -1 7 9 0 7 hhcurveto
            28 72 13 18 hvcurveto
            endchar
          </CharString>
          <CharString index="70">
            810 0 33 293 32 292 22 callgsubr
            -64 -255 rlineto
            -94 hlineto
            -8 -10 -7 -9 -2 hvcurveto
            -9 -3 7 -7 8 hhcurveto
            94 hlineto
            -62 -250 -51 callgsubr
            319 hlineto
            198 201 206 226 hvcurveto
            -83 34 rmoveto
            -57 -26 -149 -63 -92 vhcurveto
            -81 -55 -89 -54 -99 hhcurveto
            -122 hlineto
            -9 -10 0 2 -9 hvcurveto
            1 11 0 3 3 13 66 264 rcurveline
            159 hlineto
            24 callgsubr
            9 2 -5 7 -9 hhcurveto
            -159 hlineto
            97 callsubr
            23 callgsubr
            endchar
          </CharString>
          <CharString index="71">
            rmoveto
            -75 callgsubr
            return
          </CharString>
          <CharString index="72">
            164 rmoveto
            12 -14 0 -5 -14 -2 -3 -11 -4 vhcurveto
            -69 -22 -50 -40 -53 hhcurveto
            -32 -41 9 5 -27 hvcurveto
            7 -33 -38 8 -31 hhcurveto
            0 -14 0 -5 -1 vhcurveto
            50 79 78 41 37 18 rrcurveto
            192 100 56 69 104 vvcurveto
            109 -78 64 -93 -151 -92 -190 -71 -31 14 -37 44 81 48 115 42 23 -13 34 -13 -7 -8 -7 -7 -4 3 -6 2 -4 vhcurveto
            2 -2 6 -13 -15 vvcurveto
            -29 -39 -99 -61 -15 -7 12 21 67 82 173 121 vhcurveto
            hintmask 11000010
            46 52 -28 -85 -150 -99 -74 -118 -62 hvcurveto
            -156 -83 -44 -146 -17 vvcurveto
            -13 10 0 9 14 2 2 13 4 vhcurveto
            6 2 16 54 38 hhcurveto
            33 28 -17 -22 36 hvcurveto
            -15 24 34 -21 42 hhcurveto
            hintmask 00000001
            118 55 165 20 hvcurveto
            endchar
          </CharString>
          <CharString index="73">
            383 -31 callgsubr
            return
          </CharString>
          <CharString index="74">
            317 -27 callgsubr
            7 28 21 23 25 19 41 28 rcurveline
            37 -36 callgsubr
            33 callgsubr
            -31 -28 0 16 6 0 2 4 14 hvcurveto
            134 536 rlineto
            34 8 5 9 68 hhcurveto
            21 11 0 19 0 -1 14 -14 -12 -33 -2 -1 -12 hvcurveto
            -64 hlineto
            -91 -25 3 -7 hhcurveto
            -7 -13 0 -19 -14 11 0 19 26 33 0 -15 -4 -2 -10 -1 -4 hvcurveto
            -135 -540 rlineto
            -37 -9 -6 -7 -69 hhcurveto
            63 callgsubr
            3 -10 13 16 25 2 1 16 hvcurveto
            52 hlineto
            -50 -32 -47 -44 -11 -48 -44 callsubr
            return
          </CharString>
          <CharString index="75">
            15 callgsubr
            hintmask 11011000
            -95 callsubr
            hintmask 00100000
            return
          </CharString>
          <CharString index="76">
            329 -204 28 13 81 480 33 245 28 hstem
            -25 86 325 86 vstem
            472 637 rmoveto
            44 -45 23 -45 -105 -24 -126 -38 -7 vhcurveto
            -21 -109 rlineto
            -70 hlineto
            -17 -12 31 callgsubr
            15 hvcurveto
            65 hlineto
            -68 -361 -12 -64 -2 -10 -17 -60 rlinecurve
            -23 -6 -15 -56 -35 hhcurveto
            -22 -15 12 0 hvcurveto
            19 3 callsubr
            -46 48 -21 39 105 41 173 117 22 vhcurveto
            59 312 rlineto
            87 hlineto
            17 13 0 19 14 -14 0 -15 hvcurveto
            -82 hlineto
            15 79 -3 -8 17 78 rrcurveto
            48 10 10 48 37 hhcurveto
            3 21 0 -13 15 hvcurveto
            -16 -6 -18 -17 -24 30 callgsubr
            vhcurveto
            endchar
          </CharString>
          <CharString index="77">
            0 19 14 -12 0 return
          </CharString>
          <CharString index="78">
            111 rmoveto
            9 -9 6 -10 -22 -4 -35 -16 -25 vhcurveto
            -14 -23 -23 -7 -31 hhcurveto
            -86 -61 18 -5 -74 hvcurveto
            67 67 97 21 87 39 rrcurveto
            54 24 69 57 64 vvcurveto
            91 -100 41 -88 -89 -108 -71 -90 -40 30 -22 32 45 42 38 46 3 vhcurveto
            4 vlineto
            20 -11 36 -17 -7 -6 -7 -7 vhcurveto
            -12 13 -14 -17 vvcurveto
            -29 -27 -25 -27 -5 vhcurveto
            -25 -7 13 19 71 86 64 74 52 55 -24 -62 -102 -119 -48 -86 -37 hvcurveto
            -76 -33 -96 -75 -68 vvcurveto
            hintmask 01000000
            -9 8 -6 11 vhcurveto
            29 -4 60 49 hhcurveto
            43 40 -26 -16 39 hvcurveto
            hintmask 10000000
            -10 25 25 -6 26 hhcurveto
            67 65 47 64 22 hvcurveto
            2 6 4 7 6 vvcurveto
            endchar
          </CharString>
          <CharString index="79">
            -20 hstemhm
            hintmask 11100000
            -106 callsubr
            return
          </CharString>
          <CharString index="80">
            2 -1 3 -1 1 vhcurveto
            -44 64 -27 77 -7 83 rrcurveto
            6 -5 5 -7 vhcurveto
            -4 hlineto
            -6 -5 -5 -6 -1 hvcurveto
            -1 -81 12 -77 25 -70 -60 -70 -51 -77 -38 -80 rrcurveto
            -1 -1 0 -2 -2 vvcurveto
            -7 5 -5 7 vhcurveto
            4 hlineto
            4 4 2 4 2 hvcurveto
            49 84 66 78 77 64 rrcurveto
            2 3 2 3 4 vvcurveto
            return
          </CharString>
          <CharString index="81">
            2 1 1 2 vvcurveto
            7 -6 5 -6 vhcurveto
            -4 hlineto
            -5 -3 -2 -4 -3 hvcurveto
            -49 -84 -65 -77 -77 -65 rrcurveto
            -3 -2 -2 -4 -3 vvcurveto
            -3 1 -2 2 -2 vhcurveto
            44 -64 26 -77 7 -83 rrcurveto
            -6 1 5 -5 6 hhcurveto
            4 hlineto
            7 5 5 7 hvcurveto
            2 80 -13 77 -25 70 61 70 50 77 39 80 rrcurveto
            return
          </CharString>
          <CharString index="82">
            -35 callgsubr
            -20 return
          </CharString>
          <CharString index="83">
            -8 6 -6 9 return
          </CharString>
          <CharString index="84">
            1 4 2 7 4 vvcurveto
            return
          </CharString>
          <CharString index="85">
            28 210 28 157 28 return
          </CharString>
          <CharString index="86">
            9 callgsubr
            164 -107 104 -143 -218 -214 -234 -227 -136 82 -109 133 -17 vhcurveto
            -38 -29 -31 -35 -8 -38 -44 callsubr
            -57 callsubr
            6 69 callsubr
            5 4 rcurveline
            3 hlineto
            211 219 220 237 hvcurveto
            -86 35 rmoveto
            -191 -141 -268 -195 -89 -79 67 142 54 15 129 71 111 vhcurveto
            100 63 98 58 85 hhcurveto
            93 79 -67 -135 hvcurveto
            return
          </CharString>
          <CharString index="87">
            -205 -18 callsubr
            return
          </CharString>
          <CharString index="88">
            727 0 33 304 33 277 33 return
          </CharString>
          <CharString index="89">
            465 rmoveto
            -94 callgsubr
            185 hmoveto
            -94 callgsubr
            return
          </CharString>
          <CharString index="90">
            67 -30 64 -63 -97 -102 -134 -132 -87 47 -50 57 96 92 147 125 vhcurveto
            return
          </CharString>
          <CharString index="91">
            19 rmoveto
            14 -12 0 -16 vhcurveto
            -10 hlineto
            -46 2 rlineto
            -25 3 -4 2 13 vvcurveto
            7 2 8 2 7 vhcurveto
            141 563 rlineto
            2 6 1 4 3 vvcurveto
            3 -2 11 -14 -8 -2 -3 -12 -8 vhcurveto
            -52 -69 -58 -38 -71 -7 rrcurveto
            -7 -1 -11 -1 -17 vvcurveto
            -12 11 -2 7 34 40 14 28 43 vhcurveto
            -116 -464 rlineto
            -38 -9 -6 -10 -85 hhcurveto
            -10 hlineto
            -17 -13 0 -19 0 1 -14 16 hvcurveto
            67 3 rlineto
            142 hlineto
            -1 23 26 -2 23 17 callsubr
            hvcurveto
            endchar
          </CharString>
          <CharString index="92">
            hlineto
            -17 -12 -82 callsubr
            -134 -537 rlineto
            return
          </CharString>
          <CharString index="93">
            653 22 rmoveto
            16 13 -9 11 -5 8 -149 197 rcurveline
            243 194 12 9 19 16 -17 12 rlinecurve
            -17 12 -20 -15 -11 -10 -233 -186 rcurveline
            -140 187 -7 10 -1 1 -3 2 rlinecurve
            -9 7 -17 -2 -11 -9 -16 -13 9 -12 5 -7 149 -197 rcurveline
            -244 -195 -12 -9 -19 -16 17 -12 rlinecurve
            17 -12 20 15 11 10 234 186 rcurveline
            140 -186 7 -11 0 0 3 -2 rlinecurve
            10 -7 17 2 11 9 rrcurveto
            return
          </CharString>
          <CharString index="94">
            494 -10 28 157 28 210 28 hstem
            161 44 254 74 vstem
            533 261 rmoveto
            92 -52 88 -106 -144 -81 -96 -14 -8 13 -13 7 6 1 2 10 9 vhcurveto
            66 54 79 25 55 hhcurveto
            69 16 -69 -45 -23 -7 -43 -7 -30 hvcurveto
            -57 hlineto
            -40 -187 0 -126 -50 44 -37 68 108 152 94 177 hvcurveto
            -96 -86 rmoveto
            -124 -33 -87 -33 -44 hhcurveto
            -35 -33 19 40 98 154 0 37 hvcurveto
            endchar
          </CharString>
          <CharString index="95">
            -91 callsubr
            -145 -579 rlineto
            -1 -4 -2 -7 -4 vvcurveto
            -14 10 -15 21 return
          </CharString>
          <CharString index="96">
            456 rmoveto
            -55 callgsubr
            return
          </CharString>
          <CharString index="97">
            hhcurveto
            6 15 0 19 14 -14 0 -15 hvcurveto
            -7 hlineto
            -13 -17 1 1 -13 hvcurveto
            -23 3 -5 0 14 vvcurveto
            return
          </CharString>
          <CharString index="98">
            -64 callsubr
            -3 -9 -1 -6 hvcurveto
            return
          </CharString>
          <CharString index="99">
            349 540 rmoveto
            -94 callgsubr
            219 hmoveto
            -94 callgsubr
            return
          </CharString>
          <CharString index="100">
            -5 callsubr
            endchar
          </CharString>
          <CharString index="101">
            rmoveto
            -17 callsubr
            return
          </CharString>
          <CharString index="102">
            124 rmoveto
            -94 callgsubr
            219 hmoveto
            -94 callgsubr
            return
          </CharString>
          <CharString index="103">
            hlineto
            -17 -12 -65 callgsubr
            return
          </CharString>
          <CharString index="104">
            rmoveto
            -9 17 rlineto
            -41 -60 -60 -30 -51 hhcurveto
            -40 -25 17 20 -30 hvcurveto
            17 -25 -26 17 -40 hhcurveto
            -25 -28 -8 -10 -25 hvcurveto
            -22 -10 -23 -11 -21 -14 -65 -44 rcurveline
            10 -17 rlineto
            41 59 61 30 51 hhcurveto
            40 25 -17 -20 30 hvcurveto
            -17 24 27 -17 40 hhcurveto
            25 28 8 10 25 hvcurveto
            22 10 23 11 20 14 rrcurveto
            endchar
          </CharString>
          <CharString index="105">
            -96 callgsubr
            70 282 rlineto
            -53 callsubr
            -14 -22 -9 -28 -5 vhcurveto
            35 -21 -29 21 -42 hhcurveto
            -118 -121 -148 -143 -96 57 -64 75 59 49 44 24 21 hvcurveto
            return
          </CharString>
          <CharString index="106">
            rlineto
            -1 -3 -9 -37 -36 vvcurveto
            -93 52 -64 75 116 123 142 149 vhcurveto
            -122 -162 rmoveto
            -66 -32 -47 -35 -37 hhcurveto
            -47 -19 50 48 39 11 43 26 98 hvcurveto
            7 31 21 24 23 22 rrcurveto
            10 12 33 30 37 hhcurveto
            30 31 -24 -68 -53 -29 -107 -20 -42 hvcurveto
            endchar
          </CharString>
          <CharString index="107">
            521 -204 28 38 82 62 callsubr
            return
          </CharString>
          <CharString index="108">
            -3 -4 callgsubr
            return
          </CharString>
          <CharString index="109">
            329 410 -21 194 111 hstem
            266 119 vstem
            385 16 callsubr
            endchar
          </CharString>
          <CharString index="110">
            8 15 18 22 102 callsubr
            -24 -31 return
          </CharString>
          <CharString index="111">
            119 74 254 44 return
          </CharString>
          <CharString index="112">
            494 -204 28 176 28 385 28 return
          </CharString>
          <CharString index="113">
            hstemhm
            4 callsubr
            return
          </CharString>
          <CharString index="114">
            797 4 callgsubr
            return
          </CharString>
          <CharString index="115">
            -117 -83 -132 -66 -49 0 74 5 69 51 199 90 46 11 -64 -34 vhcurveto
            return
          </CharString>
          <CharString index="116">
            16 -14 15 -18 -3 -3 0 -1 -2 vhcurveto
            -20 -3 -10 -21 -10 -16 -20 -31 -21 -29 -19 -31 rrcurveto
            -8 -12 -17 -17 -14 vvcurveto
            -10 11 -9 10 vhcurveto
            1 hlineto
            13 2 15 22 10 11 68 74 rcurveline
            13 15 24 18 21 vvcurveto
            return
          </CharString>
          <CharString index="117">
            6 callgsubr
            -61 46 -31 46 36 24 22 31 17 vhcurveto
            21 40 13 60 0 vvcurveto
            return
          </CharString>
          <CharString index="118">
            hhcurveto
            20 36 -2 -12 23 59 callsubr
            20 17 13 9 5 vhcurveto
            1 hlineto
            endchar
          </CharString>
          <CharString index="119">
            0 0 7 4 15 return
          </CharString>
          <CharString index="120">
            -1 7 -3 19 -13 85 rlineto
            24 -5 3 39 -33 hhcurveto
            -3 -2 0 -1 -3 hvcurveto
            -18 -3 -17 -16 -19 vvcurveto
            -3 vlineto
            6 -39 33 -60 15 -37 rrcurveto
            -8 4 4 -8 10 hhcurveto
            2 hlineto
            10 3 11 5 12 vvcurveto
            return
          </CharString>
          <CharString index="121">
            0 -4 callgsubr
            return
          </CharString>
          <CharString index="122">
            797 25 callsubr
            return
          </CharString>
          <CharString index="123">
            628 -36 callsubr
            return
          </CharString>
          <CharString index="124">
            hhcurveto
            7 14 0 19 return
          </CharString>
          <CharString index="125">
            hlineto
            -9 -9 -7 -9 -2 hvcurveto
            -9 -2 5 -7 9 hhcurveto
            return
          </CharString>
          <CharString index="126">
            329 -56 callgsubr
            return
          </CharString>
          <CharString index="127">
            413 4 callgsubr
            return
          </CharString>
          <CharString index="128">
            81 -21 195 -20 hstemhm
            return
          </CharString>
          <CharString index="129">
            -3 5 hhcurveto
            6 -30 callgsubr
            -17 -31 -24 0 16 8 2 8 2 7 hvcurveto
            return
          </CharString>
          <CharString index="130">
            -11 -52 -44 callsubr
            return
          </CharString>
          <CharString index="131">
            115 75 275 75 return
          </CharString>
          <CharString index="132">
            -21 53 callgsubr
            return
          </CharString>
          <CharString index="133">
            -18 2 -14 4 -22 7 rrcurveto
            6 -20 -25 6 -18 hhcurveto
            -41 -9 -37 0 hvcurveto
            -8 -2 -4 -30 37 hhcurveto
            15 25 4 8 26 hvcurveto
            28 7 19 4 17 2 return
          </CharString>
          <CharString index="134">
            rlineto
            -3 -13 -1 -2 -3 vvcurveto
            return
          </CharString>
          <CharString index="135">
            822 432 rmoveto
            146 -90 105 -139 vhcurveto
            -325 hlineto
            -17 -12 -82 callsubr
            return
          </CharString>
          <CharString index="136">
            -56 callgsubr
            hstem
            115 75 return
          </CharString>
          <CharString index="137">
            -24 callsubr
            hvcurveto
            return
          </CharString>
          <CharString index="138">
            797 0 33 return
          </CharString>
          <CharString index="139">
            -119 hlineto
            -58 3 rlineto
            -6 return
          </CharString>
          <CharString index="140">
            444 -21 281 -20 hstem
            367 669 rmoveto
            20 6 -12 15 -20 hhcurveto
            -20 -21 -15 -20 -3 hvcurveto
            -46 -246 rlineto
            38 hlineto
            return
          </CharString>
          <CharString index="141">
            hstemhm
            555 80 33 92 return
          </CharString>
          <CharString index="142">
            vvcurveto
            31 -16 41 -50 -75 -45 -71 -25 -12 12 0 6 13 3 1 11 4 vhcurveto
            51 18 40 17 22 hhcurveto
            6 21 0 -31 return
          </CharString>
          <CharString index="143">
            -21 hvcurveto
            19 8 13 18 20 102 callsubr
            -24 -31 return
          </CharString>
          <CharString index="144">
            rmoveto
            14 -14 0 -15 vhcurveto
            -142 49 callgsubr
            -22 -42 callgsubr
            142 hlineto
            18 13 0 22 hvcurveto
            endchar
          </CharString>
          <CharString index="145">
            14 callsubr
            14 1 return
          </CharString>
          <CharString index="146">
            329 -204 28 589 28 return
          </CharString>
          <CharString index="147">
            hlineto
            -139 -272 rlineto
            -7 -14 -1 -1 -5 vvcurveto
            -12 10 -11 13 14 4 8 12 6 vhcurveto
            152 295 rlineto
            return
          </CharString>
          <CharString index="148">
            rlineto
            -37 -9 -7 -6 -66 hhcurveto
            -15 -12 -9 callgsubr
            return
          </CharString>
          <CharString index="149">
            439 -10 69 30 69 214 69 return
          </CharString>
          <CharString index="150">
            -211 47 154 -50 callgsubr
            return
          </CharString>
          <CharString index="151">
            hlineto
            -3 -3 0 -1 -3 hvcurveto
            return
          </CharString>
          <CharString index="152">
            60 callsubr
            hstemhm
            hintmask 00110000
            return
          </CharString>
          <CharString index="153">
            216 -6 callsubr
            return
          </CharString>
          <CharString index="154">
            31 callsubr
            306 33 278 33 return
          </CharString>
          <CharString index="155">
            52 callsubr
            -14 return
          </CharString>
          <CharString index="156">
            -50 callgsubr
            209 45 hstemhm
            80 callsubr
            return
          </CharString>
          <CharString index="157">
            453 11 -21 423 28 return
          </CharString>
          <CharString index="158">
            658 0 36 614 33 return
          </CharString>
          <CharString index="159">
            hlineto
            -15 -13 0 -14 return
          </CharString>
          <CharString index="160">
            622 253 rmoveto
            82 -63 41 -63 -85 -99 -77 -104 -82 61 -41 65 88 96 79 102 vhcurveto
            return
          </CharString>
          <CharString index="161">
            84 callsubr
            5 21 0 2 11 42 rlinecurve
            16 65 return
          </CharString>
          <CharString index="162">
            133 33 61 28 197 28 hstem
            return
          </CharString>
          <CharString index="163">
            205 66 234 66 return
          </CharString>
          <CharString index="164">
            -30 -53 rlineto
            -129 hlineto
            -4 53 rlineto
            115 -85 rmoveto
            -98 -173 -11 173 rlineto
            return
          </CharString>
          <CharString index="165">
            rmoveto
            8 2 3 30 -37 hhcurveto
            -15 -25 -4 -8 -26 hvcurveto
            -28 -7 -19 -4 -16 -2 return
          </CharString>
          <CharString index="166">
            hvcurveto
            -5 -2 -26 -15 -29 vvcurveto
            -29 24 -5 11 return
          </CharString>
          <CharString index="167">
            -2 callgsubr
            63 21 callgsubr
            return
          </CharString>
          <CharString index="168">
            rlineto
            -23 callsubr
            return
          </CharString>
          <CharString index="169">
            46 -50 callgsubr
            return
          </CharString>
          <CharString index="170">
            0 -6 0 vvcurveto
            return
          </CharString>
          <CharString index="171">
            30 210 28 392 26 hstem
            return
          </CharString>
          <CharString index="172">
            7 callsubr
            hstem
            return
          </CharString>
          <CharString index="173">
            113 callsubr
            hintmask 00100000
            return
          </CharString>
          <CharString index="174">
            947 0 33 279 33 305 33 return
          </CharString>
          <CharString index="175">
            -21 195 -20 hstem
            return
          </CharString>
          <CharString index="176">
            28 21 23 26 19 return
          </CharString>
          <CharString index="177">
            hlineto
            -5 -6 -4 -5 -3 hvcurveto
            -4 -8 rlineto
            -8 -4 4 -7 8 hhcurveto
            return
          </CharString>
          <CharString index="178">
            -204 28 166 95 callsubr
            245 28 hstem
            -25 86 return
          </CharString>
          <CharString index="179">
            28 -7 33 295 28 294 33 34 callsubr
            return
          </CharString>
          <CharString index="180">
            -44 callsubr
            endchar
          </CharString>
          <CharString index="181">
            563 -21 28 57 98 488 33 return
          </CharString>
          <CharString index="182">
            -2 callgsubr
            42 return
          </CharString>
          <CharString index="183">
            274 -10 28 632 45 return
          </CharString>
          <CharString index="184">
            281 rmoveto
            108 -66 52 return
          </CharString>
          <CharString index="185">
            82 106 callgsubr
            return
          </CharString>
          <CharString index="186">
            119 74 119 vstem
            return
          </CharString>
          <CharString index="187">
            354 64 10 66 return
          </CharString>
          <CharString index="188">
            -21 163 -20 return
          </CharString>
          <CharString index="189">
            -6 hvcurveto
            -23 -6 14 -19 24 hhcurveto
            23 23 19 23 6 hvcurveto
            return
          </CharString>
          <CharString index="190">
            -56 callgsubr
            21 callsubr
            115 75 return
          </CharString>
          <CharString index="191">
            94 callgsubr
            6 24 38 9 vhcurveto
            22 86 return
          </CharString>
          <CharString index="192">
            hlineto
            -8 -10 -8 -8 -2 hvcurveto
            -9 -2 6 -7 8 hhcurveto
            return
          </CharString>
          <CharString index="193">
            rlineto
            -9 -2 6 -7 8 hhcurveto
            24 callgsubr
            return
          </CharString>
          <CharString index="194">
            -20 hstemhm
            154 92 503 86 return
          </CharString>
          <CharString index="195">
            -21 133 42 hstem
            return
          </CharString>
          <CharString index="196">
            2 vhcurveto
            20 175 return
          </CharString>
          <CharString index="197">
            0 -4 0 vvcurveto
            return
          </CharString>
          <CharString index="198">
            0 33 -30 30 362 33 43 -20 hstemhm
            hintmask 01110000
            return
          </CharString>
          <CharString index="199">
            4 callgsubr
            hstemhm
            return
          </CharString>
          <CharString index="200">
            21 -21 483 -20 hstem
            return
          </CharString>
          <CharString index="201">
            rmoveto
            -45 callgsubr
            -16 return
          </CharString>
          <CharString index="202">
            28 380 33 return
          </CharString>
          <CharString index="203">
            0 4 0 vvcurveto
            return
          </CharString>
          <CharString index="204">
            64 257 rlineto
            return
          </CharString>
          <CharString index="205">
            rlineto
            -8 6 -6 8 6 6 4 6 1 vhcurveto
            return
          </CharString>
          <CharString index="206">
            -50 callgsubr
            209 45 hstemhm
            113 73 return
          </CharString>
          <CharString index="207">
            rmoveto
            -117 -83 -132 -66 -49 0 74 5 return
          </CharString>
          <CharString index="208">
            797 -211 47 164 33 198 33 return
          </CharString>
          <CharString index="209">
            37 callgsubr
            -29 -22 return
          </CharString>
          <CharString index="210">
            -45 callgsubr
            -16 -1 -4 return
          </CharString>
          <CharString index="211">
            -229 -21 1000 -20 hstem
            return
          </CharString>
          <CharString index="212">
            96 callgsubr
            hstem
            return
          </CharString>
          <CharString index="213">
            8 3 vvcurveto
            12 return
          </CharString>
          <CharString index="214">
            -21 205 -20 return
          </CharString>
          <CharString index="215">
            24 hlineto
            23 37 -7 -44 2 hvcurveto
            -56 3 return
          </CharString>
          <CharString index="216">
            -3 -58 38 -67 hhcurveto
            -109 -61 -114 return
          </CharString>
          <CharString index="217">
            -194 33 151 -50 callgsubr
            hstem
            return
          </CharString>
          <CharString index="218">
            -172 -21 178 33 434 -20 hstem
            return
          </CharString>
          <CharString index="219">
            hlineto
            -14 -21 0 -23 -23 26 0 14 hvcurveto
            return
          </CharString>
          <CharString index="220">
            -20 21 -20 hstemhm
            return
          </CharString>
        <CharString name=".notdef">
          280 endchar
        </CharString>
        <CharString name="A">
          -25 callsubr
          hstem
          -106 callsubr
          endchar
        </CharString>
        <CharString name="AE">
          67 callsubr
          hstem
          -79 callgsubr
          endchar
        </CharString>
        <CharString name="AE.dup">
          67 callsubr
          hstem
          -79 callgsubr
          endchar
        </CharString>
        <CharString name="AEacute">
          67 callsubr
          82 90 callgsubr
          hintmask 11100000
          -79 callgsubr
          hintmask 00011000
          249 264 rmoveto
          -104 callsubr
        </CharString>
        <CharString name="Aacute">
          92 callgsubr
          163 -28 callsubr
          hintmask 00011000
          238 276 rmoveto
          -104 callsubr
        </CharString>
        <CharString name="Abreve">
          -25 callsubr
          50 42 133 -28 callsubr
          hintmask 00011000
          11 callgsubr
          endchar
        </CharString>
        <CharString name="Abreveacute">
          -25 callsubr
          50 42 316 -28 callsubr
          hintmask 00011000
          11 callgsubr
          160 vmoveto
          -104 callsubr
        </CharString>
        <CharString name="Abrevedotbelow">
          -25 callsubr
          50 96 callgsubr
          hstemhm
          -106 callsubr
          11 callgsubr
          -355 -1040 -94 callsubr
        </CharString>
        <CharString name="Abrevegrave">
          -25 callsubr
          50 42 133 -28 callsubr
          hintmask 00011000
          249 311 -41 callgsubr
        </CharString>
        <CharString name="Abrevehookabove">
          -25 callsubr
          50 42 338 -28 callsubr
          hintmask 00011000
          11 callgsubr
          -16 150 -107 callgsubr
        </CharString>
        <CharString name="Abrevetilde">
          -25 callsubr
          50 42 173 41 26 41 hstemhm
          hintmask 11100000
          -106 callsubr
          hintmask 00011100
          11 callgsubr
          51 148 -106 callgsubr
        </CharString>
        <CharString name="Acaron">
          -25 callsubr
          hstemhm
          -106 callsubr
          218 240 -76 callsubr
        </CharString>
        <CharString name="Acircumflex">
          -25 callsubr
          hstemhm
          -106 callsubr
          197 159 -67 callgsubr
        </CharString>
        <CharString name="Acircumflexacute">
          -25 callsubr
          342 -20 -28 callgsubr
          197 159 -102 callgsubr
          36 246 rmoveto
          -104 callsubr
        </CharString>
        <CharString name="Acircumflexdotbelow">
          -25 callsubr
          hstemhm
          -106 callsubr
          197 159 -102 callgsubr
          -303 -888 -94 callsubr
        </CharString>
        <CharString name="Acircumflexgrave">
          -25 callsubr
          hstemhm
          -106 callsubr
          197 159 -79 callsubr
        </CharString>
        <CharString name="Acircumflexhookabove">
          -25 callsubr
          364 -20 -28 callgsubr
          197 159 -102 callgsubr
          115 236 -107 callgsubr
        </CharString>
        <CharString name="Acircumflextilde">
          -25 callsubr
          199 41 26 41 hstemhm
          hintmask 11100000
          -106 callsubr
          hintmask 00011000
          197 159 -102 callgsubr
          86 234 -106 callgsubr
        </CharString>
        <CharString name="Adblgrave">
          92 callgsubr
          193 -28 callsubr
          hintmask 00011000
          165 168 -77 callsubr
        </CharString>
        <CharString name="Adieresis">
          -25 callsubr
          40 100 -28 callgsubr
          11 199 -65 callsubr
        </CharString>
        <CharString name="Adotbelow">
          -25 callsubr
          hstemhm
          -106 callsubr
          -106 -729 -94 callsubr
        </CharString>
        <CharString name="Agrave">
          92 callgsubr
          163 -28 callsubr
          hintmask 00011000
          138 174 -80 callsubr
        </CharString>
        <CharString name="Ahookabove">
          -25 callsubr
          82 -21 205 -28 callsubr
          hintmask 00011000
          192 297 -107 callgsubr
        </CharString>
        <CharString name="Alpha">
          -25 callsubr
          hstem
          -106 callsubr
          endchar
        </CharString>
        <CharString name="Amacron">
          -25 callsubr
          60 36 -28 callgsubr
          245 182 -84 callsubr
        </CharString>
        <CharString name="Aogonek">
          101 callsubr
          hstem
          64 208 216 251 vstem
          -40 callgsubr
          endchar
        </CharString>
        <CharString name="Aogonekacute">
          101 callsubr
          501 90 callgsubr
          64 208 216 251 hintmask 11100110
          -40 callgsubr
          hintmask 00011000
          238 276 rmoveto
          -104 callsubr
        </CharString>
        <CharString name="Aring">
          -35 callgsubr
          35 106 35 hstemhm
          496 84 callgsubr
          hintmask 11100100
          -106 callsubr
          hintmask 00111100
          134 229 -15 callgsubr
          endchar
        </CharString>
        <CharString name="Aringacute">
          -35 callgsubr
          93 callgsubr
          hstemhm
          496 84 callgsubr
          hintmask 11100010
          -106 callsubr
          hintmask 00111110
          134 229 -15 callgsubr
          66 215 rmoveto
          -104 callsubr
        </CharString>
        <CharString name="Atilde">
          -25 callsubr
          40 41 26 41 hstemhm
          hintmask 11100000
          -106 callsubr
          hintmask 00011000
          245 234 -106 callgsubr
        </CharString>
        <CharString name="B">
          -34 callgsubr
        </CharString>
        <CharString name="Beta">
          -34 callgsubr
        </CharString>
        <CharString name="C">
          51 callgsubr
          hstem
          156 88 vstem
          -74 callsubr
          endchar
        </CharString>
        <CharString name="Cacute">
          51 callgsubr
          61 90 callgsubr
          156 88 hintmask 11001000
          -74 callsubr
          hintmask 00110000
          -7 433 rmoveto
          -104 callsubr
        </CharString>
        <CharString name="Ccaron">
          51 callgsubr
          113 callgsubr
          vstemhm
          -74 callsubr
          -27 397 -76 callsubr
        </CharString>
        <CharString name="Ccedilla">
          51 callgsubr
          hstem
          156 88 vstem
          794 437 rmoveto
          60 241 rlineto
          1 3 2 8 3 vvcurveto
          5 -4 7 -10 -4 -5 0 -11 -9 vhcurveto
          -65 -76 rlineto
          65 -43 -59 22 -63 hhcurveto
          -217 -222 -220 -232 -139 80 -95 110 -30 hvcurveto
          -4 -18 -6 -23 -4 -49 callsubr
          39 -41 15 -25 4 hvcurveto
          6 26 rlineto
          7 hlineto
          115 109 73 93 59 hvcurveto
          30 48 10 42 5 vvcurveto
          13 -10 0 -9 -7 -9 0 -10 -2 vhcurveto
          -169 -52 -136 -62 -87 hhcurveto
          -93 -95 60 146 62 24 148 84 108 -22 callgsubr
          endchar
        </CharString>
        <CharString name="Ccircumflex">
          51 callgsubr
          113 callgsubr
          vstemhm
          -74 callsubr
          -48 316 -67 callgsubr
        </CharString>
        <CharString name="Cdotaccent">
          51 callgsubr
          51 111 113 callgsubr
          hintmask 11010000
          -74 callsubr
          hintmask 00100000
          -113 383 -94 callsubr
        </CharString>
        <CharString name="Chi">
          -51 callsubr
        </CharString>
        <CharString name="D">
          810 0 33 617 33 hstem
          739 83 vstem
          -61 callgsubr
          endchar
        </CharString>
        <CharString name="Dcaron">
          810 92 callsubr
          739 83 vstemhm
          -61 callgsubr
          -53 368 -76 callsubr
        </CharString>
        <CharString name="Dcroat">
          -37 callsubr
        </CharString>
        <CharString name="Ddotbelow">
          810 92 callsubr
          739 83 vstemhm
          -61 callgsubr
          -378 -601 -94 callsubr
        </CharString>
        <CharString name="Delta">
          878 0 71 643 -20 hstem
          804 12 rmoveto
          0 0 4 -2 9 vhcurveto
          -158 664 rlineto
          20 -5 -4 5 -19 hhcurveto
          -12 -10 -1 -17 -12 hvcurveto
          -497 -674 rlineto
          -8 -10 90 callsubr
          -8 6 0 16 vhcurveto
          679 hlineto
          14 12 0 12 hvcurveto
          -104 59 rmoveto
          -537 hlineto
          406 550 rlineto
          endchar
        </CharString>
        <CharString name="Dlinebelow">
          810 -162 36 126 21 callgsubr
          hstemhm
          739 83 hintmask 01110000
          -61 callgsubr
          hintmask 10000000
          -255 -606 -84 callsubr
        </CharString>
        <CharString name="E">
          -19 callsubr
          hstem
          -107 callsubr
          502 -66 callsubr
          endchar
        </CharString>
        <CharString name="Eacute">
          -19 callsubr
          85 -21 163 -46 callgsubr
          hintmask 00011000
          -3 624 rmoveto
          -104 callsubr
        </CharString>
        <CharString name="Ebreve">
          -19 callsubr
          64 42 133 -46 callgsubr
          hintmask 00011000
          8 659 -103 callsubr
          endchar
        </CharString>
        <CharString name="Ecaron">
          -19 callsubr
          hstemhm
          -107 callsubr
          502 -66 callsubr
          -23 588 -76 callsubr
        </CharString>
        <CharString name="Ecircumflex">
          -52 callsubr
          endchar
        </CharString>
        <CharString name="Ecircumflexacute">
          -19 callsubr
          356 -20 -71 callsubr
          26 callgsubr
          36 246 rmoveto
          -104 callsubr
        </CharString>
        <CharString name="Ecircumflexdotbelow">
          -52 callsubr
          -304 -888 -94 callsubr
        </CharString>
        <CharString name="Ecircumflexgrave">
          -52 callsubr
          10 144 rmoveto
          -2 -6 -13 -16 -12 -2 rrcurveto
          -4 -3 1 4 -5 hvcurveto
          -143 91 -17 10 2 11 2 9 rlinecurve
          21 7 21 16 20 hhcurveto
          13 8 -9 0 hvcurveto
          120 -114 2 -2 7 -7 -3 -7 rlinecurve
          endchar
        </CharString>
        <CharString name="Ecircumflexhookabove">
          -19 callsubr
          378 -20 -71 callsubr
          26 callgsubr
          115 236 -107 callgsubr
        </CharString>
        <CharString name="Ecircumflextilde">
          -19 callsubr
          213 41 26 41 hstemhm
          hintmask 11100000
          -107 callsubr
          502 -66 callsubr
          hintmask 00011000
          26 callgsubr
          86 234 -106 callgsubr
        </CharString>
        <CharString name="Edblgrave">
          -19 callsubr
          85 -21 193 -46 callgsubr
          hintmask 00011000
          -49 516 -77 callsubr
        </CharString>
        <CharString name="Edieresis">
          -19 callsubr
          54 100 -71 callsubr
          -230 547 -65 callsubr
        </CharString>
        <CharString name="Edotaccent">
          -19 callsubr
          75 111 -71 callsubr
          -109 574 -94 callsubr
        </CharString>
        <CharString name="Edotbelow">
          -19 callsubr
          hstemhm
          -107 callsubr
          502 -66 callsubr
          -348 -381 -94 callsubr
        </CharString>
        <CharString name="Egrave">
          -19 callsubr
          85 -21 163 -46 callgsubr
          hintmask 00011000
          -103 522 -80 callsubr
        </CharString>
        <CharString name="Ehookabove">
          -19 callsubr
          96 -21 205 -46 callgsubr
          hintmask 00011000
          -49 645 -107 callgsubr
        </CharString>
        <CharString name="Emacron">
          -19 callsubr
          74 36 -71 callsubr
          4 530 -84 callsubr
        </CharString>
        <CharString name="Eng">
          797 847 342 rmoveto
          193 48 -95 169 -186 hhcurveto
          -76 -77 -34 -54 -60 hvcurveto
          17 67 rlineto
          -2 -14 -14 -1 -14 -91 -25 3 -7 hhcurveto
          -7 -13 0 -19 -14 11 0 19 26 33 0 -15 -4 -2 -10 -1 -4 hvcurveto
          -135 -540 rlineto
          -37 -9 -6 -7 -69 hhcurveto
          63 callgsubr
          3 -10 13 16 25 2 1 16 hvcurveto
          128 -36 callgsubr
          33 callgsubr
          -31 -28 0 16 6 0 2 4 14 hvcurveto
          120 480 rlineto
          69 53 84 46 83 hhcurveto
          147 42 -160 -164 -41 hvcurveto
          -33 -134 -42 -150 -99 -34 rrcurveto
          22 4 -14 17 -22 hhcurveto
          -23 -24 -19 -23 -6 hvcurveto
          -23 -6 15 -19 23 hhcurveto
          158 118 183 180 45 hvcurveto
          endchar
        </CharString>
        <CharString name="Eogonek">
          727 -211 47 164 33 304 33 277 33 hstem
          -107 callsubr
          382 hlineto
          -54 -27 -43 -42 23 callsubr
          -57 callsubr
          9 40 46 31 40 24 rrcurveto
          80 -66 callsubr
          endchar
        </CharString>
        <CharString name="Eogonekacute">
          727 -211 47 164 33 304 33 277 33 85 90 callgsubr
          hintmask 11110000
          -107 callsubr
          382 hlineto
          -54 -27 -43 -42 23 callsubr
          -57 callsubr
          9 40 46 31 40 24 rrcurveto
          80 -66 callsubr
          hintmask 00001100
          -3 624 rmoveto
          -104 callsubr
        </CharString>
        <CharString name="Epsilon">
          -19 callsubr
          hstem
          -107 callsubr
          502 -66 callsubr
          endchar
        </CharString>
        <CharString name="Ereversed">
          -19 callsubr
          hstem
          673 14 rmoveto
          19 10 -11 0 -22 hhcurveto
          -61 -2 9 34 8 hvcurveto
          134 533 1 7 2 8 4 7 rlinecurve
          16 8 24 0 31 hhcurveto
          19 10 0 15 7 hvcurveto
          18 9 -12 0 -17 hhcurveto
          -488 52 callsubr
          -7 hvcurveto
          -6 -14 -67 -175 rlineto
          -17 -7 -2 -7 17 hhcurveto
          7 12 0 16 8 hvcurveto
          6 15 7 19 7 19 10 20 rlinecurve
          78 39 43 27 112 hhcurveto
          140 hlineto
          31 7 0 -36 -9 hvcurveto
          -61 -241 rlineto
          -90 hlineto
          -79 -16 16 76 18 hvcurveto
          21 6 1 4 -16 hhcurveto
          -6 -13 0 -15 -8 hvcurveto
          -1 -3 0 -2 -4 -13 -53 -213 rcurveline
          -16 -4 -1 -5 15 hhcurveto
          5 14 0 14 7 hvcurveto
          2 3 1 5 1 6 1 4 7 25 9 18 rrcurveto
          26 13 15 16 71 hhcurveto
          97 hlineto
          -69 -275 -3 -13 -2 -3 -4 -11 rlinecurve
          -2 -10 -10 0 -9 hhcurveto
          -142 hlineto
          -162 -6 65 139 10 hvcurveto
          21 1 2 -14 -5 -14 0 -14 -7 vhcurveto
          -2 -5 -1 -8 -4 vvcurveto
          -15 -211 rlineto
          -17 0 -1 22 vhcurveto
          502 hlineto
          16 12 0 14 7 hvcurveto
          endchar
        </CharString>
        <CharString name="Eta">
          47 callsubr
          hstem
          -100 callsubr
          endchar
        </CharString>
        <CharString name="Eth">
          -37 callsubr
        </CharString>
        <CharString name="Etilde">
          -19 callsubr
          54 41 26 41 hstemhm
          hintmask 11100000
          -107 callsubr
          502 -66 callsubr
          hintmask 00011000
          4 582 -106 callgsubr
        </CharString>
        <CharString name="Euro">
          618 -21 32 257 32 84 32 256 32 hstem
          700 542 rmoveto
          110 callgsubr
          -4 hlineto
          -4 -4 -1 -3 -2 hvcurveto
          -44 -40 rlineto
          28 -24 -35 16 -44 hhcurveto
          -80 -82 -44 -63 -65 hvcurveto
          -54 -53 -40 -63 -26 -65 rrcurveto
          -48 70 callsubr
          46 hlineto
          -5 -14 -4 -14 -4 -14 -3 -14 -3 -14 -2 -14 rrcurveto
          -44 70 callsubr
          50 hlineto
          -6 -66 8 -63 28 -53 rrcurveto
          -63 33 60 -44 80 hhcurveto
          43 45 17 27 37 hvcurveto
          23 -40 rlineto
          -2 2 3 -2 4 hhcurveto
          4 hlineto
          6 7 5 7 2 hvcurveto
          110 callgsubr
          -14 hlineto
          -6 -6 -4 -6 -2 hvcurveto
          -71 -26 -66 -61 -69 hhcurveto
          -61 -41 41 53 -19 hvcurveto
          -17 49 1 56 10 58 rrcurveto
          252 hlineto
          5 6 3 5 3 hvcurveto
          5 12 rlineto
          6 3 -4 6 -8 hhcurveto
          -256 hlineto
          9 42 12 42 rlineto
          287 hlineto
          5 6 3 5 2 hvcurveto
          6 12 rlineto
          6 3 -5 6 -7 hhcurveto
          -287 hlineto
          19 57 27 56 42 50 rrcurveto
          53 45 62 40 61 hhcurveto
          68 37 -60 -71 -11 hvcurveto
          -6 -1 4 -5 7 hhcurveto
          14 hlineto
          6 7 5 7 2 hvcurveto
          endchar
        </CharString>
        <CharString name="F">
          700 0 33 291 33 290 33 hstem
          748 477 rmoveto
          20 175 1 14 rlineto
          14 -13 0 -15 vhcurveto
          -475 hlineto
          -17 -12 0 -18 -15 10 0 19 31 24 0 -16 -7 -2 -8 -2 -7 hvcurveto
          -133 -533 -64 callgsubr
          30 callsubr
          19 23 3 20 hhcurveto
          61 hlineto
          89 43 -3 3 -10 callsubr
          4 0 2 4 15 vhcurveto
          62 251 rlineto
          94 hlineto
          68 9 -14 -27 -13 -4 -21 -3 -13 hvcurveto
          -4 -12 0 -3 0 vvcurveto
          -14 16 0 3 12 5 1 20 5 vhcurveto
          54 217 61 callsubr
          14 -15 0 -4 -16 -1 -5 -16 -4 vhcurveto
          -76 -20 -19 -20 -83 hhcurveto
          -87 hlineto
          63 254 rlineto
          36 9 7 0 31 hhcurveto
          132 hlineto
          109 27 -28 -75 -12 -2 -27 -1 -12 hvcurveto
          -1 -6 -2 -13 -5 vvcurveto
          -16 12 0 7 17 1 7 17 2 vhcurveto
          endchar
        </CharString>
        <CharString name="G">
          25 callgsubr
          hstem
          156 88 vstem
          -98 callsubr
          endchar
        </CharString>
        <CharString name="Gacute">
          25 callgsubr
          61 90 callgsubr
          156 88 hintmask 11100100
          -98 callsubr
          hintmask 00011000
          -38 608 rmoveto
          -104 callsubr
        </CharString>
        <CharString name="Gamma">
          673 0 33 614 33 hstem
          721 477 rmoveto
          20 175 1 14 rlineto
          14 -13 0 -15 vhcurveto
          -448 hlineto
          -17 -12 0 -18 -15 10 0 19 31 24 0 -16 -7 -2 -8 -2 -7 hvcurveto
          -133 -533 -64 callgsubr
          30 callsubr
          19 23 3 20 hhcurveto
          61 hlineto
          89 43 -3 3 -10 callsubr
          4 0 2 4 15 vhcurveto
          134 538 rlineto
          36 9 7 0 31 hhcurveto
          114 hlineto
          111 16 -34 -66 -22 0 -5 -3 -27 hvcurveto
          -1 -6 -2 -12 -6 vvcurveto
          -16 12 0 7 17 1 7 17 2 vhcurveto
          endchar
        </CharString>
        <CharString name="Gbreve">
          25 callgsubr
          40 96 callgsubr
          113 callgsubr
          hintmask 11100100
          -98 callsubr
          hintmask 00011000
          -27 643 -103 callsubr
          endchar
        </CharString>
        <CharString name="Gcaron">
          25 callgsubr
          113 callgsubr
          vstemhm
          -98 callsubr
          -58 572 -76 callsubr
        </CharString>
        <CharString name="Gcedilla">
          830 75 callsubr
          33 231 33 395 33 hstem
          156 88 vstem
          -98 callsubr
          -388 -372 rmoveto
          -93 callsubr
        </CharString>
        <CharString name="Gcircumflex">
          25 callgsubr
          113 callgsubr
          vstemhm
          -98 callsubr
          -79 491 -67 callgsubr
        </CharString>
        <CharString name="Gcommaaccent">
          830 75 callsubr
          33 231 33 395 33 113 callgsubr
          hintmask 00111100
          -98 callsubr
          hintmask 11000000
          -388 -372 rmoveto
          -93 callsubr
        </CharString>
        <CharString name="Gdotaccent">
          25 callgsubr
          51 111 113 callgsubr
          hintmask 11101000
          -98 callsubr
          hintmask 00010000
          -144 558 -94 callsubr
        </CharString>
        <CharString name="H">
          47 callsubr
          hstem
          -100 callsubr
          endchar
        </CharString>
        <CharString name="H_uni0303">
          47 callsubr
          51 41 26 41 hstemhm
          hintmask 11100000
          -100 callsubr
          hintmask 00011000
          -121 159 -106 callgsubr
        </CharString>
        <CharString name="Hbar">
          31 callsubr
          306 33 125 32 121 33 hstem
          -49 callgsubr
          -21 -85 rlineto
          -300 hlineto
          19 78 rlineto
          34 8 6 9 62 hhcurveto
          22 11 0 19 5 -4 9 -12 -17 -22 -2 -1 -18 hvcurveto
          -119 hlineto
          -58 3 rlineto
          -75 callsubr
          -21 -84 rlineto
          -76 85 callsubr
          76 hlineto
          -105 -421 -70 callgsubr
          12 callsubr
          hvcurveto
          67 268 97 callgsubr
          -65 -263 rlineto
          -37 -9 -7 -6 -66 hhcurveto
          -15 -12 -78 callsubr
          8 2 8 2 7 hvcurveto
          106 425 rlineto
          76 hlineto
          24 callgsubr
          8 2 -5 8 -9 hhcurveto
          -76 hlineto
          19 75 rlineto
          38 10 5 8 64 hhcurveto
          19 12 0 19 hvcurveto
          -250 -297 rmoveto
          -300 hlineto
          31 125 97 callgsubr
          endchar
        </CharString>
        <CharString name="Hbrevebelow">
          797 -231 96 callgsubr
          76 33 306 33 278 33 hstemhm
          hintmask 00111000
          -100 callsubr
          hintmask 11000000
          -360 -739 -103 callsubr
          endchar
        </CharString>
        <CharString name="Hcircumflex">
          47 callsubr
          hstemhm
          -100 callsubr
          -169 84 -67 callgsubr
        </CharString>
        <CharString name="Hdieresis">
          47 callsubr
          51 100 hstemhm
          hintmask 11100000
          -100 callsubr
          hintmask 00010000
          -355 -7 callsubr
        </CharString>
        <CharString name="Hdotbelow">
          47 callsubr
          hstemhm
          -100 callsubr
          -472 -804 -94 callsubr
        </CharString>
        <CharString name="I">
          20 callsubr
          hstem
          -103 callgsubr
          endchar
        </CharString>
        <CharString name="I_J">
          934 -21 28 -7 33 31 98 488 33 hstemhm
          478 101 hintmask 01010000
          -103 callgsubr
          668 650 rmoveto
          4 -3 10 -11 vhcurveto
          -9 -6 -3 -91 -43 -45 3 -42 hhcurveto
          -8 88 callgsubr
          9 hlineto
          17 8 0 -2 18 hvcurveto
          23 -3 8 -1 -13 vvcurveto
          -6 -3 -11 0 vhcurveto
          -116 -465 rlineto
          hintmask 10111000
          -79 -20 -60 -63 -56 hhcurveto
          -29 -43 14 45 -13 hvcurveto
          53 1 8 46 10 vvcurveto
          22 -16 17 -26 -9 -50 -6 -68 -63 52 -46 76 102 89 82 76 19 vhcurveto
          117 471 rlineto
          36 9 6 6 43 hhcurveto
          15 12 0 19 hvcurveto
          endchar
        </CharString>
        <CharString name="Iacute">
          20 callsubr
          82 90 callgsubr
          hintmask 11000000
          -103 callgsubr
          hintmask 00110000
          221 851 rmoveto
          -104 callsubr
        </CharString>
        <CharString name="Ibreve">
          20 callsubr
          61 96 callgsubr
          hstemhm
          hintmask 11000000
          -103 callgsubr
          hintmask 00110000
          232 886 -103 callsubr
          endchar
        </CharString>
        <CharString name="Icaron">
          20 callsubr
          hstemhm
          -103 callgsubr
          201 815 -76 callsubr
        </CharString>
        <CharString name="Icircumflex">
          20 callsubr
          hstemhm
          -103 callgsubr
          180 734 -67 callgsubr
        </CharString>
        <CharString name="Idblgrave">
          20 callsubr
          78 callsubr
          hintmask 11000000
          -103 callgsubr
          hintmask 00110000
          175 743 -77 callsubr
        </CharString>
        <CharString name="Idieresis">
          20 callsubr
          51 100 hstemhm
          hintmask 11000000
          -103 callgsubr
          hintmask 00100000
          -6 774 -65 callsubr
        </CharString>
        <CharString name="Idieresisacute">
          20 callsubr
          51 100 79 callgsubr
          hintmask 11000000
          -103 callgsubr
          hintmask 00111000
          -6 774 rmoveto
          -94 callgsubr
          219 hmoveto
          -94 callgsubr
          46 227 rmoveto
          -104 callsubr
        </CharString>
        <CharString name="Idotaccent">
          20 callsubr
          72 111 hstemhm
          hintmask 11000000
          -103 callgsubr
          hintmask 00100000
          115 801 -94 callsubr
        </CharString>
        <CharString name="Idotbelow">
          20 callsubr
          hstemhm
          -103 callgsubr
          -123 -154 -94 callsubr
        </CharString>
        <CharString name="Igrave">
          20 callsubr
          82 90 callgsubr
          hintmask 11000000
          -103 callgsubr
          hintmask 00110000
          121 749 -80 callsubr
        </CharString>
        <CharString name="Ihookabove">
          20 callsubr
          93 105 callgsubr
          hintmask 11000000
          -103 callgsubr
          hintmask 00110000
          175 872 -107 callgsubr
        </CharString>
        <CharString name="Imacron">
          20 callsubr
          71 36 hstemhm
          hintmask 11000000
          -103 callgsubr
          hintmask 00100000
          228 757 -84 callsubr
        </CharString>
        <CharString name="Imacron.alt">
          20 callsubr
          71 36 hstemhm
          hintmask 11000000
          -103 callgsubr
          hintmask 00100000
          150 757 37 callsubr
        </CharString>
        <CharString name="Iogonek">
          413 -211 47 164 21 callgsubr
          hstem
          -33 callsubr
          endchar
        </CharString>
        <CharString name="Iogonekacute">
          413 -211 47 164 21 callgsubr
          82 90 callgsubr
          hintmask 11100000
          -33 callsubr
          hintmask 00011000
          254 985 rmoveto
          -104 callsubr
        </CharString>
        <CharString name="Iota">
          20 callsubr
          hstem
          -103 callgsubr
          endchar
        </CharString>
        <CharString name="Itilde">
          20 callsubr
          51 41 26 41 hstemhm
          hintmask 11000000
          -103 callgsubr
          hintmask 00110000
          228 809 -106 callgsubr
        </CharString>
        <CharString name="J">
          74 callsubr
          hstem
          107 101 vstem
          -57 callgsubr
          endchar
        </CharString>
        <CharString name="J_uni030C.cap">
          562.85 -21 28 57 98 313 -21 146 83 -33 33 hstemhm
          107 101 hintmask 11001100
          -57 callgsubr
          117 -33 112 callgsubr
          hintmask 00110000
          -15 9 -18 26 17 5 4 4 6 vhcurveto
          -18 -75 -50 -42 -20 -16 rrcurveto
          -4 -3 -3 -3 -3 vvcurveto
          -6 5 -6 6 13 96 90 92 vhcurveto
          endchar
        </CharString>
        <CharString name="Jacute">
          74 callsubr
          82 90 callgsubr
          107 101 hintmask 11100100
          -57 callgsubr
          hintmask 00011000
          62 201 rmoveto
          -104 callsubr
        </CharString>
        <CharString name="Jcircumflex">
          74 callsubr
          hstemhm
          107 101 vstemhm
          -57 callgsubr
          21 84 -67 callgsubr
        </CharString>
        <CharString name="K">
          824 4 callgsubr
          hstem
          -85 callsubr
          endchar
        </CharString>
        <CharString name="Kappa">
          824 4 callgsubr
          hstem
          -85 callsubr
          endchar
        </CharString>
        <CharString name="Kcedilla">
          824 60 callsubr
          hstem
          -85 callsubr
          -332 -129 rmoveto
          -93 callsubr
        </CharString>
        <CharString name="Kcommaaccent">
          824 45 callsubr
          -85 callsubr
          hintmask 11000000
          -332 -129 rmoveto
          -93 callsubr
        </CharString>
        <CharString name="L">
          673 4 callgsubr
          hstem
          -92 callsubr
          endchar
        </CharString>
        <CharString name="L_uni0303">
          673 4 callgsubr
          51 41 26 41 hstemhm
          hintmask 11000000
          -92 callsubr
          hintmask 00110000
          -80 583 -106 callgsubr
        </CharString>
        <CharString name="Lacute">
          673 4 callgsubr
          82 90 callgsubr
          hintmask 11000000
          -92 callsubr
          hintmask 00110000
          -87 625 rmoveto
          -104 callsubr
        </CharString>
        <CharString name="Lambda">
          742 0 33 681 -20 hstem
          685 19 rmoveto
          14 -13 0 -13 -39 -3 7 23 -2 vhcurveto
          -45 624 rlineto
          21 -2 0 6 -20 hhcurveto
          -10 -10 0 -21 -12 hvcurveto
          -328 -575 -41 -72 -35 -10 -25 -3 rlinecurve
          -14 -1 -10 -1 -17 vvcurveto
          -7 6 -7 8 vhcurveto
          12 -5 3 69 64 19 -3 7 hhcurveto
          5 14 0 19 13 -11 1 -7 hvcurveto
          -21 2 -17 9 21 vvcurveto
          15 15 27 0 vhcurveto
          271 473 36 -503 1 -19 2 -24 -68 -1 rlinecurve
          -10 -13 -9 callgsubr
          hvcurveto
          0 40 3 70 vhcurveto
          88 2 -3 10 hhcurveto
          5 15 0 19 hvcurveto
          endchar
        </CharString>
        <CharString name="Lcaron">
          673 0 33 442 -21 146 83 -33 33 hstemhm
          hintmask 10010000
          -92 callsubr
          2 391 112 callgsubr
          hintmask 01100000
          -15 9 -18 26 17 5 4 4 6 vhcurveto
          -18 -75 -50 -42 -20 -16 rrcurveto
          -4 -3 -3 -3 -3 vvcurveto
          -6 5 -6 6 13 96 90 92 vhcurveto
          endchar
        </CharString>
        <CharString name="Lcedilla">
          673 60 callsubr
          hstem
          -92 callsubr
          -313 -355 rmoveto
          -93 callsubr
        </CharString>
        <CharString name="Lcommaaccent">
          673 45 callsubr
          -92 callsubr
          hintmask 11000000
          -313 -355 rmoveto
          -93 callsubr
        </CharString>
        <CharString name="Ldot">
          673 0 33 318 111 188 33 hstem
          -92 callsubr
          36 171 -94 callsubr
        </CharString>
        <CharString name="Ldotbelow">
          673 92 callsubr
          -92 callsubr
          -307 -380 -94 callsubr
        </CharString>
        <CharString name="Ldotbelowmacron">
          673 4 callgsubr
          71 36 hstemhm
          hintmask 11000000
          -92 callsubr
          -307 -380 57 callgsubr
          233 911 -84 callsubr
        </CharString>
        <CharString name="Lslash">
          673 4 callgsubr
          hstem
          238 293 vstem
          664 245 rmoveto
          13 -10 2 -9 -14 -1 -3 -21 -8 vhcurveto
          -89 -34 -43 -114 -163 hhcurveto
          -95 hlineto
          -9 -10 0 2 -9 hvcurveto
          1 11 0 3 3 13 80 319 rcurveline
          164 130 -20 26 -131 -105 42 171 rlineto
          37 9 6 10 -11 callgsubr
          hvcurveto
          -43 -46 -3 -44 -100 -16 3 -8 hhcurveto
          -6 -14 -77 callgsubr
          -1 -2 -3 -14 hvcurveto
          -65 -263 -103 -80 22 -25 68 54 -56 -223 -51 callgsubr
          448 20 callgsubr
          77 209 rlineto
          5 13 0 5 0 vvcurveto
          endchar
        </CharString>
        <CharString name="M">
          961 4 callgsubr
          hstem
          -68 callsubr
          endchar
        </CharString>
        <CharString name="Mdotbelow">
          961 92 callsubr
          -68 callsubr
          -549 -804 -94 callsubr
        </CharString>
        <CharString name="Mu">
          961 4 callgsubr
          hstem
          -68 callsubr
          endchar
        </CharString>
        <CharString name="N">
          65 callsubr
          -99 callgsubr
          endchar
        </CharString>
        <CharString name="Nacute">
          7 callsubr
          82 90 callgsubr
          hintmask 11000000
          -99 callgsubr
          hintmask 00110000
          -128 201 rmoveto
          -104 callsubr
        </CharString>
        <CharString name="Ncaron">
          7 callsubr
          hstemhm
          -99 callgsubr
          -148 165 -76 callsubr
        </CharString>
        <CharString name="Ncedilla">
          797 60 callsubr
          hstem
          -99 callgsubr
          -478 -779 rmoveto
          -93 callsubr
        </CharString>
        <CharString name="Ncommaaccent">
          797 45 callsubr
          -99 callgsubr
          hintmask 11000000
          -478 -779 rmoveto
          -93 callsubr
        </CharString>
        <CharString name="Ndotaccent">
          7 callsubr
          51 111 hstemhm
          hintmask 11000000
          -99 callgsubr
          hintmask 00100000
          -239 130 -94 callsubr
        </CharString>
        <CharString name="Ndotbelow">
          7 callsubr
          hstemhm
          -99 callgsubr
          -472 -804 -94 callsubr
        </CharString>
        <CharString name="Ntilde">
          7 callsubr
          51 41 26 41 hstemhm
          hintmask 11000000
          -99 callgsubr
          hintmask 00110000
          -121 159 -106 callgsubr
        </CharString>
        <CharString name="Nu">
          65 callsubr
          -99 callgsubr
          endchar
        </CharString>
        <CharString name="O">
          -23 callgsubr
          hstem
          2 callgsubr
          vstem
          -98 callgsubr
          endchar
        </CharString>
        <CharString name="OE">
          -54 callgsubr
        </CharString>
        <CharString name="OE.dup">
          -54 callgsubr
        </CharString>
        <CharString name="Oacute">
          -23 callgsubr
          61 -21 163 -20 16 callgsubr
          hintmask 11001100
          -98 callgsubr
          hintmask 00110000
          26 399 rmoveto
          -104 callsubr
        </CharString>
        <CharString name="Obreve">
          -23 callgsubr
          40 96 callgsubr
          16 callgsubr
          hintmask 11001100
          -98 callgsubr
          hintmask 00110000
          37 434 -103 callsubr
          endchar
        </CharString>
        <CharString name="Ocaron">
          -23 callgsubr
          16 callgsubr
          vstemhm
          -98 callgsubr
          hintmask 00010000
          6 363 -76 callsubr
        </CharString>
        <CharString name="Ocircumflex">
          -23 callgsubr
          16 callgsubr
          vstemhm
          -98 callgsubr
          -15 282 -67 callgsubr
        </CharString>
        <CharString name="Ocircumflexacute">
          -23 callgsubr
          332 -20 16 callgsubr
          hintmask 11011000
          -98 callgsubr
          hintmask 00100000
          -15 282 -102 callgsubr
          36 246 rmoveto
          -104 callsubr
        </CharString>
        <CharString name="Ocircumflexdotbelow">
          -23 callgsubr
          16 callgsubr
          vstemhm
          -98 callgsubr
          -15 282 -102 callgsubr
          -303 -888 -94 callsubr
        </CharString>
        <CharString name="Ocircumflexgrave">
          -23 callgsubr
          16 callgsubr
          vstemhm
          -98 callgsubr
          -15 282 -79 callsubr
        </CharString>
        <CharString name="Ocircumflexhookabove">
          -23 callgsubr
          354 -20 16 callgsubr
          hintmask 11011000
          -98 callgsubr
          hintmask 00100000
          -15 282 -102 callgsubr
          115 236 -107 callgsubr
        </CharString>
        <CharString name="Ocircumflextilde">
          -23 callgsubr
          189 41 26 41 16 callgsubr
          hintmask 11001100
          -98 callgsubr
          hintmask 00110000
          -15 282 -102 callgsubr
          86 234 -106 callgsubr
        </CharString>
        <CharString name="Odblgrave">
          -23 callgsubr
          61 -21 193 -20 16 callgsubr
          hintmask 11001100
          -98 callgsubr
          hintmask 00110000
          -20 291 -77 callsubr
        </CharString>
        <CharString name="Odieresis">
          -23 callgsubr
          30 100 16 callgsubr
          hintmask 11011000
          -98 callgsubr
          hintmask 00100000
          -201 322 -65 callsubr
        </CharString>
        <CharString name="Odotbelow">
          -23 callgsubr
          16 callgsubr
          vstemhm
          -98 callgsubr
          -318 -606 -94 callsubr
        </CharString>
        <CharString name="Ograve">
          -23 callgsubr
          61 -21 163 -20 16 callgsubr
          hintmask 11001100
          -98 callgsubr
          hintmask 00110000
          -74 297 -80 callsubr
        </CharString>
        <CharString name="Ohookabove">
          -23 callgsubr
          72 -21 205 -20 16 callgsubr
          hintmask 11001100
          -98 callgsubr
          hintmask 00110000
          -19 420 -107 callgsubr
        </CharString>
        <CharString name="Ohorn">
          -23 callgsubr
          90 -20 hstem
          154 92 503 86 vstem
          -90 callsubr
          endchar
        </CharString>
        <CharString name="Ohornacute">
          -23 callgsubr
          61 -21 50 -20 133 87 callsubr
          hintmask 11110110
          -90 callsubr
          hintmask 00101010
          16 515 rmoveto
          -104 callsubr
        </CharString>
        <CharString name="Ohorndotbelow">
          -23 callgsubr
          90 87 callsubr
          vstemhm
          -90 callsubr
          -301 -490 -94 callsubr
        </CharString>
        <CharString name="Ohorngrave">
          -23 callgsubr
          61 -21 50 -20 133 87 callsubr
          hintmask 11110110
          -90 callsubr
          hintmask 00101000
          -57 413 -80 callsubr
        </CharString>
        <CharString name="Ohornhookabove">
          -23 callgsubr
          72 -21 39 -20 186 87 callsubr
          hintmask 11010110
          -90 callsubr
          hintmask 00101000
          -3 536 -107 callgsubr
        </CharString>
        <CharString name="Ohorntilde">
          -23 callgsubr
          30 41 19 -20 27 41 hstemhm
          154 92 503 86 hintmask 11010110
          -90 callsubr
          hintmask 00101000
          50 473 -106 callgsubr
        </CharString>
        <CharString name="Ohungarumlaut">
          -23 callgsubr
          61 -21 193 -20 16 callgsubr
          hintmask 11001100
          -98 callgsubr
          hintmask 00110000
          -112 436 -81 callgsubr
        </CharString>
        <CharString name="Omacron">
          -23 callgsubr
          50 36 16 callgsubr
          hintmask 11011000
          -98 callgsubr
          hintmask 00100000
          33 305 -84 callsubr
        </CharString>
        <CharString name="Omega">
          -43 callgsubr
        </CharString>
        <CharString name="Omicron">
          -23 callgsubr
          hstem
          2 callgsubr
          vstem
          -98 callgsubr
          endchar
        </CharString>
        <CharString name="Oogonek">
          -23 callgsubr
          hstem
          2 callgsubr
          vstem
          -21 callsubr
          endchar
        </CharString>
        <CharString name="Oogonekacute">
          -23 callgsubr
          61 -21 163 -20 16 callgsubr
          hintmask 11001100
          -21 callsubr
          hintmask 00110000
          26 399 rmoveto
          -104 callsubr
        </CharString>
        <CharString name="Orogate">
          823 2 callgsubr
          vstem
          9 callgsubr
          158 -100 103 -136 7 vhcurveto
          40 160 rlineto
          8 -6 6 -8 -7 -5 -5 -6 -2 vhcurveto
          -41 -163 rlineto
          -212 -10 -205 -229 -222 vvcurveto
          -143 91 -113 145 -8 vhcurveto
          -39 -159 98 callsubr
          41 163 rlineto
          207 9 210 216 232 vvcurveto
          -86 35 rmoveto
          -191 -141 -268 -195 -89 -79 67 142 54 15 129 71 111 vhcurveto
          100 63 98 58 85 hhcurveto
          93 79 -67 -135 hvcurveto
          endchar
        </CharString>
        <CharString name="Oslash">
          61 callgsubr
          hstem
          154 76 531 75 vstem
          -59 callsubr
          endchar
        </CharString>
        <CharString name="Oslash.dup">
          61 callgsubr
          hstem
          154 76 531 75 vstem
          -59 callsubr
          endchar
        </CharString>
        <CharString name="Oslashacute">
          61 callgsubr
          38 90 callgsubr
          154 76 531 75 hintmask 11110011
          -59 callsubr
          hintmask 00001100
          15 397 rmoveto
          -104 callsubr
        </CharString>
        <CharString name="Otilde">
          -23 callgsubr
          30 41 26 41 16 callgsubr
          hintmask 11001100
          -98 callgsubr
          hintmask 00110000
          33 357 -106 callgsubr
        </CharString>
        <CharString name="P">
          -33 callgsubr
        </CharString>
        <CharString name="Phi">
          768 0 33 102 30 353 30 102 33 hstem
          163 88 435 88 vstem
          774 376 rmoveto
          91 -92 71 -128 9 vhcurveto
          11 45 rlineto
          51 13 2 7 84 hhcurveto
          8 hlineto
          18 11 0 19 10 -7 4 -9 -21 -25 -2 -1 -21 hvcurveto
          -68 hlineto
          -98 -36 3 -4 hhcurveto
          -7 -14 0 -19 -42 callgsubr
          8 hlineto
          16 9 0 -2 18 hvcurveto
          26 -3 2 -3 -11 vvcurveto
          -7 -13 -50 -7 -28 vhcurveto
          -175 -16 -140 -111 -112 vvcurveto
          -83 78 -75 135 -12 vhcurveto
          -4 -16 -4 -14 -3 -15 rrcurveto
          -51 -13 -2 -8 -84 60 callgsubr
          21 25 2 1 21 hvcurveto
          68 hlineto
          98 36 -3 4 -10 callsubr
          5 6 24 3 14 vhcurveto
          4 13 0 2 6 26 rrcurveto
          193 17 130 118 105 vvcurveto
          -391 -211 rmoveto
          -45 5 -28 15 -20 15 rrcurveto
          -32 25 -7 35 28 vvcurveto
          35 15 74 48 51 vhcurveto
          40 42 61 21 56 7 rrcurveto
          215 -123 rmoveto
          -28 -13 -184 -214 -18 vhcurveto
          88 353 rlineto
          86 -8 53 -40 -75 vvcurveto
          endchar
        </CharString>
        <CharString name="Pi">
          31 callsubr
          614 33 hstem
          890 666 rmoveto
          14 -12 0 -16 vhcurveto
          -596 hlineto
          -17 -12 0 -18 -15 10 0 19 31 24 0 -16 -7 -2 -8 -2 -7 hvcurveto
          -133 -533 -70 callgsubr
          12 callsubr
          hvcurveto
          144 576 97 callgsubr
          -142 -571 rlineto
          -37 -9 -7 -6 -66 hhcurveto
          -15 -12 -78 callsubr
          12 callsubr
          hvcurveto
          133 533 rlineto
          37 9 7 6 66 hhcurveto
          15 12 0 19 hvcurveto
          endchar
        </CharString>
        <CharString name="Psi">
          823 0 33 492 30 95 33 hstem
          244 72 vstem
          874 541 rmoveto
          14 -12 0 -16 vhcurveto
          -24 hlineto
          -53 -43 -27 -117 -32 hvcurveto
          -20 -76 -47 -138 -139 -29 108 435 rcurveline
          38 9 6 9 -11 callgsubr
          -21 -25 -2 -1 -21 hvcurveto
          -68 hlineto
          -98 -36 3 -4 hhcurveto
          -7 -14 0 -19 -42 callgsubr
          8 hlineto
          16 9 0 -2 18 hvcurveto
          26 -3 2 -3 -11 vvcurveto
          -8 -2 -8 -2 -7 vhcurveto
          -111 -441 rlineto
          -82 17 -13 67 53 vvcurveto
          18 3 37 11 41 vhcurveto
          11 46 0 25 4 vvcurveto
          80 -52 0 -19 vhcurveto
          -24 hlineto
          -16 -12 0 -14 -12 10 -1 7 -1 hvcurveto
          14 -2 17 -8 -42 vvcurveto
          -18 -3 -19 -4 -18 vhcurveto
          -7 -27 -8 -34 -40 vvcurveto
          -90 43 -76 117 -15 vhcurveto
          -8 -31 5 18 -8 -32 rrcurveto
          -53 -14 -2 -7 -83 60 callgsubr
          21 25 2 1 21 hvcurveto
          68 hlineto
          98 36 -3 4 -10 callsubr
          7 13 50 7 28 vhcurveto
          165 16 87 116 34 125 13 50 21 75 58 8 rrcurveto
          6 1 10 1 12 vvcurveto
          endchar
        </CharString>
        <CharString name="Q">
          823 -194 94 79 31 113 28 522 31 hstem
          154 87 101 28 380 86 vstem
          744 hmoveto
          8 -7 6 -7 -10 -3 -9 -4 -1 vhcurveto
          -82 -28 -58 -19 -29 hhcurveto
          -38 -19 19 87 -7 hvcurveto
          188 79 111 187 164 vvcurveto
          164 -107 104 -143 -218 -214 -234 -227 -148 97 -116 155 14 33 1 13 46 vhcurveto
          -3 -27 -3 -33 -20 vvcurveto
          -53 14 -54 71 120 46 183 11 vhcurveto
          6 464 rmoveto
          -86 -40 -232 -176 -101 vhcurveto
          51 -6 -17 55 -65 hhcurveto
          -58 -46 -54 -49 -13 2 -5 2 -7 hvcurveto
          -34 15 -71 44 135 vvcurveto
          209 149 247 188 92 80 -68 -141 vhcurveto
          -248 -418 rmoveto
          -15 -1 -1 -6 -3 vhcurveto
          0 -38 -17 -44 -11 -32 0 38 34 35 41 41 38 18 -21 -56 vhcurveto
          endchar
        </CharString>
        <CharString name="R">
          -73 callsubr
          endchar
        </CharString>
        <CharString name="Racute">
          1 callgsubr
          82 -21 163 -20 34 callsubr
          hintmask 10010011
          -83 callsubr
          hintmask 01100010
          -82 callgsubr
          hintmask 10110001
          -62 callsubr
          hintmask 00001100
          88 319 rmoveto
          -104 callsubr
        </CharString>
        <CharString name="Rcaron">
          -73 callsubr
          hintmask 00000000
          68 283 -76 callsubr
        </CharString>
        <CharString name="Rcedilla">
          782 75 callsubr
          72 callsubr
          hintmask 00100111
          -83 callsubr
          hintmask 00011010
          -82 callgsubr
          hintmask 11101101
          -62 callsubr
          -262 -661 rmoveto
          -93 callsubr
        </CharString>
        <CharString name="Rcommaaccent">
          782 75 callsubr
          72 callsubr
          hintmask 00100111
          -83 callsubr
          hintmask 00011010
          -82 callgsubr
          hintmask 00101101
          -62 callsubr
          hintmask 11000000
          -262 -661 rmoveto
          -93 callsubr
        </CharString>
        <CharString name="Rdblgrave">
          1 callgsubr
          82 -21 193 -20 34 callsubr
          hintmask 10010011
          -83 callsubr
          hintmask 01100010
          -82 callgsubr
          hintmask 10110001
          -62 callsubr
          hintmask 00001100
          15 211 -77 callsubr
        </CharString>
        <CharString name="Rdotaccent">
          1 callgsubr
          72 111 34 callsubr
          hintmask 10010110
          -83 callsubr
          hintmask 01100100
          -82 callgsubr
          hintmask 10110010
          -62 callsubr
          hintmask 00001000
          -18 269 -94 callsubr
        </CharString>
        <CharString name="Rdotbelow">
          -73 callsubr
          hintmask 00000000
          -256 -686 -94 callsubr
        </CharString>
        <CharString name="Rdotbelowmacron">
          1 callgsubr
          71 36 34 callsubr
          hintmask 10010110
          -83 callsubr
          hintmask 01100100
          -82 callgsubr
          hintmask 10110010
          -62 callsubr
          -256 -686 -97 callsubr
          hintmask 00001000
          351 911 -84 callsubr
        </CharString>
        <CharString name="Rho">
          -33 callgsubr
        </CharString>
        <CharString name="S">
          104 callgsubr
          hstem
          56 callsubr
          vstem
          571 232 rmoveto
          -97 callgsubr
          rlineto
          -53 42 62 -16 62 hhcurveto
          132 116 129 124 hvcurveto
          endchar
        </CharString>
        <CharString name="S_S">
          1207 -21 33 662 30 hstem
          56 callsubr
          237 66 234 66 vstem
          571 232 rmoveto
          -97 callgsubr
          rlineto
          -53 42 62 -16 62 hhcurveto
          132 116 129 124 hvcurveto
          603 hmoveto
          -97 callgsubr
          rlineto
          -53 42 62 -16 62 hhcurveto
          132 116 129 124 hvcurveto
          endchar
        </CharString>
        <CharString name="Sacute">
          104 callgsubr
          61 90 callgsubr
          56 callsubr
          hintmask 11001100
          571 232 rmoveto
          -97 callgsubr
          rlineto
          -53 42 62 -16 62 hhcurveto
          132 116 129 124 hvcurveto
          hintmask 00110000
          96 638 rmoveto
          -104 callsubr
        </CharString>
        <CharString name="Scaron">
          603 -21 42 callgsubr
          vstemhm
          571 232 rmoveto
          -97 callgsubr
          rlineto
          -53 42 62 -16 62 hhcurveto
          132 116 129 124 hvcurveto
          76 602 -76 callsubr
        </CharString>
        <CharString name="Scedilla">
          104 callgsubr
          hstem
          56 callsubr
          vstem
          571 232 rmoveto
          -97 callgsubr
          28 -36 38 -19 40 -8 rlinecurve
          -4 -18 -6 -21 -4 -49 callsubr
          39 -41 15 -25 4 hvcurveto
          7 27 rlineto
          128 6 111 126 121 vvcurveto
          endchar
        </CharString>
        <CharString name="Scircumflex">
          603 -21 42 callgsubr
          vstemhm
          571 232 rmoveto
          -97 callgsubr
          rlineto
          -53 42 62 -16 62 hhcurveto
          132 116 129 124 hvcurveto
          55 521 -67 callgsubr
        </CharString>
        <CharString name="Sdotbelow">
          603 -21 42 callgsubr
          vstemhm
          571 232 rmoveto
          -97 callgsubr
          rlineto
          -53 42 62 -16 62 hhcurveto
          132 116 129 124 hvcurveto
          -249 -367 -94 callsubr
        </CharString>
        <CharString name="Sigma">
          768 0 43 607 33 hstem
          740 223 rmoveto
          14 -16 0 -3 -15 0 -2 -20 -9 vhcurveto
          -143 -57 -59 -29 -161 hhcurveto
          -256 hlineto
          304 282 rlineto
          10 9 1 2 6 vvcurveto
          0 0 4 -4 10 vhcurveto
          -126 294 rlineto
          234 hlineto
          153 31 -29 -95 hvcurveto
          -34 -3 -14 -8 vvcurveto
          -14 15 0 3 17 2 5 19 89 callsubr
          rlineto
          28 3 -8 0 -22 hhcurveto
          -518 49 callgsubr
          -21 hvcurveto
          150 -352 -300 -279 rlineto
          -11 -11 -1 -1 -5 vvcurveto
          -14 11 0 17 vhcurveto
          518 20 callgsubr
          72 190 rlineto
          5 11 96 callsubr
          endchar
        </CharString>
        <CharString name="T">
          45 callgsubr
          hstem
          -99 callsubr
          endchar
        </CharString>
        <CharString name="T_uni0303">
          45 callgsubr
          58 41 26 41 hstemhm
          hintmask 11000000
          -99 callsubr
          hintmask 00110000
          -64 358 -106 callgsubr
        </CharString>
        <CharString name="T_uni0308">
          45 callgsubr
          58 100 hstemhm
          hintmask 11000000
          -99 callsubr
          hintmask 00100000
          -298 323 -65 callsubr
        </CharString>
        <CharString name="Tau">
          45 callgsubr
          hstem
          -99 callsubr
          endchar
        </CharString>
        <CharString name="Tcaron">
          45 callgsubr
          hstemhm
          -99 callsubr
          -91 364 -76 callsubr
        </CharString>
        <CharString name="Tcedilla">
          45 callgsubr
          hstem
          820 470 rmoveto
          28 178 1 14 rlineto
          14 -13 0 -15 vhcurveto
          -545 hlineto
          -22 -3 0 -18 -6 hvcurveto
          -61 -178 rlineto
          -5 -13 0 -4 14 callsubr
          4 6 0 3 4 vhcurveto
          3 2 0 2 9 27 rrcurveto
          144 51 30 16 134 hhcurveto
          20 25 0 -2 15 hvcurveto
          -1 -14 0 -3 -4 -15 -131 -525 rcurveline
          -40 -10 -6 -11 -91 hhcurveto
          -13 hlineto
          63 callgsubr
          2 -10 15 hvcurveto
          38 39 3 39 hhcurveto
          3 hlineto
          -4 -18 -10 -36 28 callgsubr
          39 -41 15 -25 4 hvcurveto
          8 32 1 6 2 11 rrcurveto
          1 hlineto
          40 42 -3 39 hhcurveto
          7 14 17 callgsubr
          hvcurveto
          -13 hlineto
          -17 -16 1 1 -17 hvcurveto
          -24 3 -7 2 13 vvcurveto
          6 3 11 0 vhcurveto
          134 537 8 31 7 2 7 1 rlinecurve
          2 7 31 0 19 hhcurveto
          98 39 -5 -72 -10 -1 -7 -1 -9 hvcurveto
          -8 -65 rlineto
          -5 vlineto
          -5 vlineto
          -2 -1 -2 -14 21 hhcurveto
          17 1 7 14 2 hvcurveto
          endchar
        </CharString>
        <CharString name="Tdotbelow">
          45 callgsubr
          hstemhm
          -99 callsubr
          -416 -605 -94 callsubr
        </CharString>
        <CharString name="Theta">
          823 -21 30 298 71 298 28 hstem
          154 83 517 82 vstem
          9 callgsubr
          164 -107 104 -143 -218 -214 -234 -227 -148 97 -116 155 211 219 220 237 vhcurveto
          -82 28 rmoveto
          -214 -150 -241 -191 -92 -84 66 143 208 151 250 191 98 77 -75 -137 vhcurveto
          -84 -171 rmoveto
          23 92 rlineto
          1 3 1 7 3 vvcurveto
          14 -14 0 -5 -5 -10 0 -10 -3 vhcurveto
          -6 -24 rlineto
          -294 hlineto
          1 4 3 13 3 vvcurveto
          14 -15 0 -3 -16 -1 -5 -14 -4 vhcurveto
          -22 -88 27 callsubr
          -14 14 0 5 17 6 16 18 1 vhcurveto
          294 hlineto
          -1 -5 -3 -8 -6 vvcurveto
          -15 13 0 6 13 4 3 17 4 vhcurveto
          endchar
        </CharString>
        <CharString name="Thorn">
          673 0 33 145 33 308 33 98 33 hstem
          594 90 vstem
          684 406 rmoveto
          71 -48 75 -124 vhcurveto
          -130 hlineto
          6 26 10 42 4 9 rrcurveto
          12 5 7 9 56 hhcurveto
          23 10 0 19 0 -1 14 -14 hvcurveto
          -112 -3 -115 3 rlineto
          -5 -15 80 callgsubr
          6 11 0 -2 17 hvcurveto
          18 -2 3 -2 -4 -30 -135 -540 rcurveline
          -32 -8 -3 -9 -68 hhcurveto
          -16 -13 0 -19 -6 5 -8 10 hvcurveto
          113 3 115 -3 rlineto
          5 15 0 18 15 -12 0 -17 -55 0 6 10 5 9 37 6 21 hvcurveto
          16 66 rlineto
          140 hlineto
          133 123 112 116 hvcurveto
          -90 3 rmoveto
          -98 -85 -100 -105 vhcurveto
          -108 hlineto
          77 308 rlineto
          113 hlineto
          19 89 0 -110 hvcurveto
          endchar
        </CharString>
        <CharString name="Tlinebelow">
          768 -162 36 126 33 610 33 hstemhm
          hintmask 01100000
          -99 callsubr
          hintmask 10000000
          -293 -610 -84 callsubr
        </CharString>
        <CharString name="U">
          15 callsubr
          hstem
          215 77 vstem
          -105 callsubr
          endchar
        </CharString>
        <CharString name="U_uni032F">
          797 -210 -21 133 42 35 53 callgsubr
          91 callgsubr
          hintmask 00111000
          -105 callsubr
          hintmask 11000000
          -368 -848 -58 callsubr
        </CharString>
        <CharString name="Uacute">
          15 callsubr
          82 90 callgsubr
          215 77 hintmask 11001000
          -105 callsubr
          hintmask 00110000
          -104 201 rmoveto
          -104 callsubr
        </CharString>
        <CharString name="Ubreve">
          15 callsubr
          61 96 callgsubr
          91 callgsubr
          hintmask 11001000
          -105 callsubr
          hintmask 00110000
          -93 236 -103 callsubr
          endchar
        </CharString>
        <CharString name="Ucaron">
          15 callsubr
          91 callgsubr
          vstemhm
          -105 callsubr
          -124 165 -76 callsubr
        </CharString>
        <CharString name="Ucircumflex">
          15 callsubr
          91 callgsubr
          vstemhm
          -105 callsubr
          -145 84 -67 callgsubr
        </CharString>
        <CharString name="Udblgrave">
          15 callsubr
          78 callsubr
          215 77 hintmask 11001000
          -105 callsubr
          hintmask 00110000
          -150 93 -77 callsubr
        </CharString>
        <CharString name="Udieresis">
          15 callsubr
          51 100 91 callgsubr
          hintmask 11010000
          -105 callsubr
          hintmask 00100000
          -20 callgsubr
          endchar
        </CharString>
        <CharString name="Udieresisacute">
          15 callsubr
          51 100 79 callgsubr
          215 77 hintmask 11000100
          -105 callsubr
          hintmask 00111000
          -20 callgsubr
          46 227 rmoveto
          -104 callsubr
        </CharString>
        <CharString name="Udieresiscaron">
          15 callsubr
          51 100 91 callgsubr
          hintmask 11010000
          -105 callsubr
          hintmask 00100000
          -20 callgsubr
          26 191 -76 callsubr
        </CharString>
        <CharString name="Udieresisgrave">
          15 callsubr
          51 100 79 callgsubr
          215 77 hintmask 11000100
          -105 callsubr
          hintmask 00111000
          -20 callgsubr
          -54 125 -80 callsubr
        </CharString>
        <CharString name="Udotbelow">
          15 callsubr
          91 callgsubr
          vstemhm
          -105 callsubr
          -449 -804 -94 callsubr
        </CharString>
        <CharString name="Ugrave">
          15 callsubr
          82 90 callgsubr
          215 77 hintmask 11001000
          -105 callsubr
          hintmask 00110000
          -204 99 -80 callsubr
        </CharString>
        <CharString name="Uhookabove">
          15 callsubr
          93 105 callgsubr
          215 77 hintmask 11001000
          -105 callsubr
          hintmask 00110000
          -150 222 -107 callgsubr
        </CharString>
        <CharString name="Uhorn">
          796 25 callsubr
          0 111 -101 callsubr
          endchar
        </CharString>
        <CharString name="Uhornacute">
          796 25 callsubr
          0 111 113 -20 -101 callsubr
          hintmask 00010000
          -156 148 rmoveto
          -104 callsubr
        </CharString>
        <CharString name="Uhorndotbelow">
          796 25 callsubr
          0 111 -101 callsubr
          hintmask 00000000
          -496 -857 -94 callsubr
        </CharString>
        <CharString name="Uhorngrave">
          796 25 callsubr
          0 111 113 -20 -101 callsubr
          hintmask 00010000
          -228 46 -80 callsubr
        </CharString>
        <CharString name="Uhornhookabove">
          796 25 callsubr
          0 111 166 -20 -101 callsubr
          hintmask 00010000
          -174 169 -107 callgsubr
        </CharString>
        <CharString name="Uhorntilde">
          796 25 callsubr
          0 111 -60 41 26 41 -101 callsubr
          hintmask 00011000
          -121 106 -106 callgsubr
        </CharString>
        <CharString name="Uhungarumlaut">
          15 callsubr
          78 callsubr
          215 77 hintmask 11001000
          -105 callsubr
          hintmask 00110000
          -242 238 -81 callgsubr
        </CharString>
        <CharString name="Umacron">
          15 callsubr
          71 36 91 callgsubr
          hintmask 11010000
          -105 callsubr
          hintmask 00100000
          -97 107 -84 callsubr
        </CharString>
        <CharString name="Uogonek">
          797 -211 47 143 53 callgsubr
          hstem
          215 77 vstem
          68 callgsubr
          6 -5 8 -10 vhcurveto
          -3 -25 -3 -67 -75 -15 3 -7 hhcurveto
          5 callgsubr
          -13 14 -1 5 hvcurveto
          31 -1 28 -6 -33 vvcurveto
          -9 -4 -15 0 vhcurveto
          -89 -357 rlineto
          -121 -30 -108 -96 -102 hhcurveto
          -52 -65 30 100 26 5 29 5 21 hvcurveto
          97 389 rlineto
          34 8 6 9 62 hhcurveto
          22 11 0 19 5 -4 9 -12 -17 -22 -2 -1 -18 hvcurveto
          -119 hlineto
          -58 3 rlineto
          -75 callsubr
          -96 -384 rlineto
          -7 -28 0 -13 -18 vvcurveto
          -110 71 -64 84 -14 vhcurveto
          -38 -29 -32 -35 -8 -39 -44 callsubr
          -57 callsubr
          6 69 callsubr
          5 4 rcurveline
          3 hlineto
          137 116 131 107 26 hvcurveto
          89 359 17 70 50 2 33 2 rlinecurve
          11 1 6 6 12 vvcurveto
          endchar
        </CharString>
        <CharString name="Upsilon">
          823 0 33 600 71 hstem
          477 52 311 41 vstem
          881 591 rmoveto
          68 -38 45 -63 -149 -78 -181 -59 -26 vhcurveto
          -1 hlineto
          1 9 2 24 18 vvcurveto
          85 -24 104 -112 -114 -61 -133 -28 -11 13 0 3 17 3 9 10 4 vhcurveto
          49 17 47 33 53 hhcurveto
          87 15 -78 -64 -60 -12 -49 -12 -47 hvcurveto
          -64 -257 rlineto
          -34 -8 -5 -11 -82 60 callgsubr
          hvcurveto
          67 3 rlineto
          141 hlineto
          -1 23 26 -2 23 -10 callsubr
          4 0 2 4 15 vhcurveto
          63 252 rlineto
          73 18 59 235 151 hhcurveto
          60 18 -40 -27 hvcurveto
          -14 -3 -4 -4 vvcurveto
          -12 12 0 4 16 12 5 54 vhcurveto
          endchar
        </CharString>
        <CharString name="Uring">
          15 callsubr
          31 35 106 35 91 callgsubr
          228 84 callgsubr
          hintmask 11001010
          -105 callsubr
          hintmask 00110110
          -208 154 -15 callgsubr
          endchar
        </CharString>
        <CharString name="Utilde">
          15 callsubr
          51 41 26 41 91 callgsubr
          hintmask 11001000
          -105 callsubr
          hintmask 00110000
          -97 159 -106 callgsubr
        </CharString>
        <CharString name="V">
          797 0 -21 671 33 hstem
          915 669 rmoveto
          8 -6 6 -8 vhcurveto
          -11 3 -3 -71 -62 -24 3 -5 hhcurveto
          -5 -14 0 -19 -13 12 -1 3 hvcurveto
          11 -1 27 -2 -26 vvcurveto
          -15 -9 -14 -8 -13 vhcurveto
          -306 -489 -67 518 -3 26 10 15 51 1 rlinecurve
          15 12 0 19 8 -6 6 -9 hvcurveto
          -35 -39 -3 -36 -86 -7 3 -9 hhcurveto
          -5 -15 31 callgsubr
          13 47 1 -8 -24 3 hvcurveto
          79 -613 rlineto
          -20 3 0 -6 20 hhcurveto
          20 5 7 12 7 hvcurveto
          356 566 48 76 37 7 31 3 rlinecurve
          8 1 11 1 17 vvcurveto
          endchar
        </CharString>
        <CharString name="W">
          77 callgsubr
          hstem
          -86 callgsubr
          endchar
        </CharString>
        <CharString name="Wacute">
          77 callgsubr
          82 90 callgsubr
          hintmask 11000000
          -86 callgsubr
          hintmask 00110000
          -290 201 rmoveto
          -104 callsubr
        </CharString>
        <CharString name="Wcircumflex">
          77 callgsubr
          hstemhm
          -86 callgsubr
          -331 84 -67 callgsubr
        </CharString>
        <CharString name="Wdieresis">
          77 callgsubr
          51 100 hstemhm
          hintmask 11000000
          -86 callgsubr
          hintmask 00100000
          -517 -7 callsubr
        </CharString>
        <CharString name="Wgrave">
          77 callgsubr
          82 90 callgsubr
          hintmask 11000000
          -86 callgsubr
          hintmask 00110000
          -390 99 -80 callsubr
        </CharString>
        <CharString name="X">
          -51 callsubr
        </CharString>
        <CharString name="Xi">
          713 0 66 227 -21 47 66 47 -20 133 -21 86 66 hstem
          773 546 rmoveto
          21 116 rlineto
          14 -13 0 -15 vhcurveto
          -490 hlineto
          -21 -5 0 -18 -5 hvcurveto
          -33 -108 rlineto
          -3 -10 0 -2 14 callsubr
          15 0 2 25 9 vhcurveto
          5 16 11 32 7 5 rrcurveto
          6 7 50 0 11 hhcurveto
          337 hlineto
          9 40 -1 -2 13 hvcurveto
          -15 -1 -12 -6 -32 vhcurveto
          -1 -3 0 -7 0 vvcurveto
          -14 15 0 3 17 1 5 17 3 vhcurveto
          -93 -397 rmoveto
          14 -14 0 -5 -15 -1 -4 -19 -6 vhcurveto
          0 -18 -57 -8 -10 vhcurveto
          -7 -7 -64 0 -4 hhcurveto
          -339 hlineto
          -20 -23 0 3 -17 hvcurveto
          -5 1 -1 0 10 vvcurveto
          8 3 23 3 14 vhcurveto
          4 19 96 callsubr
          15 -13 0 -6 -16 -1 -6 -14 -3 vhcurveto
          -4 -18 -20 -99 -10 vvcurveto
          -16 9 0 19 vhcurveto
          502 hlineto
          22 2 0 15 5 hvcurveto
          7 20 34 101 13 vvcurveto
          -33 249 rmoveto
          3 13 1 2 4 vvcurveto
          13 -10 2 -9 -14 -3 -5 -11 -3 vhcurveto
          -1 -5 0 -2 -6 -24 rrcurveto
          -306 hlineto
          2 8 5 15 9 vvcurveto
          13 -10 2 -9 -15 -2 -6 -13 -3 vhcurveto
          -27 -108 rlineto
          -3 -12 -1 -3 -3 vvcurveto
          -13 9 -2 10 14 3 5 11 3 vhcurveto
          1 5 0 2 6 24 rrcurveto
          306 hlineto
          -2 -8 -5 -15 -9 vvcurveto
          -13 10 -2 9 15 2 6 13 3 vhcurveto
          endchar
        </CharString>
        <CharString name="Y">
          65 callsubr
          -100 callgsubr
          endchar
        </CharString>
        <CharString name="Yacute">
          7 callsubr
          82 90 callgsubr
          hintmask 11000000
          -100 callgsubr
          hintmask 00110000
          -158 201 rmoveto
          -104 callsubr
        </CharString>
        <CharString name="Ycircumflex">
          7 callsubr
          hstemhm
          -100 callgsubr
          -199 84 -67 callgsubr
        </CharString>
        <CharString name="Ydieresis">
          7 callsubr
          51 100 hstemhm
          hintmask 11000000
          -100 callgsubr
          hintmask 00100000
          -385 -7 callsubr
        </CharString>
        <CharString name="Ydotbelow">
          7 callsubr
          hstemhm
          -100 callgsubr
          -502 -804 -94 callsubr
        </CharString>
        <CharString name="Ygrave">
          7 callsubr
          82 90 callgsubr
          hintmask 11000000
          -100 callgsubr
          hintmask 00110000
          -258 99 -80 callsubr
        </CharString>
        <CharString name="Yhookabove">
          7 callsubr
          93 105 callgsubr
          hintmask 11000000
          -100 callgsubr
          hintmask 00110000
          -204 222 -107 callgsubr
        </CharString>
        <CharString name="Ytilde">
          7 callsubr
          51 41 26 41 hstemhm
          hintmask 11000000
          -100 callgsubr
          hintmask 00110000
          -151 159 -106 callgsubr
        </CharString>
        <CharString name="Z">
          51 callsubr
          hstem
          -80 callgsubr
          endchar
        </CharString>
        <CharString name="Zacute">
          51 callsubr
          82 90 callgsubr
          hintmask 11000000
          -80 callgsubr
          hintmask 00110000
          50 615 rmoveto
          -104 callsubr
        </CharString>
        <CharString name="Zcaron">
          51 callsubr
          hstemhm
          -80 callgsubr
          30 579 -76 callsubr
        </CharString>
        <CharString name="Zdotaccent">
          51 callsubr
          72 111 hstemhm
          hintmask 11000000
          -80 callgsubr
          hintmask 00100000
          -56 565 -94 callsubr
        </CharString>
        <CharString name="Zdotbelow">
          51 callsubr
          hstemhm
          -80 callgsubr
          -294 -390 -94 callsubr
        </CharString>
        <CharString name="Zeta">
          51 callsubr
          hstem
          -80 callgsubr
          endchar
        </CharString>
        <CharString name="a">
          -44 callgsubr
          hstem
          103 73 vstem
          -105 callgsubr
          endchar
        </CharString>
        <CharString name="aacute">
          -44 callgsubr
          21 callsubr
          103 73 hintmask 11001000
          -105 callgsubr
          hintmask 00110000
          153 361 -93 callgsubr
        </CharString>
        <CharString name="abreve">
          -44 callgsubr
          70 96 callgsubr
          hstemhm
          103 73 hintmask 11001000
          -105 callgsubr
          hintmask 00110000
          179 368 -103 callsubr
          endchar
        </CharString>
        <CharString name="abreveacute">
          74 callgsubr
          316 -41 callsubr
          160 vmoveto
          -104 callsubr
        </CharString>
        <CharString name="abrevedotbelow">
          -44 callgsubr
          70 96 callgsubr
          hstemhm
          103 73 vstemhm
          -105 callgsubr
          179 368 -103 callsubr
          -297 -807 -94 callsubr
        </CharString>
        <CharString name="abrevegrave">
          74 callgsubr
          133 -41 callsubr
          -26 58 rmoveto
          -2 -6 -13 -16 -12 -2 rrcurveto
          -4 -3 1 4 -5 hvcurveto
          -143 91 -17 10 2 11 2 9 rlinecurve
          21 7 21 16 20 hhcurveto
          13 8 -9 0 hvcurveto
          120 -114 2 -2 7 -7 -3 -7 rlinecurve
          endchar
        </CharString>
        <CharString name="abrevehookabove">
          74 callgsubr
          338 -41 callsubr
          -16 150 -107 callgsubr
        </CharString>
        <CharString name="abrevetilde">
          74 callgsubr
          173 41 26 41 hstemhm
          103 73 hintmask 11000100
          -105 callgsubr
          hintmask 00111000
          179 369 -103 callsubr
          51 148 -106 callgsubr
        </CharString>
        <CharString name="acaron">
          -44 callgsubr
          hstemhm
          103 73 vstemhm
          -105 callgsubr
          165 359 -68 callgsubr
        </CharString>
        <CharString name="acircumflex">
          -44 callgsubr
          hstemhm
          103 73 vstemhm
          -105 callgsubr
          132 230 -76 callgsubr
          endchar
        </CharString>
        <CharString name="acircumflexacute">
          -44 callgsubr
          377 -20 -54 callsubr
          131 231 -102 callgsubr
          36 246 rmoveto
          -104 callsubr
        </CharString>
        <CharString name="acircumflexdotbelow">
          -44 callgsubr
          hstemhm
          103 73 vstemhm
          -105 callgsubr
          132 230 -76 callgsubr
          -250 -669 -94 callsubr
        </CharString>
        <CharString name="acircumflexgrave">
          -44 callgsubr
          hstemhm
          103 73 vstemhm
          -105 callgsubr
          131 231 -79 callsubr
        </CharString>
        <CharString name="acircumflexhookabove">
          -44 callgsubr
          399 -20 -54 callsubr
          131 231 -102 callgsubr
          115 236 -107 callgsubr
        </CharString>
        <CharString name="acircumflextilde">
          -44 callgsubr
          234 41 26 41 hstemhm
          103 73 hintmask 11001000
          -105 callgsubr
          hintmask 00110000
          131 231 -102 callgsubr
          86 234 -106 callgsubr
        </CharString>
        <CharString name="acute">
          549 522 68 callsubr
          566 665 -93 callgsubr
        </CharString>
        <CharString name="acute.cap">
          107 callgsubr
          81 callsubr
          hstem
          576 617 rmoveto
          -104 callsubr
        </CharString>
        <CharString name="acute.dup">
          549 522 68 callsubr
          566 665 -93 callgsubr
        </CharString>
        <CharString name="acute.ts1">
          548 523 -21 194 66 callsubr
          576 666 rmoveto
          14 -9 17 -20 vhcurveto
          hintmask 11000000
          -6 -1 -22 -3 -21 -26 -16 -16 rlinecurve
          -82 -77 rlineto
          -15 -14 -32 -21 -17 vvcurveto
          -10 7 -10 11 7 6 5 4 6 vhcurveto
          130 94 rlineto
          25 17 31 16 28 vvcurveto
          endchar
        </CharString>
        <CharString name="adblgrave">
          -44 callgsubr
          78 callsubr
          103 73 hintmask 11001000
          -105 callgsubr
          hintmask 00110000
          120 216 -86 callsubr
        </CharString>
        <CharString name="adieresis">
          -44 callgsubr
          108 100 -54 callsubr
          -30 304 -52 callgsubr
        </CharString>
        <CharString name="adotbelow">
          -44 callgsubr
          hstemhm
          103 73 vstemhm
          -105 callgsubr
          -118 -439 -94 callsubr
        </CharString>
        <CharString name="ae">
          768 -12 callgsubr
          hstem
          97 78 546 44 vstem
          -59 callgsubr
          endchar
        </CharString>
        <CharString name="ae.dup">
          768 -12 callgsubr
          hstem
          97 78 546 44 vstem
          -59 callgsubr
          endchar
        </CharString>
        <CharString name="aeacute">
          768 -12 callgsubr
          21 callsubr
          97 78 546 44 hintmask 11100110
          -59 callgsubr
          hintmask 00011000
          228 283 -93 callgsubr
        </CharString>
        <CharString name="agrave">
          -44 callgsubr
          21 callsubr
          103 73 hintmask 11001000
          -105 callgsubr
          hintmask 00110000
          55 218 -74 callgsubr
        </CharString>
        <CharString name="ahookabove">
          -44 callgsubr
          76 105 callgsubr
          103 73 hintmask 11001000
          -105 callgsubr
          hintmask 00110000
          116 328 -107 callgsubr
        </CharString>
        <CharString name="amacron">
          -44 callgsubr
          140 36 -54 callsubr
          190 299 -84 callsubr
        </CharString>
        <CharString name="ampersand">
          823 -21 28 297 28 102 28 59 84 82 28 hstem
          132 80 204 38 65 38 185 39 vstem
          781 304 rmoveto
          65 -27 50 -34 47 vhcurveto
          103 75 25 103 17 vvcurveto
          24 -18 9 -17 -27 -22 -24 -25 -16 11 -14 19 -3 vhcurveto
          -39 -86 -62 -36 -42 -26 rrcurveto
          -63 -36 -69 -41 -71 vvcurveto
          -44 33 -30 41 37 14 33 15 19 -14 15 -21 -9 -25 -2 -31 -12 vhcurveto
          -4 7 -2 4 13 vvcurveto
          53 44 25 85 50 vhcurveto
          41 -52 15 -43 -47 vvcurveto
          -70 -52 -224 -278 -104 -96 46 111 42 20 74 30 58 vhcurveto
          -25 28 34 -9 27 hhcurveto
          60 43 51 43 28 -19 36 -51 -29 -38 -10 -24 -37 hvcurveto
          121 5 66 138 89 hhcurveto
          37 39 -24 -59 2 hvcurveto
          -40 -3 -10 -31 -15 vvcurveto
          -28 22 -6 13 53 0 65 12 67 -47 50 -69 -114 -110 -136 -124 -8 2 -33 11 -27 vhcurveto
          -63 -63 -34 -89 -55 vvcurveto
          -104 98 -97 180 299 72 232 93 vhcurveto
          -365 99 rmoveto
          -31 -22 -40 -42 -35 -21 27 18 -7 vhcurveto
          41 35 32 16 28 hhcurveto
          18 14 -9 -22 hvcurveto
          endchar
        </CharString>
        <CharString name="anglearc">
          823 -58 -21 658 -20 hstem
          859 477 rmoveto
          4 16 -14 11 -16 -5 -143 -49 rcurveline
          -7 43 -14 40 -20 37 rrcurveto
          6 -3 -6 3 -7 hhcurveto
          -13 -13 -10 -13 -3 hvcurveto
          -1 -5 0 -5 3 -4 18 -33 12 -37 7 -38 -478 -162 rcurveline
          -10 -4 -8 -8 -2 -10 -3 -10 4 -8 8 -4 397 -162 rcurveline
          -26 -38 -31 -37 -34 -33 -4 -4 -3 -5 -2 -5 rrcurveto
          -13 -3 8 -10 12 hhcurveto
          8 7 3 6 6 hvcurveto
          38 37 34 40 29 43 119 -49 rcurveline
          13 -5 19 11 4 16 3 10 -4 8 -8 4 -119 48 rcurveline
          29 50 21 53 14 54 13 54 5 53 -4 50 143 48 rcurveline
          10 4 8 8 3 10 rrcurveto
          -224 -227 rmoveto
          -13 -48 -19 -48 -25 -45 -344 141 rcurveline
          414 141 3 -45 -4 -48 -12 -48 rlinecurve
          endchar
        </CharString>
        <CharString name="angleleft">
          439 -228 -21 1000 -20 hstem
          536 728 rmoveto
          12 -8 11 -13 vhcurveto
          0 -4 0 -2 -1 vhcurveto
          -10 -2 -5 -8 -5 -8 -15 -25 rcurveline
          -257 -417 rlineto
          -7 -11 -13 -15 -14 -6 2 -6 -6 vvcurveto
          6 -45 43 -374 3 -29 rlineto
          -14 2 1 -19 20 hhcurveto
          19 5 14 14 9 -2 10 -1 8 hvcurveto
          -2 14 -16 134 -11 136 -19 133 rlinecurve
          -1 6 -1 6 6 vvcurveto
          4 vlineto
          5 12 9 11 6 11 243 396 rcurveline
          10 16 18 20 17 vvcurveto
          endchar
        </CharString>
        <CharString name="angleright">
          439 -228 -21 999 66 callsubr
          365 252 rmoveto
          20 -5 25 -3 22 vhcurveto
          -46 400 rlineto
          14 -2 -2 18 -19 hhcurveto
          hintmask 11000000
          0 -4 0 -2 -1 vhcurveto
          -13 -5 -16 -9 -8 2 -9 1 -8 hvcurveto
          1 -14 47 -404 rlineto
          1 -6 1 -7 -7 vvcurveto
          -5 vlineto
          -5 -12 -9 -11 -6 -11 -242 -394 rcurveline
          -11 -17 -18 -23 -15 vvcurveto
          -12 8 -11 14 vhcurveto
          1 hlineto
          20 2 8 25 10 14 258 420 rcurveline
          7 11 13 15 14 vvcurveto
          endchar
        </CharString>
        <CharString name="aogonek">
          549 43 callsubr
          hstem
          103 73 240 89 vstem
          -39 callsubr
          endchar
        </CharString>
        <CharString name="aogonekacute">
          549 43 callsubr
          21 callsubr
          103 73 240 89 hintmask 11100110
          -39 callsubr
          hintmask 00011000
          153 361 -93 callgsubr
        </CharString>
        <CharString name="aring">
          -44 callgsubr
          86 35 106 35 hstemhm
          103 73 149 84 callgsubr
          hintmask 11001010
          -105 callgsubr
          hintmask 00110110
          75 332 rmoveto
          -5 3 -69 -62 callgsubr
          endchar
        </CharString>
        <CharString name="aringacute">
          -44 callgsubr
          86 93 callgsubr
          hstemhm
          103 73 150 84 callgsubr
          hintmask 11000100
          -105 callgsubr
          hintmask 00111011
          76 332 -15 callgsubr
          66 215 rmoveto
          -104 callsubr
        </CharString>
        <CharString name="asciicircum">
          556 583 -21 hstem
          707 584 rmoveto
          -243 160 -323 -160 6 -22 301 123 242 -123 rlineto
          endchar
        </CharString>
        <CharString name="asciitilde">
          556 193 43 28 43 hstem
          627 290 -3 callsubr
        </CharString>
        <CharString name="asciitilde.low">
          556 0 43 28 43 hstem
          579 97 -3 callsubr
        </CharString>
        <CharString name="asterisk">
          549 340 -21 431 -20 hstem
          201 412 vstem
          567 448 rmoveto
          6 0 7 -17 9 vhcurveto
          -116 64 152 67 rlineto
          9 4 18 8 21 vvcurveto
          7 -4 15 -17 -3 -6 0 -6 -9 vhcurveto
          -147 -91 51 154 rlineto
          5 13 96 callsubr
          12 -9 8 -14 -21 -11 -17 -19 -3 vhcurveto
          -26 -154 -96 86 rlineto
          10 -11 -6 0 -4 hhcurveto
          -16 -19 -18 -17 -9 4 -6 12 -6 hvcurveto
          117 -65 -152 -68 rlineto
          -12 -6 -15 -6 -20 vvcurveto
          -15 11 -7 11 7 6 3 3 4 vhcurveto
          147 90 -52 -154 rlineto
          -1 -4 -3 -7 -5 vvcurveto
          -6 5 -14 18 23 9 19 17 3 vhcurveto
          26 154 96 -86 rlineto
          -10 11 6 0 4 hhcurveto
          15 20 16 19 hvcurveto
          endchar
        </CharString>
        <CharString name="asterisk.math">
          548 57 -21 430 -20 hstem
          495 165 rmoveto
          13 -9 4 -10 6 vhcurveto
          -27 15 -28 16 -29 19 -27 12 rlinecurve
          2 vlineto
          25 7 29 15 26 13 rrcurveto
          34 13 62 16 36 vvcurveto
          10 -7 10 -15 -14 -16 -13 -7 -11 vhcurveto
          -78 -48 -14 -9 -14 -9 -15 -8 rlinecurve
          44 132 rlineto
          4 10 7 14 12 vvcurveto
          12 -11 8 -11 -30 -5 -26 -24 -5 vhcurveto
          -17 -104 -2 -11 -2 -12 -1 -11 rlinecurve
          -10 7 -10 9 -9 9 -66 59 rcurveline
          6 -7 -6 5 -9 hhcurveto
          -18 -17 -20 -16 -13 9 -4 10 -6 hvcurveto
          27 -15 28 -16 29 -19 27 -12 rlinecurve
          -2 vlineto
          -25 -7 -29 -15 -26 -13 rrcurveto
          -34 -13 -62 -16 -36 vvcurveto
          -10 7 -10 15 14 16 13 7 11 vhcurveto
          78 48 14 9 14 9 15 8 rlinecurve
          -44 -132 rlineto
          -4 -10 -7 -14 -12 vvcurveto
          -12 11 -8 11 30 5 26 24 5 vhcurveto
          17 104 2 11 2 12 1 11 rlinecurve
          10 -7 10 -9 9 -9 66 -59 rcurveline
          -6 7 6 -5 9 hhcurveto
          18 17 20 16 hvcurveto
          endchar
        </CharString>
        <CharString name="at">
          823 -10 28 109 28 384 28 109 28 hstem
          157 38 98 67 440 37 vstem
          757 72 rmoveto
          12 -10 0 -18 -17 -2 0 -7 -15 vhcurveto
          -44 -104 -103 -15 -71 hhcurveto
          -147 -75 109 127 216 198 206 189 134 84 -103 -133 -38 -34 -247 -93 -6 -12 0 25 hvcurveto
          2 20 65 257 2 13 rlineto
          13 -11 0 -17 vhcurveto
          -24 hlineto
          46 -18 -43 38 -63 hhcurveto
          -126 -129 -136 -141 -91 59 -72 93 65 55 42 22 23 hvcurveto
          -42 4 36 -22 40 hhcurveto
          130 39 251 59 169 -114 98 -140 -214 -212 -221 -227 -136 83 -130 177 152 139 52 19 41 hvcurveto
          4 2 4 4 5 vvcurveto
          -113 353 rmoveto
          -38 -149 -8 -33 -26 -25 -26 -21 rlinecurve
          -24 -29 -36 -18 -34 hhcurveto
          -62 -25 65 57 123 97 139 92 76 21 -82 -19 0 -1 -10 -1 -3 hvcurveto
          endchar
        </CharString>
        <CharString name="atilde">
          -44 callgsubr
          104 41 26 41 hstemhm
          103 73 hintmask 11001000
          -105 callgsubr
          hintmask 00110000
          186 335 -106 callgsubr
        </CharString>
        <CharString name="b">
          494 -56 callgsubr
          209 45 hstem
          120 62 231 73 vstem
          486 77 callsubr
          -66 -46 -38 -27 -24 -28 vhcurveto
          69 275 rlineto
          -91 callsubr
          -98 -390 -1 callsubr
        </CharString>
        <CharString name="backslash">
          531 750 -20 hstem
          414 -227 rmoveto
          0 2 6 -2 12 vhcurveto
          -125 935 rlineto
          12 -2 -1 12 -16 hhcurveto
          -13 -13 -10 -13 -3 hvcurveto
          0 -2 -6 2 -12 vhcurveto
          126 -935 rlineto
          -12 2 1 -12 16 hhcurveto
          13 12 10 13 3 hvcurveto
          endchar
        </CharString>
        <CharString name="baht">
          755 0 33 308 28 281 33 hstem
          721 217 rmoveto
          74 -61 56 -88 10 vhcurveto
          103 20 101 75 93 vvcurveto
          79 -72 59 -110 vhcurveto
          -38 hlineto
          8 32 85 callgsubr
          -8 -32 rlineto
          -254 -4 callsubr
          247 hlineto
          -8 -32 86 callsubr
          8 32 rlineto
          66 hlineto
          147 123 114 103 hvcurveto
          -31 330 rmoveto
          -81 -85 -97 -122 vhcurveto
          -5 hlineto
          70 281 rlineto
          32 hlineto
          108 2 -91 -12 hvcurveto
          -244 -178 rmoveto
          -110 hlineto
          61 246 rlineto
          35 9 7 0 31 hhcurveto
          72 hlineto
          116 -424 rmoveto
          -99 -92 -94 -112 vhcurveto
          -34 hlineto
          77 308 rlineto
          47 hlineto
          109 5 -100 -15 hvcurveto
          -270 -193 rmoveto
          -79 hlineto
          -9 -10 0 2 -9 hvcurveto
          1 11 0 3 3 13 70 279 rcurveline
          110 hlineto
          endchar
        </CharString>
        <CharString name="bar">
          295 750 -20 hstem
          117 -214 rmoveto
          3 callgsubr
          endchar
        </CharString>
        <CharString name="bigcircle">
          -58 callgsubr
          endchar
        </CharString>
        <CharString name="blanksymbol">
          494 -56 callgsubr
          209 45 hstem
          120 62 231 73 vstem
          486 77 callsubr
          -66 -46 -38 -27 -24 -28 vhcurveto
          42 169 97 76 3 3 3 71 callgsubr
          -68 -54 15 61 rlineto
          -91 callsubr
          -19 -77 -99 -78 -3 -2 -3 -4 -1 -5 87 callgsubr
          70 55 -67 -268 -1 callsubr
        </CharString>
        <CharString name="braceleft">
          531 -250 28 hstem
          396 -236 rmoveto
          13 3 -9 1 -5 hhcurveto
          -82 5 -30 37 -2 41 rrcurveto
          9 0 2 9 36 vhcurveto
          38 150 23 95 4 14 -18 30 rlinecurve
          -7 11 -14 23 -55 19 124 36 15 62 12 48 38 150 rcurveline
          23 93 4 16 33 26 36 27 39 12 41 2 12 1 8 0 3 13 rrcurveto
          14 4 -10 0 -13 hhcurveto
          -108 -108 -49 -77 -20 hvcurveto
          -58 -234 -8 -29 -8 -32 -44 -30 rlinecurve
          -26 -18 -35 -14 -44 -3 -12 -1 -8 0 -3 -13 rrcurveto
          -13 -4 10 -1 5 hhcurveto
          98 -6 15 -54 1 -25 rrcurveto
          -12 -2 -6 -7 -31 vhcurveto
          -51 -204 -8 -30 -11 -44 46 -36 rlinecurve
          -34 45 73 -4 22 hhcurveto
          13 10 0 14 3 hvcurveto
          endchar
        </CharString>
        <CharString name="braceright">
          531 722 28 hstem
          518 250 rmoveto
          13 3 -10 1 -5 hhcurveto
          -110 6 -7 71 6 27 59 234 rcurveline
          7 31 11 43 -47 36 rrcurveto
          31 -39 -67 7 -32 hhcurveto
          -13 -11 0 -14 -4 hvcurveto
          -13 -3 10 -1 5 hhcurveto
          68 -4 44 -27 2 -52 1 -9 -1 -2 -9 -36 -37 -150 rcurveline
          -8 -32 -13 -51 -1 -14 1 -49 39 -30 49 -16 -124 -34 -17 -67 -11 -45 -37 -150 rcurveline
          -8 -32 -13 -51 -6 -11 -31 -55 -65 -24 -54 -3 -13 -1 -8 0 -3 -13 rrcurveto
          -14 -3 11 0 13 hhcurveto
          106 109 48 78 20 hvcurveto
          59 234 7 29 8 32 44 30 rlinecurve
          44 30 44 4 16 1 12 1 8 0 4 13 rrcurveto
          endchar
        </CharString>
        <CharString name="bracketleft">
          329 -250 46 908 46 hstem
          463 736 rmoveto
          14 -13 0 -15 vhcurveto
          -83 hlineto
          -23 -2 0 -20 -5 hvcurveto
          -238 -951 rlineto
          -1 -4 -2 -7 -4 vvcurveto
          -14 13 0 15 vhcurveto
          83 hlineto
          15 6 0 7 4 hvcurveto
          4 5 3 20 0 vvcurveto
          14 -13 0 -15 vhcurveto
          -60 95 callgsubr
          68 hlineto
          17 5 0 6 4 hvcurveto
          3 5 4 17 4 vvcurveto
          endchar
        </CharString>
        <CharString name="bracketright">
          329 -250 46 908 46 hstem
          368 721 rmoveto
          -23 callsubr
          14 -13 0 -15 vhcurveto
          -83 hlineto
          -15 -6 0 -7 -4 hvcurveto
          -4 -5 -3 -20 0 vvcurveto
          -14 13 0 15 vhcurveto
          61 hlineto
          -227 -908 rlineto
          -68 hlineto
          -17 -5 0 -6 -4 hvcurveto
          -3 -5 -4 -17 -4 vvcurveto
          -14 13 0 15 vhcurveto
          83 hlineto
          23 2 0 20 5 hvcurveto
          endchar
        </CharString>
        <CharString name="breve">
          549 511 105 callsubr
          592 672 -103 callsubr
          endchar
        </CharString>
        <CharString name="breve.cap">
          549 491 105 callsubr
          587 652 -103 callsubr
          endchar
        </CharString>
        <CharString name="breve.ts1">
          658 519 42 133 113 callsubr
          288 29 hintmask 10110000
          702 671 rmoveto
          1 3 0 3 3 vvcurveto
          7 -3 7 -9 1 vhcurveto
          -1 hlineto
          -13 -2 -15 -10 -4 hvcurveto
          -74 -28 -98 -35 -79 hhcurveto
          -52 -97 16 78 hvcurveto
          7 vlineto
          1 5 2 6 5 vvcurveto
          hintmask 11010000
          9 -6 7 -8 vhcurveto
          -3 hlineto
          -14 -3 -1 -26 -11 vvcurveto
          -5 vlineto
          -91 94 -39 78 95 118 51 101 29 vhcurveto
          endchar
        </CharString>
        <CharString name="brokenbar">
          295 750 -20 hstem
          349 714 rmoveto
          14 3 6 22 -23 hhcurveto
          -23 -6 -22 -14 -3 hvcurveto
          -93 -371 rlineto
          -11 -3 10 -5 12 hhcurveto
          11 13 5 11 3 hvcurveto
          -139 -557 rmoveto
          92 371 rlineto
          11 3 -10 5 -12 hhcurveto
          -11 -13 -5 -11 -3 hvcurveto
          -92 -371 rlineto
          14 callgsubr
          endchar
        </CharString>
        <CharString name="bullet">
          823 72 304 hstem
          53 callsubr
          endchar
        </CharString>
        <CharString name="c">
          494 -10 28 395 28 hstem
          115 75 220 87 vstem
          -60 callgsubr
          -102 66 -67 96 144 81 96 14 vhcurveto
          endchar
        </CharString>
        <CharString name="cacute">
          494 83 callsubr
          220 87 hintmask 11001100
          -60 callgsubr
          -102 66 -67 96 144 81 96 14 vhcurveto
          hintmask 00110000
          62 565 -93 callgsubr
        </CharString>
        <CharString name="caron">
          549 578 663 -68 callgsubr
        </CharString>
        <CharString name="caron.cap">
          549 556 581 -76 callsubr
        </CharString>
        <CharString name="caron.ts1">
          658 557 -21 162 66 callsubr
          691 677 rmoveto
          11 -8 11 -9 -5 -4 -3 -2 -5 vhcurveto
          -33 -18 -140 -75 rlineto
          -3 -4 -5 -3 -5 hhcurveto
          -4 1 -5 3 -3 3 -21 15 rcurveline
          -34 26 -35 24 -34 26 rrcurveto
          3 -4 -4 3 -5 hhcurveto
          hintmask 11000000
          -4 -1 rlineto
          -9 -2 -8 -10 -9 vvcurveto
          -10 10 -7 7 -5 vhcurveto
          104 -89 rlineto
          -11 12 17 -19 12 hhcurveto
          2 hlineto
          7 1 7 5 6 4 176 105 rcurveline
          10 6 18 6 14 vvcurveto
          endchar
        </CharString>
        <CharString name="ccaron">
          494 -56 callgsubr
          hstemhm
          115 75 220 87 vstemhm
          -60 callgsubr
          -102 66 -67 96 144 81 96 14 vhcurveto
          hintmask 00010000
          74 563 -68 callgsubr
        </CharString>
        <CharString name="ccedilla">
          494 -10 28 395 28 hstem
          115 75 220 87 vstem
          -60 callgsubr
          -77 38 -57 60 -23 vhcurveto
          -5 -19 -9 -34 28 callgsubr
          39 -41 15 -25 4 hvcurveto
          5 19 2 10 1 7 rrcurveto
          143 1 80 95 14 vvcurveto
          endchar
        </CharString>
        <CharString name="ccircumflex">
          494 -56 callgsubr
          hstemhm
          115 75 220 87 vstemhm
          -60 callgsubr
          -102 66 -67 96 144 81 96 14 vhcurveto
          41 434 -76 callgsubr
          endchar
        </CharString>
        <CharString name="cdotaccent">
          494 -56 callgsubr
          102 111 hstemhm
          115 75 220 87 hintmask 11011000
          -60 callgsubr
          -102 66 -67 96 144 81 96 14 vhcurveto
          hintmask 00100000
          -24 508 -94 callsubr
        </CharString>
        <CharString name="cedilla">
          -3 callgsubr
        </CharString>
        <CharString name="cedilla.dup">
          -3 callgsubr
        </CharString>
        <CharString name="cent">
          36 callgsubr
          -50 -61 -70 -26 -54 -3 99 394 rcurveline
          17 -2 31 -7 14 -27 rrcurveto
          -43 -9 0 -37 -3 vvcurveto
          -16 11 -17 25 25 26 20 40 46 -39 34 -60 5 vhcurveto
          5 23 rlineto
          8 2 -5 8 -9 hhcurveto
          -9 -9 -8 -8 -2 hvcurveto
          -5 -23 rlineto
          -126 -9 -125 -130 -142 vvcurveto
          -93 55 -64 83 -11 vhcurveto
          -5 -23 rlineto
          -9 -3 6 -7 9 hhcurveto
          8 9 7 9 3 hvcurveto
          5 22 rlineto
          139 4 78 92 14 vvcurveto
          -242 -81 rmoveto
          -43 8 -27 37 60 vvcurveto
          49 23 90 25 46 vhcurveto
          37 68 48 26 35 8 rrcurveto
          endchar
        </CharString>
        <CharString name="cent.oldstyle">
          36 callgsubr
          -66 -54 -79 -25 -55 hhcurveto
          -16 -14 3 7 -13 hvcurveto
          184 378 13 -5 13 -9 8 -15 rlinecurve
          -43 -9 0 -37 -3 vvcurveto
          -16 11 -17 25 25 26 20 40 36 -25 29 -40 13 vhcurveto
          13 26 rlineto
          10 4 -5 10 -10 hhcurveto
          -8 -7 -6 -7 -4 hvcurveto
          -13 -26 rlineto
          1 -7 -7 0 -8 hhcurveto
          -130 -135 -135 -147 -69 30 -52 49 -28 hvcurveto
          -19 -38 rlineto
          -10 -5 5 -10 10 hhcurveto
          8 8 5 7 3 hvcurveto
          17 35 rlineto
          -6 17 19 -3 20 hhcurveto
          144 81 96 14 hvcurveto
          -113 313 rmoveto
          -177 -365 rlineto
          -14 18 -8 26 32 vvcurveto
          49 23 90 25 46 vhcurveto
          84 46 62 20 34 hhcurveto
          endchar
        </CharString>
        <CharString name="centigrade">
          987 -20 33 452 46 127 46 -12 33 hstemhm
          375 89 hintmask 10011000
          1012 436 rmoveto
          53 212 rlineto
          3 13 8 22 10 vvcurveto
          6 -7 6 -6 -15 -21 -33 -15 -13 vhcurveto
          -11 -13 -14 -13 -9 -15 rrcurveto
          64 -40 -60 25 -66 hhcurveto
          -153 -131 -105 -97 -70 hvcurveto
          -51 -70 -34 -90 -89 vvcurveto
          -131 82 -143 184 vhcurveto
          14 hlineto
          139 8 131 111 35 130 rrcurveto
          2 4 1 4 4 vvcurveto
          3 vlineto
          8 -1 -8 4 -9 hhcurveto
          -20 1 -13 -15 -5 hvcurveto
          -113 -45 -97 -102 -127 hhcurveto
          -111 -77 83 123 191 132 262 228 112 45 -102 -88 hvcurveto
          -17 -4 -16 -17 vvcurveto
          -9 5 -6 11 16 0 9 10 3 vhcurveto
          -620 159 rmoveto
          hintmask 01100000
          46 -32 43 -60 vhcurveto
          -9 hlineto
          -64 -7 -59 -56 -66 vvcurveto
          -46 31 -44 61 vhcurveto
          8 hlineto
          64 7 60 56 67 vvcurveto
          -47 -7 rmoveto
          -41 -6 -38 -36 -42 hhcurveto
          -25 -20 13 36 hvcurveto
          40 6 39 38 41 hhcurveto
          20 26 -11 -31 -3 -1 -5 0 hvcurveto
          endchar
        </CharString>
        <CharString name="circumflex">
          549 545 534 -76 callgsubr
          endchar
        </CharString>
        <CharString name="circumflex.cap">
          549 535 500 -67 callgsubr
        </CharString>
        <CharString name="circumflex.dup">
          549 545 534 -76 callgsubr
          endchar
        </CharString>
        <CharString name="colon">
          329 0 111 209 111 hstemhm
          121 113 -33 113 hintmask 11010000
          314 386 -5 callgsubr
          -80 -320 rmoveto
          30 -23 15 -23 vhcurveto
          hintmask 10100000
          -31 -36 -28 -38 -30 22 -15 24 32 35 29 37 hvcurveto
          endchar
        </CharString>
        <CharString name="colonmonetary">
          768 156 88 vstem
          794 437 rmoveto
          60 241 rlineto
          1 3 2 8 3 vvcurveto
          5 -4 7 -10 -4 -5 0 -11 -9 vhcurveto
          -65 -76 -39 58 -51 24 -56 4 rlinecurve
          3 12 85 callgsubr
          -3 -11 rlineto
          -213 -9 -213 -215 -228 vvcurveto
          -161 107 -103 138 -8 vhcurveto
          -3 -12 86 callsubr
          3 11 111 5 103 71 57 90 rlinecurve
          30 48 10 42 5 vvcurveto
          13 -10 0 -9 -7 -9 0 -10 -2 vhcurveto
          -50 -163 -128 -63 -88 -5 165 659 rcurveline
          102 -2 49 -85 -102 -26 -4 -23 -3 vvcurveto
          -13 13 0 6 13 4 0 20 5 vhcurveto
          -384 -424 rmoveto
          -86 9 -80 62 134 vvcurveto
          62 24 148 84 108 vhcurveto
          61 77 83 47 78 9 rrcurveto
          endchar
        </CharString>
        <CharString name="comma">
          329 -173 -21 194 111 hstem
          120 117 vstem
          237 48 rmoveto
          41 -17 22 -32 -43 -25 -38 -29 -20 12 -24 35 22 7 5 6 8 vhcurveto
          -24 -100 -67 -56 -26 -22 rrcurveto
          -6 -4 -3 -3 -5 vvcurveto
          -7 6 -8 8 18 127 119 123 vhcurveto
          endchar
        </CharString>
        <CharString name="copyleft">
          -58 callgsubr
          -130 -50 rmoveto
          129 64 -62 122 -120 hhcurveto
          -35 -39 -13 -36 -42 hvcurveto
          -15 42 rlineto
          7 -1 -3 0 -2 hhcurveto
          -6 -4 -4 -3 -2 hvcurveto
          -2 -1 -4 -1 -2 vhcurveto
          -33 -133 rlineto
          -11 -3 2 0 7 hhcurveto
          4 7 0 7 4 hvcurveto
          0 5 14 7 15 vhcurveto
          57 28 52 47 58 hhcurveto
          47 40 -27 -48 14 hvcurveto
          17 -59 -28 -82 -17 -35 rrcurveto
          -81 -41 -69 -33 -51 hhcurveto
          -49 -58 34 94 18 hvcurveto
          6 2 -5 0 -4 hhcurveto
          -5 -6 0 -8 -3 hvcurveto
          -2 -2 -6 -24 4 -26 rrcurveto
          -52 7 40 -40 64 hhcurveto
          82 93 57 94 47 hvcurveto
          endchar
        </CharString>
        <CharString name="copyright">
          -58 callgsubr
          -132 53 rmoveto
          33 133 rlineto
          1 2 1 4 2 vvcurveto
          3 -2 3 -6 -2 -3 0 -6 -5 vhcurveto
          -36 -42 rlineto
          36 -24 -32 12 -35 hhcurveto
          -121 -123 -121 -129 -94 65 -57 82 64 60 40 52 33 hvcurveto
          17 26 5 24 2 vvcurveto
          8 -5 0 -5 -4 -5 0 -6 -1 vhcurveto
          -94 -29 -75 -34 -49 hhcurveto
          -51 -53 33 81 35 14 82 46 59 hvcurveto
          48 38 53 27 48 hhcurveto
          58 27 -47 -57 -15 -2 -14 0 hvcurveto
          -8 7 0 4 7 2 0 12 3 vhcurveto
          endchar
        </CharString>
        <CharString name="copyright.alt">
          646 -107 46 553 46 hstem
          646 215 rmoveto
          198 -125 125 -198 -198 -125 -125 -198 -198 125 -124 198 198 125 124 198 vhcurveto
          -46 hmoveto
          -170 -107 -106 -170 -170 -107 106 170 170 107 107 170 170 107 -107 -170 vhcurveto
          -114 -64 rmoveto
          8 -7 0 -5 -5 -5 0 -6 -2 vhcurveto
          -106 -32 -86 -39 -55 hhcurveto
          -59 -59 37 92 39 15 94 53 68 hvcurveto
          54 42 62 31 53 hhcurveto
          66 32 -54 -65 hvcurveto
          -17 -3 -14 -2 vvcurveto
          -8 8 0 4 8 3 0 12 3 vhcurveto
          38 152 rlineto
          1 2 1 5 2 vvcurveto
          3 -3 5 -6 -3 -3 0 -7 -5 vhcurveto
          -41 -48 rlineto
          41 -27 -38 14 -39 hhcurveto
          -137 -140 -139 -146 -107 74 -65 93 73 68 46 58 37 hvcurveto
          19 31 7 26 3 vvcurveto
          endchar
        </CharString>
        <CharString name="currency">
          823 39 46 330 46 hstem
          653 22 rmoveto
          16 13 -9 11 -5 8 -49 65 rcurveline
          38 36 28 45 13 50 12 50 -6 46 -20 36 78 63 rcurveline
          12 9 19 16 -17 12 -17 12 -20 -15 -11 -10 -69 -54 rcurveline
          28 -28 -42 18 -49 hhcurveto
          -50 -50 -18 -28 -43 hvcurveto
          -42 55 -7 10 -1 1 -3 2 rlinecurve
          -9 7 -17 -2 -11 -9 -16 -13 9 -12 5 -7 50 -66 rcurveline
          -38 -36 -28 -45 -13 -50 -12 -50 6 -45 19 -36 -79 -64 rcurveline
          -12 -9 -19 -16 17 -12 17 -12 20 15 11 10 70 55 rcurveline
          -29 29 41 -18 50 hhcurveto
          50 50 18 28 43 hvcurveto
          41 -54 7 -11 0 0 3 -2 rlinecurve
          10 -7 17 2 11 9 rrcurveto
          -14 228 rmoveto
          -91 -23 -92 -74 -91 hhcurveto
          -91 -55 74 91 22 hvcurveto
          91 23 92 74 91 hhcurveto
          91 55 -74 -91 -22 hvcurveto
          endchar
        </CharString>
        <CharString name="cwm">
          0 endchar
        </CharString>
        <CharString name="cwmascender">
          0 endchar
        </CharString>
        <CharString name="cwmcapital">
          0 endchar
        </CharString>
        <CharString name="d">
          109 callgsubr
          hstem
          113 73 vstem
          -73 callgsubr
          endchar
        </CharString>
        <CharString name="dagger">
          472 393 75 236 -20 hstem
          520 430 58 callsubr
          5 17 6 23 26 60 10 24 23 58 9 34 rrcurveto
          8 2 9 37 -37 hhcurveto
          -38 -9 -36 -9 -2 hvcurveto
          -8 -33 -5 -50 -3 -31 -5 -66 -4 -14 -4 -22 26 callsubr
          -5 -16 -6 -17 -17 -36 -32 -70 -2 -7 -13 -53 -30 -120 -33 -163 -19 -129 rrcurveto
          -15 -3 -1 -7 14 hhcurveto
          7 8 1 12 5 hvcurveto
          5 14 72 209 50 198 12 49 3 11 2 62 2 45 2 10 4 22 58 callgsubr
        </CharString>
        <CharString name="daggerdbl">
          472 -15 75 380 74 190 -20 hstem
          531 477 rmoveto
          20 5 -10 17 -23 hhcurveto
          -24 -27 -6 -8 -28 hvcurveto
          -30 -7 -6 -1 -17 -2 6 20 3 11 20 41 12 29 19 42 7 28 rrcurveto
          43 11 -33 0 -4 hhcurveto
          -12 -27 -4 -39 -10 hvcurveto
          -7 -29 -2 -40 -2 -35 -1 -36 -2 -12 -3 -19 -16 2 -7 1 -25 7 rrcurveto
          9 -29 -20 5 -23 hhcurveto
          -23 -20 -17 -20 -5 hvcurveto
          -16 -4 2 -21 35 hhcurveto
          11 13 0 14 51 hvcurveto
          28 7 9 1 16 2 -6 -20 -4 -11 -19 -41 -12 -29 -20 -42 -7 -28 rrcurveto
          -43 -10 33 0 4 hhcurveto
          12 27 4 39 9 hvcurveto
          8 29 2 40 1 35 1 36 2 12 4 19 17 -2 5 -1 26 -7 rrcurveto
          -13 40 13 -1 15 hhcurveto
          32 15 18 19 4 hvcurveto
          -113 -455 58 callsubr
          6 21 4 10 19 41 14 31 18 41 7 27 rrcurveto
          43 10 -33 0 -4 hhcurveto
          -12 -27 -4 -39 -9 hvcurveto
          -8 -29 -1 -42 -2 -33 -1 -36 -2 -12 -4 -19 26 callsubr
          -7 -21 -3 -10 -19 -41 -14 -31 -18 -41 -7 -27 rrcurveto
          -43 -11 33 0 4 hhcurveto
          12 27 4 39 10 hvcurveto
          7 29 2 42 2 33 1 36 2 12 4 19 58 callgsubr
        </CharString>
        <CharString name="dblbracketleft">
          453 -249 46 908 46 hstem
          587 737 rmoveto
          10 -11 4 -8 vhcurveto
          -226 hlineto
          -15 -2 -10 -12 -4 hvcurveto
          -228 -915 rlineto
          -5 -15 -7 -22 -12 vvcurveto
          -10 10 -4 8 vhcurveto
          226 hlineto
          17 6 17 15 8 -6 7 -13 hvcurveto
          -5 -5 -1 -5 hhcurveto
          -55 95 callgsubr
          61 hlineto
          5 5 -1 6 hhcurveto
          18 7 17 16 hvcurveto
          -375 -940 rmoveto
          -76 95 callgsubr
          76 hlineto
          -219 -879 rlineto
          endchar
        </CharString>
        <CharString name="dblbracketright">
          453 -249 46 908 46 hstem
          255 -227 rmoveto
          228 915 rlineto
          5 15 7 22 12 vvcurveto
          9 -10 5 -8 vhcurveto
          -225 hlineto
          -17 -6 -17 -15 -8 6 -7 13 hvcurveto
          5 5 1 5 hhcurveto
          55 hlineto
          -227 -908 rlineto
          -60 hlineto
          -5 -5 1 -6 hhcurveto
          -18 -7 -17 -16 -9 8 -5 10 hvcurveto
          226 hlineto
          15 2 10 12 4 hvcurveto
          -41 24 rmoveto
          -76 95 callgsubr
          77 hlineto
          -214 -854 rlineto
          endchar
        </CharString>
        <CharString name="dblgrave.ts1">
          548 524 -21 194 -20 hstem
          367 523 rmoveto
          13 callsubr
          164 hmoveto
          13 callsubr
          endchar
        </CharString>
        <CharString name="dblverticalbar">
          433 750 -20 hstem
          117 -214 rmoveto
          3 callgsubr
          138 hmoveto
          3 callgsubr
          endchar
        </CharString>
        <CharString name="dcaron">
          -44 callgsubr
          45 -21 146 83 -44 45 hstemhm
          113 73 hintmask 11001100
          -73 callgsubr
          282 343 rmoveto
          hintmask 00110000
          -93 callsubr
        </CharString>
        <CharString name="dcroat">
          -44 callgsubr
          90 32 87 45 hstem
          113 73 vstem
          575 143 rmoveto
          -88 callsubr
          6 0 11 3 12 hvcurveto
          110 440 rlineto
          51 hlineto
          24 callgsubr
          8 2 -5 8 -9 hhcurveto
          -51 hlineto
          25 102 rlineto
          -91 callsubr
          -13 -50 rlineto
          -128 85 callsubr
          128 hlineto
          -36 -146 rlineto
          35 -21 -29 21 -42 hhcurveto
          -118 -121 -148 -143 -96 57 -64 75 59 49 44 24 21 hvcurveto
          -37 9 33 -31 48 hhcurveto
          36 24 22 31 17 hvcurveto
          21 40 13 60 0 vvcurveto
          -194 -10 rmoveto
          -35 -8 -66 -80 -59 hhcurveto
          -47 -15 51 40 47 29 118 25 46 hvcurveto
          73 40 44 20 28 hhcurveto
          63 11 -85 -10 hvcurveto
          -3 -14 rlineto
          endchar
        </CharString>
        <CharString name="ddotbelow">
          549 -10 99 callsubr
          vstemhm
          -73 callgsubr
          -128 -439 -94 callsubr
        </CharString>
        <CharString name="degree">
          411 409 46 182 46 hstem
          479 546 rmoveto
          76 19 -46 61 -75 hhcurveto
          -76 -77 -61 -76 -19 hvcurveto
          -76 -19 46 -61 76 hhcurveto
          76 76 61 76 19 hvcurveto
          -46 hmoveto
          -50 -12 -51 -41 -51 hhcurveto
          -50 -30 41 50 12 hvcurveto
          51 13 51 40 50 hhcurveto
          50 31 -40 -51 -13 hvcurveto
          endchar
        </CharString>
        <CharString name="diameter">
          823 -58 46 524 46 hstem
          878 556 rmoveto
          13 4 -8 10 -13 hhcurveto
          -6 -7 -3 -4 -5 hvcurveto
          -110 -88 rlineto
          46 -43 -63 28 -76 hhcurveto
          -171 -172 -138 -170 -42 hvcurveto
          -20 -77 11 -70 33 -54 -112 -89 rcurveline
          -5 -4 -4 -6 -1 -6 rrcurveto
          -13 -4 8 -10 13 hhcurveto
          6 7 3 4 5 hvcurveto
          111 89 rlineto
          -47 42 64 -28 77 hhcurveto
          170 172 138 170 43 hvcurveto
          19 77 -11 70 -33 54 111 89 rcurveline
          5 4 4 6 1 6 rrcurveto
          -142 -306 rmoveto
          -145 -37 -146 -117 -145 hhcurveto
          -64 -53 23 38 -36 hvcurveto
          461 370 27 -46 9 -59 -16 -64 rlinecurve
          -44 201 rmoveto
          -462 -369 -26 45 -8 59 16 64 rlinecurve
          145 36 146 117 145 hhcurveto
          64 53 -23 -38 36 hvcurveto
          endchar
        </CharString>
        <CharString name="died">
          548 -4 -21 368 39 221 -20 hstem
          598 372 rmoveto
          9 -7 6 -9 -12 -12 -1 -1 -12 vhcurveto
          -3 -51 -50 0 -51 hhcurveto
          46 160 12 36 rlineto
          1 3 1 4 4 vvcurveto
          11 -9 3 -8 vhcurveto
          -33 hlineto
          -27 0 -59 -26 -5 hvcurveto
          -5 -30 -7 -29 -6 -30 -4 -16 -5 -15 -2 -16 rrcurveto
          -55 -55 5 -55 hhcurveto
          -4 hlineto
          -14 -2 -4 -24 -8 vvcurveto
          -12 9 -3 8 vhcurveto
          5 5 1 4 hhcurveto
          16 hlineto
          4 30 32 0 31 hhcurveto
          37 hlineto
          -4 -10 -2 -11 -3 -11 -25 -103 -31 -104 -30 -103 rrcurveto
          -1 -4 -1 -4 -4 vvcurveto
          -12 11 -2 11 vhcurveto
          28 hlineto
          14 4 6 15 3 hvcurveto
          5 24 53 242 6 27 8 27 5 27 rlinecurve
          132 -2 rlineto
          -1 20 20 -2 20 hhcurveto
          4 hlineto
          13 2 5 22 10 vvcurveto
          endchar
        </CharString>
        <CharString name="dieresis">
          549 549 100 hstem
          -34 callsubr
          endchar
        </CharString>
        <CharString name="dieresis.cap">
          549 481 100 hstem
          -8 callsubr
          endchar
        </CharString>
        <CharString name="dieresis.dup">
          549 549 100 hstem
          -34 callsubr
          endchar
        </CharString>
        <CharString name="dieresis.ts1">
          548 568 104 hstemhm
          279 106 0 85 hintmask 10100000
          577 632 rmoveto
          24 -3 -18 16 -23 -3 -2 -1 -3 hhcurveto
          -27 -3 -28 -26 -30 vvcurveto
          -25 20 -19 25 vhcurveto
          6 hlineto
          31 5 25 27 32 vvcurveto
          -192 -3 rmoveto
          27 -20 16 -23 vhcurveto
          -3 -2 -1 -3 hhcurveto
          hintmask 11000000
          -28 -3 -27 -26 -30 vvcurveto
          -24 18 -20 25 33 30 28 33 vhcurveto
          endchar
        </CharString>
        <CharString name="discount">
          548 16 128 -122 -21 749 113 callsubr
          285 132 -100 131 hintmask 00010000
          645 728 rmoveto
          12 -8 11 -13 vhcurveto
          hintmask 01101000
          -6 -1 -9 -2 -6 -7 -5 -7 rlinecurve
          -16 -23 -456 -627 rlineto
          -13 -18 -24 -25 -16 vvcurveto
          -12 8 -12 14 11 7 9 8 6 vhcurveto
          16 22 410 564 53 73 rlineto
          12 15 19 19 17 vvcurveto
          -228 -48 rmoveto
          -36 -35 -31 -33 -5 vhcurveto
          -6 hlineto
          -31 -27 21 35 37 34 30 34 6 hvcurveto
          8 hlineto
          32 24 -24 -33 hvcurveto
          31 -589 rmoveto
          hintmask 10000100
          -40 -35 -34 -39 -1 vhcurveto
          -5 hlineto
          -34 -18 28 27 40 37 32 37 1 hvcurveto
          3 hlineto
          28 26 -21 -32 hvcurveto
          endchar
        </CharString>
        <CharString name="divide">
          823 25 111 91 46 90 111 hstem
          802 250 12 callgsubr
          -230 179 -5 callgsubr
          -85 -338 -5 callgsubr
          endchar
        </CharString>
        <CharString name="divorced">
          548 -83 -21 140 49 332 49 140 113 callsubr
          -107 49 272 41 161 41 272 49 hintmask 0110111110000000
          255 295 rmoveto
          13 vlineto
          66 -25 92 -106 vhcurveto
          -10 hlineto
          -124 -13 -97 -138 -123 vvcurveto
          -73 38 -83 96 vhcurveto
          10 hlineto
          122 10 92 142 4 107 rrcurveto
          523 16 rmoveto
          75 -41 80 -95 vhcurveto
          -10 hlineto
          -116 -12 -95 -135 -5 -111 rrcurveto
          -14 vlineto
          -68 28 -90 102 vhcurveto
          10 hlineto
          126 12 96 142 121 vvcurveto
          -326 267 rmoveto
          2 4 1 5 4 vvcurveto
          3 vlineto
          11 -2 -12 2 -9 hhcurveto
          hintmask 1111011110000000
          -6 -6 -1 -5 hhcurveto
          -10 44 callsubr
          -14 -4 1 -24 -3 -14 -41 -215 -57 -214 -63 -210 rrcurveto
          -2 -4 -1 -5 -4 vvcurveto
          -3 vlineto
          -10 2 9 -2 9 hhcurveto
          24 hlineto
          30 -2 20 22 3 hvcurveto
          43 205 49 204 60 201 rrcurveto
          -230 -252 rmoveto
          -95 -9 -65 -116 -109 hhcurveto
          -40 -48 26 77 hvcurveto
          11 vlineto
          94 8 61 124 111 hhcurveto
          48 44 -36 -66 -6 0 -7 -1 -6 hvcurveto
          515 4 rmoveto
          -93 -9 -60 -122 -111 hhcurveto
          -56 -35 44 62 hvcurveto
          12 vlineto
          101 9 69 113 105 hhcurveto
          43 46 -31 -70 -5 0 -6 -1 -5 hvcurveto
          endchar
        </CharString>
        <CharString name="dlinebelow">
          549 -162 36 116 99 callsubr
          hintmask 01111000
          -73 callgsubr
          hintmask 10000000
          -6 -444 -84 callsubr
        </CharString>
        <CharString name="dollar">
          531 -35 -21 48 32 113 94 246 94 179 -20 hstem
          525 228 rmoveto
          2 30 -1 48 -37 44 -31 36 -38 9 -37 9 67 267 rcurveline
          53 -3 27 -18 7 -4 rrcurveto
          37 -25 2 -38 -13 vvcurveto
          1 -2 -2 0 -7 hhcurveto
          -30 -25 -24 -29 -3 hvcurveto
          -35 -3 30 -6 12 hhcurveto
          55 5 62 17 1 hvcurveto
          8 97 -68 46 -89 4 11 47 rcurveline
          -33 hlineto
          -7 -30 -4 -15 -1 -1 -12 -2 rlinecurve
          -136 -19 -86 -106 -8 -93 -3 -38 10 -41 30 -33 31 -34 26 -7 52 -13 -73 -295 rcurveline
          -61 3 -66 28 1 84 rrcurveto
          -1 3 2 0 8 hhcurveto
          31 24 24 29 3 hvcurveto
          32 2 -26 9 -15 hhcurveto
          -56 -5 -65 -19 -2 hvcurveto
          -7 -83 47 -67 108 -6 -11 -47 rcurveline
          33 hlineto
          11 47 124 8 112 110 10 119 rlinecurve
          -108 442 rmoveto
          -66 -259 -36 9 -76 20 6 82 rlinecurve
          6 67 69 70 97 11 rrcurveto
          46 -480 rmoveto
          -6 -74 -75 -81 -94 -11 72 286 rcurveline
          21 -5 90 -19 -8 -96 rrcurveto
          endchar
        </CharString>
        <CharString name="dollar.oldstyle">
          658 -34 -21 46 33 119 84 256 84 105 33 46 -20 hstem
          122 38 47 58 304 58 45 39 vstem
          627 230 rmoveto
          55 -30 51 -53 30 vhcurveto
          -14 8 -16 8 -16 2 71 282 rcurveline
          49 -12 54 -23 -64 vvcurveto
          -27 -25 -20 -31 hvcurveto
          -21 1 18 -12 19 hhcurveto
          45 8 55 29 84 -66 31 -68 17 hvcurveto
          3 11 6 17 8 vvcurveto
          9 -7 7 -9 -20 -3 -25 -23 -4 vhcurveto
          0 -21 2 -5 -18 -18 0 -2 -18 vhcurveto
          3 11 4 11 11 vvcurveto
          4 vlineto
          7 -1 -7 4 -7 hhcurveto
          -20 -5 -37 -17 -2 hvcurveto
          -89 -12 -132 -86 -114 vvcurveto
          -74 58 -51 73 -21 vhcurveto
          -77 -308 rlineto
          -53 14 -48 27 71 vvcurveto
          27 26 19 30 17 -11 18 -24 -48 -8 -53 -34 -88 63 -40 68 -14 hvcurveto
          -4 -11 -5 -17 -10 vvcurveto
          -9 7 -6 9 18 0 25 23 7 vhcurveto
          0 16 -2 11 vhcurveto
          21 -1 33 3 0 vvcurveto
          -2 -11 -5 -12 -10 vvcurveto
          -2 vlineto
          -9 1 7 -4 8 hhcurveto
          20 4 37 18 3 hvcurveto
          102 14 123 104 112 vvcurveto
          -160 163 rmoveto
          -76 22 rlineto
          0 60 232 3 22 vhcurveto
          1 17 18 2 18 hhcurveto
          10 9 0 -2 10 hvcurveto
          -177 -248 rmoveto
          -24 9 rlineto
          -37 17 -33 28 42 vvcurveto
          79 103 56 50 8 vhcurveto
          151 -464 rmoveto
          -81 -94 -64 -64 -16 vhcurveto
          66 265 rlineto
          49 -12 43 -42 -50 vvcurveto
          -123 113 rmoveto
          -72 -283 -42 -3 rlineto
          -10 -19 0 2 -9 hvcurveto
          76 304 rlineto
          endchar
        </CharString>
        <CharString name="dong">
          549 -32 32 652 32 hstem
          555 171 rmoveto
          12 -13 0 -5 -16 0 -3 -24 -6 vhcurveto
          -73 -18 -20 -31 -26 hhcurveto
          -26 0 30 12 5 0 11 3 11 hvcurveto
          104 418 rlineto
          48 hlineto
          9 8 7 8 2 hvcurveto
          8 2 -5 8 -8 hhcurveto
          -49 hlineto
          24 96 61 callsubr
          14 -15 -1 -10 -1 vhcurveto
          -99 -9 rlineto
          -13 -11 -1 -18 -13 12 0 13 45 0 -6 -8 -5 -2 -10 -1 -6 hvcurveto
          -12 -47 rlineto
          -123 hlineto
          -7 -10 -8 -8 -2 hvcurveto
          -8 -2 6 -7 8 hhcurveto
          122 hlineto
          -35 -139 rlineto
          34 -19 -28 20 -40 hhcurveto
          -112 -115 -141 -136 -91 54 -61 71 56 47 42 23 20 hvcurveto
          -35 9 31 -30 45 hhcurveto
          35 22 21 30 17 hvcurveto
          20 38 12 57 0 vvcurveto
          -47 -187 rmoveto
          9 3 -6 7 -9 hhcurveto
          -416 18 callsubr
          416 hlineto
          24 callgsubr
          -137 177 rmoveto
          -33 -8 -63 -76 -56 hhcurveto
          -44 -15 48 38 45 28 112 24 44 hvcurveto
          69 38 41 19 27 hhcurveto
          60 10 -81 -9 hvcurveto
          -2 -14 rlineto
          endchar
        </CharString>
        <CharString name="dotaccent">
          329 543 111 hstem
          371 608 -94 callsubr
        </CharString>
        <CharString name="dotaccent.alt">
          329 360 566 -94 callsubr
        </CharString>
        <CharString name="dotaccent.cap">
          329 481 111 hstem
          355 546 -94 callsubr
        </CharString>
        <CharString name="dotlessi">
          19 callsubr
          hstem
          135 64 37 63 vstem
          -101 callgsubr
          endchar
        </CharString>
        <CharString name="dotlessj">
          39 callsubr
          hstem
          -35 86 220 66 vstem
          -72 callgsubr
          endchar
        </CharString>
        <CharString name="e">
          -25 callgsubr
          hstem
          4 callsubr
          vstem
          -102 callsubr
          endchar
        </CharString>
        <CharString name="eacute">
          -25 callgsubr
          81 -21 195 -20 6 callsubr
          hintmask 11100110
          -102 callsubr
          hintmask 00011000
          92 311 -93 callgsubr
        </CharString>
        <CharString name="ebreve">
          -25 callgsubr
          70 96 callgsubr
          6 callsubr
          hintmask 11100110
          -102 callsubr
          hintmask 00011000
          118 318 -103 callsubr
          endchar
        </CharString>
        <CharString name="ecaron">
          -25 callgsubr
          6 callsubr
          vstemhm
          -102 callsubr
          104 309 -68 callgsubr
        </CharString>
        <CharString name="ecircumflex">
          -25 callgsubr
          6 callsubr
          vstemhm
          -102 callsubr
          71 180 -76 callgsubr
          endchar
        </CharString>
        <CharString name="ecircumflexacute">
          -25 callgsubr
          377 -20 6 callsubr
          hintmask 11101100
          -102 callsubr
          hintmask 00010000
          70 181 -102 callgsubr
          36 246 rmoveto
          -104 callsubr
        </CharString>
        <CharString name="ecircumflexdotbelow">
          -25 callgsubr
          6 callsubr
          vstemhm
          -102 callsubr
          71 180 -76 callgsubr
          -251 -669 -94 callsubr
        </CharString>
        <CharString name="ecircumflexgrave">
          -25 callgsubr
          6 callsubr
          vstemhm
          -102 callsubr
          70 181 -79 callsubr
        </CharString>
        <CharString name="ecircumflexhookabove">
          -25 callgsubr
          399 -20 6 callsubr
          hintmask 11101100
          -102 callsubr
          hintmask 00010100
          70 181 -102 callgsubr
          115 236 -107 callgsubr
        </CharString>
        <CharString name="ecircumflextilde">
          -25 callgsubr
          234 41 26 41 6 callsubr
          hintmask 11100110
          -102 callsubr
          hintmask 00011000
          70 181 -102 callgsubr
          86 234 -106 callgsubr
        </CharString>
        <CharString name="edblgrave">
          -25 callgsubr
          82 -21 193 -20 6 callsubr
          hintmask 11100110
          -102 callsubr
          hintmask 00011000
          59 166 -86 callsubr
        </CharString>
        <CharString name="edieresis">
          -25 callgsubr
          108 100 6 callsubr
          hintmask 11101100
          -102 callsubr
          hintmask 00010000
          -91 254 -52 callgsubr
        </CharString>
        <CharString name="edotaccent">
          -25 callgsubr
          102 111 6 callsubr
          hintmask 11101100
          -102 callsubr
          hintmask 00010000
          6 254 -94 callsubr
        </CharString>
        <CharString name="edotbelow">
          -25 callgsubr
          6 callsubr
          vstemhm
          -102 callsubr
          -180 -489 -94 callsubr
        </CharString>
        <CharString name="egrave">
          -25 callgsubr
          81 -21 195 -20 6 callsubr
          hintmask 11100110
          -102 callsubr
          hintmask 00011000
          -6 168 -74 callgsubr
        </CharString>
        <CharString name="ehookabove">
          -25 callgsubr
          76 -21 205 -20 6 callsubr
          hintmask 11100110
          -102 callsubr
          hintmask 00011000
          55 278 -107 callgsubr
        </CharString>
        <CharString name="eight">
          549 -21 30 630 26 hstemhm
          102 34 callgsubr
          525 -63 callsubr
        </CharString>
        <CharString name="eight.oldstyle">
          558 -21 30 630 26 hstemhm
          108 34 callgsubr
          531 -63 callsubr
        </CharString>
        <CharString name="eight.prop">
          558 -21 30 630 26 hstemhm
          108 34 callgsubr
          531 -63 callsubr
        </CharString>
        <CharString name="eight.taboldstyle">
          549 -21 30 630 26 hstemhm
          102 34 callgsubr
          525 -63 callsubr
        </CharString>
        <CharString name="ellipsis">
          732 0 111 hstem
          235 66 -5 callgsubr
          201 hmoveto
          -19 callgsubr
          201 hmoveto
          -19 callgsubr
          endchar
        </CharString>
        <CharString name="emacron">
          -25 callgsubr
          140 36 6 callsubr
          hintmask 11101100
          -102 callsubr
          hintmask 00010000
          129 249 -84 callsubr
        </CharString>
        <CharString name="emdash">
          1097 252 28 hstem
          121 986 vstem
          1107 266 rmoveto
          14 -13 0 -15 vhcurveto
          -930 48 callsubr
          13 0 15 hvcurveto
          930 hlineto
          15 13 0 14 hvcurveto
          endchar
        </CharString>
        <CharString name="emdash.alt">
          768 253 28 hstem
          778 267 rmoveto
          9 -7 5 -10 vhcurveto
          -621 44 callsubr
          -7 -2 -3 -5 -5 vvcurveto
          -6 4 -7 8 -2 vhcurveto
          626 hlineto
          9 10 4 10 hvcurveto
          endchar
        </CharString>
        <CharString name="endash">
          549 252 28 hstem
          94 492 vstem
          586 266 rmoveto
          14 -13 0 -15 vhcurveto
          -436 48 callsubr
          13 0 15 hvcurveto
          436 hlineto
          15 13 0 14 hvcurveto
          endchar
        </CharString>
        <CharString name="eng">
          534 -215 70 558 28 hstem
          482 66 vstem
          548 333 rmoveto
          -88 callgsubr
          -93 -53 -97 -24 -95 hvcurveto
          -21 -84 -25 -101 -38 -38 rrcurveto
          9 -4 -9 7 -12 hhcurveto
          -20 -19 -16 -19 -5 hvcurveto
          -20 -5 12 -15 19 hhcurveto
          113 51 145 132 33 hvcurveto
          23 91 50 91 89 vvcurveto
          endchar
        </CharString>
        <CharString name="eogonek">
          494 -211 47 154 -22 callsubr
          hstem
          4 callsubr
          vstem
          -24 callgsubr
          endchar
        </CharString>
        <CharString name="eogonekacute">
          494 -211 47 154 -22 callsubr
          81 -21 195 -20 6 callsubr
          hintmask 11110011
          -24 callgsubr
          hintmask 00001100
          92 311 -93 callgsubr
        </CharString>
        <CharString name="equal">
          823 121 46 166 46 hstem
          118 705 vstem
          828 356 12 callgsubr
          -53 -212 rmoveto
          23 -20 0 -14 vhcurveto
          -588 112 callsubr
          578 hlineto
          15 24 0 23 hvcurveto
          endchar
        </CharString>
        <CharString name="ereversed">
          -25 callgsubr
          hstem
          511 170 rmoveto
          177 88 -105 94 -108 hhcurveto
          -68 -62 -37 -50 -25 hvcurveto
          -126 -63 187 0 40 hhcurveto
          57 hlineto
          -8 -30 -15 -43 -11 -23 rrcurveto
          -45 -23 -50 -69 -69 hhcurveto
          -55 -67 25 66 -21 hvcurveto
          10 -4 0 2 -6 hhcurveto
          -7 -19 -13 -8 -4 hvcurveto
          -14 -7 33 -96 144 hhcurveto
          106 96 88 92 46 hvcurveto
          -53 86 rmoveto
          -41 hlineto
          -37 -154 0 98 49 hvcurveto
          40 20 42 19 35 hhcurveto
          44 71 -33 -124 -29 hvcurveto
          endchar
        </CharString>
        <CharString name="estimated">
          719 -9 31 319 28 -27 27 302 28 hstemhm
          128 89 472 80 hintmask 10101000
          693 121 rmoveto
          9 -9 5 -9 -19 -4 -14 -10 -9 vhcurveto
          -67 -61 -93 -22 -88 hhcurveto
          -130 -54 101 99 36 5 39 10 36 hvcurveto
          9 9 0 6 vhcurveto
          465 hlineto
          hintmask 11011100
          5 7 -1 6 hhcurveto
          25 -2 19 14 3 hvcurveto
          9 35 4 37 36 vvcurveto
          51 -12 50 -31 41 vhcurveto
          57 -44 -75 18 -69 hhcurveto
          -13 hlineto
          -217 -22 -180 -211 -206 vvcurveto
          -146 100 -123 160 102 115 21 82 71 vhcurveto
          7 7 10 11 9 vvcurveto
          -24 250 rmoveto
          -2 -3 -4 0 -3 hhcurveto
          -418 hlineto
          36 114 58 107 108 54 rrcurveto
          16 32 35 11 35 hhcurveto
          33 39 -11 -25 25 hvcurveto
          37 -35 10 -50 -50 vvcurveto
          -37 -10 -86 -10 -6 vhcurveto
          endchar
        </CharString>
        <CharString name="eth">
          549 -10 31 396 28 hstem
          100 76 299 95 vstem
          544 208 rmoveto
          22 85 4 30 44 vvcurveto
          102 -38 87 -66 60 vhcurveto
          87 44 rlineto
          9 5 4 8 6 vvcurveto
          8 -5 7 -8 -3 -4 -1 -2 -4 vhcurveto
          -104 -53 -38 27 -45 19 -50 10 rlinecurve
          -9 2 -9 -10 -10 vvcurveto
          -5 3 -5 7 -3 vhcurveto
          31 -14 29 -18 24 -21 -77 -39 rcurveline
          -9 -5 -4 -8 -6 vvcurveto
          -8 5 -7 8 3 4 1 2 4 vhcurveto
          91 46 47 -52 29 -69 4 -78 rlinecurve
          22 -13 -32 36 -58 hhcurveto
          -143 -140 -148 -139 -101 72 -67 99 118 123 97 121 32 hvcurveto
          -69 90 rmoveto
          -61 -26 -91 -31 -46 vhcurveto
          -71 -50 -66 -8 -23 hhcurveto
          -43 -60 21 86 35 20 104 32 57 hvcurveto
          66 38 64 27 46 hhcurveto
          38 61 -19 -100 hvcurveto
          endchar
        </CharString>
        <CharString name="etilde">
          -25 callgsubr
          104 41 26 41 6 callsubr
          hintmask 11100110
          -102 callsubr
          hintmask 00011000
          125 285 -106 callgsubr
        </CharString>
        <CharString name="eturned">
          -13 callsubr
        </CharString>
        <CharString name="exclam">
          329 0 111 101 -21 524 -20 hstem
          121 113 vstem
          381 647 rmoveto
          3 8 2 7 9 vvcurveto
          27 -21 17 -26 -15 -43 -9 -50 -9 vhcurveto
          -75 -439 -2 -13 rlineto
          -13 10 0 9 13 3 0 17 6 vhcurveto
          -2 -143 29 callgsubr
          endchar
        </CharString>
        <CharString name="exclamdown">
          329 -194 -21 524 -20 100 111 hstem
          66 265 vstem
          331 454 -97 callsubr
          -151 -610 rmoveto
          75 439 2 13 rlineto
          13 -10 0 -9 -13 -3 0 -17 -6 vhcurveto
          -145 -439 rlineto
          -3 -8 -2 -7 -9 vvcurveto
          -27 21 -17 26 15 43 9 50 9 vhcurveto
          endchar
        </CharString>
        <CharString name="f">
          -31 callsubr
        </CharString>
        <CharString name="f_f">
          658 -204 28 15 79 480 33 245 28 hstem
          -25 86 165 86 157 86 160 86 vstem
          801 637 rmoveto
          42 -45 25 -52 -107 -25 -122 -36 -7 vhcurveto
          -22 -115 rlineto
          -248 hlineto
          9 45 -1 -4 8 45 6 31 13 64 15 23 rrcurveto
          16 10 31 25 51 hhcurveto
          10 29 0 -15 25 hvcurveto
          -32 -13 0 -28 -4 30 callgsubr
          37 -36 30 -83 -128 -45 -74 -97 -18 vhcurveto
          -19 -102 rlineto
          -70 49 callgsubr
          -19 -42 callgsubr
          66 hlineto
          -70 -368 -11 -60 -1 -5 -16 -59 rlinecurve
          -23 -7 -15 -59 -36 hhcurveto
          -23 -8 6 6 -7 hvcurveto
          20 3 callsubr
          -44 44 -23 44 103 42 171 107 20 vhcurveto
          61 324 rlineto
          248 hlineto
          -64 -338 -11 -57 -1 -5 -15 -55 rlinecurve
          -14 -48 -6 -12 -24 -24 rrcurveto
          -15 -14 -22 -20 -33 hhcurveto
          -5 -27 0 14 36 callsubr
          -47 54 -20 52 78 55 63 21 15 vhcurveto
          39 55 29 152 1 6 57 305 rcurveline
          88 hlineto
          18 11 0 19 14 -11 0 -17 hvcurveto
          -82 hlineto
          30 158 rlineto
          37 8 11 50 42 hhcurveto
          3 24 0 -14 18 hvcurveto
          -34 -12 0 -31 -3 30 callgsubr
          vhcurveto
          endchar
        </CharString>
        <CharString name="f_f_i">
          946 -204 28 15 79 72 95 callsubr
          141 89 15 28 hstem
          -25 86 166 86 183 86 187 66 48 87 vstem
          972 -7 callgsubr
          78 315 rlineto
          1 5 1 5 3 vvcurveto
          12 -11 0 -15 vhcurveto
          -268 hlineto
          199 35 9 46 140 hhcurveto
          23 59 0 -23 30 hvcurveto
          -36 -11 -1 -36 0 vvcurveto
          -20 14 -14 22 26 25 22 36 74 -119 0 -45 -81 -120 -4 -176 -33 vhcurveto
          -18 -93 rlineto
          -258 hlineto
          16 90 8 46 14 39 rrcurveto
          26 9 19 44 89 hhcurveto
          5 45 0 -14 26 59 callsubr
          29 22 24 31 67 -105 0 -27 -52 -66 -8 -57 -44 vhcurveto
          -31 -40 -9 -49 -22 -119 rrcurveto
          -70 hlineto
          -17 -13 76 callgsubr
          65 hlineto
          -69 -365 rlineto
          -209 -39 -27 0 -21 hhcurveto
          -23 -8 6 6 -7 hvcurveto
          20 3 callsubr
          -44 45 -23 43 103 41 166 115 22 vhcurveto
          60 321 rlineto
          259 hlineto
          -63 -336 -8 -42 -10 -41 -12 -41 rlinecurve
          -10 -34 -6 -18 -23 -24 rrcurveto
          -22 -22 -25 -16 -30 hhcurveto
          -6 -31 1 13 36 callsubr
          -45 50 -22 61 85 57 70 11 9 vhcurveto
          41 57 27 143 2 9 59 312 rcurveline
          226 10 callsubr
          endchar
        </CharString>
        <CharString name="f_f_l">
          960 -204 28 15 79 72 95 callsubr
          245 28 hstemhm
          -25 86 0 66 100 86 156 86 228 66 hintmask 1111101011000000
          986 -7 callgsubr
          146 591 rlineto
          12 -10 0 -16 vhcurveto
          18 callgsubr
          -25 -85 0 -55 -47 hvcurveto
          -39 -45 -8 -43 -23 -130 rrcurveto
          -259 hlineto
          8 44 -1 -2 9 44 5 26 13 67 16 27 rrcurveto
          9 6 29 30 56 hhcurveto
          10 29 0 -15 25 hvcurveto
          -32 -13 0 -28 -4 30 callgsubr
          34 -32 33 -87 -127 -45 -73 -96 -18 vhcurveto
          -20 -104 rlineto
          -70 hlineto
          -17 -12 31 callgsubr
          15 hvcurveto
          65 hlineto
          -70 -370 -11 -61 -2 -6 -16 -58 rlinecurve
          -22 -6 -15 -57 -36 hhcurveto
          -23 -8 6 6 -7 hvcurveto
          20 8 15 18 22 37 callgsubr
          vhcurveto
          hintmask 1111110101000000
          -29 -22 -24 -31 -44 45 -23 43 105 41 174 102 19 hvcurveto
          62 326 rlineto
          258 hlineto
          -64 -338 -9 -46 -19 -85 -16 -33 rlinecurve
          -20 -9 -40 -52 -52 hhcurveto
          -6 -31 1 13 36 callsubr
          -45 50 -22 61 79 67 62 50 23 vhcurveto
          22 49 15 52 10 53 64 336 rcurveline
          240 10 callsubr
          -120 288 rmoveto
          -242 hlineto
          22 121 7 30 10 27 rrcurveto
          26 10 21 41 89 11 callsubr
        </CharString>
        <CharString name="f_i">
          603 71 callsubr
          365 66 48 87 vstem
          629 -7 callgsubr
          78 315 rlineto
          1 5 1 5 3 vvcurveto
          12 -11 0 -15 vhcurveto
          -254 hlineto
          18 94 rlineto
          102 21 15 49 124 hhcurveto
          30 47 -3 -19 26 hvcurveto
          0 -36 -15 -33 vvcurveto
          -20 14 -14 22 26 25 22 35 72 -106 3 -50 -82 -113 -8 -168 -32 vhcurveto
          -18 -97 rlineto
          -71 hlineto
          -17 -12 0 -19 -42 callgsubr
          65 hlineto
          -67 -357 -12 -62 -3 -17 -16 -58 rlinecurve
          -25 -7 -15 -55 -35 hhcurveto
          -22 -15 12 0 hvcurveto
          19 3 callsubr
          -46 48 -21 39 104 41 166 113 21 vhcurveto
          61 323 rlineto
          212 10 callsubr
          endchar
        </CharString>
        <CharString name="f_k">
          849 -204 28 166 95 callsubr
          -18 28 235 28 hstemhm
          -25 86 606 69 62 86 hintmask 01011011
          874 -39 callgsubr
          -2 -5 -15 -4 vhcurveto
          -57 -14 -20 -61 -44 hhcurveto
          -16 -14 9 37 16 3 19 4 15 hvcurveto
          4 16 0 6 9 vvcurveto
          71 -69 24 -69 12 vhcurveto
          36 24 41 44 7 7 rrcurveto
          63 56 40 23 36 hhcurveto
          15 7 -7 -6 4 hvcurveto
          -19 -4 -23 -17 -28 vvcurveto
          -28 22 -6 13 24 27 19 39 32 -21 34 -48 -49 -45 -33 -59 -55 vhcurveto
          -61 -65 -21 -10 -19 -9 100 400 rcurveline
          4 17 rlineto
          12 3 -13 0 -16 hhcurveto
          18 callgsubr
          -31 -81 0 -59 -49 hvcurveto
          hintmask 11101110
          -1 callgsubr
          -92 -364 rlineto
          -1 -4 -2 -7 -4 vvcurveto
          -14 10 -15 21 18 16 11 27 7 vhcurveto
          49 198 rlineto
          41 -5 71 -18 -59 vvcurveto
          -6 0 -4 -3 -15 vhcurveto
          -2 -7 -2 -12 -11 vvcurveto
          -56 37 -43 56 44 26 34 18 12 vhcurveto
          23 37 16 58 6 vvcurveto
          -337 288 rmoveto
          -242 hlineto
          30 149 0 2 9 26 rrcurveto
          31 12 23 37 85 11 callsubr
        </CharString>
        <CharString name="f_l">
          631 71 callsubr
          393 66 vstem
          657 -7 callgsubr
          146 591 rlineto
          12 -10 0 -16 vhcurveto
          18 callgsubr
          -31 -81 0 -59 -49 hvcurveto
          -1 callgsubr
          -70 -280 rlineto
          -5 -20 0 -6 -10 vvcurveto
          -61 46 -31 46 36 24 22 31 17 vhcurveto
          21 40 13 60 0 vvcurveto
          -120 288 rmoveto
          -242 hlineto
          30 149 0 2 9 26 rrcurveto
          31 12 23 37 85 11 callsubr
        </CharString>
        <CharString name="five">
          549 -21 47 callgsubr
          455 74 vstem
          529 259 -71 callgsubr
        </CharString>
        <CharString name="five.oldstyle">
          542 -215 47 callgsubr
          404 74 vstem
          478 65 -71 callgsubr
        </CharString>
        <CharString name="five.prop">
          542 -21 47 callgsubr
          453 74 vstem
          527 259 -71 callgsubr
        </CharString>
        <CharString name="five.taboldstyle">
          549 -215 47 callgsubr
          407 74 vstem
          481 65 -71 callgsubr
        </CharString>
        <CharString name="florin">
          -31 callsubr
        </CharString>
        <CharString name="four">
          549 70 callgsubr
          509 -38 callsubr
        </CharString>
        <CharString name="four.oldstyle">
          536 111 callsubr
          502 -32 callgsubr
        </CharString>
        <CharString name="four.prop">
          537 70 callgsubr
          505 -38 callsubr
        </CharString>
        <CharString name="four.taboldstyle">
          549 111 callsubr
          507 -32 callgsubr
        </CharString>
        <CharString name="fraction">
          649 733 10 callgsubr
        </CharString>
        <CharString name="fraction.alt">
          0 408 10 callgsubr
        </CharString>
        <CharString name="g">
          5 callsubr
          hstem
          115 73 vstem
          511 373 -21 callgsubr
        </CharString>
        <CharString name="gacute">
          5 callsubr
          21 callsubr
          115 73 hintmask 11100100
          511 373 -89 callsubr
          hintmask 00011000
          130 359 -93 callgsubr
        </CharString>
        <CharString name="gbreve">
          5 callsubr
          70 96 callgsubr
          hstemhm
          115 73 hintmask 11100100
          511 373 -89 callsubr
          hintmask 00011000
          156 366 -103 callsubr
          endchar
        </CharString>
        <CharString name="gcaron">
          5 callsubr
          hstemhm
          115 73 vstemhm
          511 373 -89 callsubr
          142 357 -68 callgsubr
        </CharString>
        <CharString name="gcedilla">
          -43 callsubr
        </CharString>
</ttFont>
